{"glyphs":{"0":{"ha":474,"x_min":40,"x_max":525,"o":"m 212 1 l 212 1 q 113 31 151 1 q 58 110 75 60 q 40 219 40 159 l 40 219 q 66 386 40 296 q 141 558 91 476 l 141 558 q 251 685 189 635 q 380 735 313 735 l 380 735 q 462 703 430 735 q 510 615 494 670 q 525 492 525 560 l 525 492 q 505 324 525 408 q 444 166 484 240 l 444 166 q 345 47 404 93 q 212 1 285 1 z m 242 169 l 242 169 q 311 194 280 169 q 363 257 341 218 q 397 340 385 296 q 409 423 409 384 l 409 423 q 393 496 409 466 q 340 526 376 526 l 340 526 q 284 499 311 526 q 236 429 257 471 q 203 339 215 386 q 190 252 190 291 l 190 252 q 202 192 190 215 q 242 169 214 169 z"},"1":{"ha":320,"x_min":73,"x_max":399,"o":"m 91 4 l 91 4 l 130 184 q 145 258 136 214 q 164 349 154 301 q 181 440 173 397 q 194 513 189 483 l 194 513 q 147 507 169 511 l 147 507 l 108 501 q 73 495 88 497 l 73 495 q 76 513 74 502 q 79 538 77 524 l 79 538 l 88 596 q 93 632 90 613 q 98 670 95 650 l 98 670 q 126 676 109 672 q 162 683 142 679 l 162 683 l 255 698 q 320 709 284 703 q 399 721 356 714 l 399 721 q 328 387 359 553 q 269 43 297 221 l 269 43 q 216 29 246 36 q 157 17 186 22 l 157 17 q 125 10 141 13 q 91 4 108 7 z"},"2":{"ha":467,"x_min":1,"x_max":538,"o":"m 170 21 l 1 9 l 18 135 q 49 200 21 165 q 116 270 76 234 q 196 335 156 305 l 196 335 q 276 397 238 367 q 338 453 314 427 q 362 497 362 479 l 362 497 q 351 544 362 527 q 322 560 339 560 l 322 560 q 275 535 289 560 q 261 479 261 510 l 261 479 l 261 469 q 262 465 261 466 l 262 465 q 235 463 249 464 q 206 460 220 462 l 206 460 q 180 458 193 459 q 151 455 166 457 l 151 455 q 120 452 135 453 q 90 448 105 450 l 90 448 q 89 465 89 456 q 88 480 88 473 l 88 480 q 111 586 88 539 q 171 664 133 632 q 254 713 208 696 q 346 729 300 729 l 346 729 q 441 708 397 729 q 511 642 484 686 q 538 529 538 597 l 538 529 q 512 432 538 479 q 440 339 486 384 l 440 339 q 331 250 394 293 q 194 168 268 207 l 194 168 q 302 172 239 168 q 447 183 364 176 l 447 183 l 431 38 q 314 30 384 34 q 170 21 244 26 l 170 21 z"},"3":{"ha":458,"x_min":10,"x_max":518,"o":"m 175 -12 l 175 -12 q 92 3 129 -12 q 32 47 54 17 q 10 123 10 77 l 10 123 q 19 174 10 146 l 19 174 l 194 184 q 204 155 194 164 q 229 146 214 146 l 229 146 q 267 157 247 146 q 302 187 287 168 q 316 226 316 205 l 316 226 q 293 270 316 250 q 217 290 270 290 l 217 290 q 179 289 198 290 q 140 285 159 287 l 140 285 q 105 280 121 282 q 76 277 89 278 l 76 277 l 94 425 q 156 466 124 444 q 214 507 188 487 l 214 507 q 245 530 230 518 q 273 552 259 541 l 273 552 l 112 549 l 124 721 q 212 725 170 723 q 293 729 254 727 l 293 729 q 420 733 367 729 q 518 736 472 736 l 518 736 l 494 523 l 294 418 q 439 355 397 399 q 480 256 480 310 l 480 256 q 455 162 480 209 q 387 75 430 114 q 290 12 344 36 q 175 -12 235 -12 z"},"4":{"ha":459,"x_min":22,"x_max":503,"o":"m 402 30 l 218 -2 l 238 158 l 66 145 l 22 235 l 85 424 q 138 586 114 509 q 180 712 162 662 l 180 712 q 260 715 222 712 q 340 723 297 717 l 340 723 q 272 536 303 630 q 210 345 240 442 l 210 345 q 205 321 209 332 l 205 321 l 276 321 q 290 400 282 362 q 305 477 298 437 l 305 477 q 316 538 310 506 q 329 604 322 570 l 329 604 l 394 613 q 450 620 421 617 q 500 625 479 623 l 500 625 q 491 570 499 609 q 474 473 483 530 l 474 473 q 461 397 468 438 q 446 321 453 355 l 446 321 l 503 321 l 462 161 l 411 161 l 402 30 z"},"5":{"ha":450,"x_min":44,"x_max":516,"o":"m 206 -5 l 206 -5 q 87 44 130 -5 q 44 173 44 93 l 44 173 q 46 213 44 192 q 49 257 47 234 l 49 257 l 203 245 q 198 221 198 228 l 198 221 q 210 192 198 201 q 238 183 222 183 l 238 183 q 291 207 266 183 q 315 278 315 231 l 315 278 q 295 322 315 304 q 209 340 274 340 l 209 340 q 185 339 198 340 q 145 335 171 338 q 69 322 119 331 l 69 322 q 96 495 80 397 q 135 715 112 592 l 135 715 l 516 729 l 496 566 q 440 564 468 565 q 383 562 412 563 l 383 562 q 325 560 354 561 q 265 557 295 559 l 265 557 l 255 473 q 364 461 319 473 q 437 428 409 449 l 437 428 q 478 379 465 407 q 490 315 490 350 l 490 315 q 466 210 490 266 q 397 103 441 153 l 397 103 q 302 24 352 52 q 206 -5 252 -5 z"},"6":{"ha":478,"x_min":52,"x_max":532,"o":"m 261 5 l 261 5 q 157 33 205 5 q 81 116 109 61 q 52 253 52 171 l 52 253 q 85 467 52 375 q 167 619 118 558 l 167 619 q 275 709 217 679 q 383 738 332 738 l 383 738 q 494 689 455 738 q 532 565 532 639 l 532 565 l 395 500 q 358 571 395 571 l 358 571 q 321 544 341 571 q 283 475 301 517 q 252 383 264 432 l 252 383 q 295 393 274 390 q 334 396 315 396 l 334 396 q 427 372 389 396 q 484 308 464 347 q 503 224 503 268 l 503 224 q 476 120 503 170 q 396 38 449 70 q 261 5 342 5 z m 278 155 l 278 155 q 345 181 318 155 q 372 235 372 206 l 372 235 q 355 263 372 251 l 355 263 q 294 275 339 275 l 294 275 q 265 273 280 275 q 230 265 249 271 l 230 265 q 229 259 229 262 q 229 253 229 256 l 229 253 l 229 241 q 244 175 229 195 l 244 175 q 278 155 259 155 z"},"7":{"ha":339,"x_min":29,"x_max":462,"o":"m 208 25 l 29 9 l 228 556 l 80 534 l 111 710 l 462 740 l 208 25 z"},"8":{"ha":518,"x_min":20,"x_max":588,"o":"m 227 -11 l 227 -11 q 121 6 167 -11 q 47 60 74 23 q 20 154 20 96 l 20 154 q 37 249 20 200 q 88 337 53 297 q 180 397 123 377 l 180 397 q 133 453 147 424 q 118 513 118 482 l 118 513 q 144 598 118 557 q 214 672 170 639 q 312 725 258 705 q 419 744 365 744 l 419 744 q 514 723 476 744 q 570 667 551 701 q 588 592 588 632 l 588 592 q 557 489 588 540 q 467 411 525 437 l 467 411 q 518 334 502 374 q 533 253 533 293 l 533 253 q 509 154 533 201 q 443 69 485 106 q 346 11 401 32 q 227 -11 290 -11 z m 329 441 l 329 441 q 377 457 354 441 q 416 494 400 472 q 431 533 431 515 l 431 533 q 408 570 431 559 q 361 581 385 581 l 361 581 q 297 555 318 581 q 275 498 275 528 l 275 498 q 290 459 275 476 q 329 441 304 441 z m 254 142 l 254 142 q 354 171 325 142 q 383 235 383 200 l 383 235 q 362 307 383 286 q 311 327 340 327 l 311 327 q 244 309 277 327 q 188 262 210 290 q 165 205 165 234 l 165 205 q 185 161 165 180 q 254 142 205 142 z"},"9":{"ha":489,"x_min":70,"x_max":544,"o":"m 146 7 l 146 7 l 161 173 q 279 218 229 173 q 348 341 329 263 l 348 341 q 300 320 325 327 q 249 313 274 313 l 249 313 q 163 337 204 313 q 96 406 122 361 q 70 510 70 450 l 70 510 q 105 637 70 585 q 195 716 140 689 q 307 743 249 743 l 307 743 q 422 714 368 743 q 510 624 476 684 q 544 471 544 564 l 544 471 q 510 284 544 369 q 420 137 476 199 l 420 137 q 293 42 364 76 q 146 7 222 7 z m 303 466 l 303 466 q 349 480 328 466 q 370 521 370 494 l 370 521 q 354 583 370 567 q 314 598 337 598 l 314 598 q 278 590 297 598 q 246 566 259 581 q 233 529 233 551 l 233 529 q 255 481 233 496 q 303 466 277 466 z"},"A":{"ha":433,"x_min":-21,"x_max":464,"o":"m 259 2 l 259 2 q 263 35 261 19 q 267 67 265 51 l 267 67 l 273 123 q 275 149 274 137 q 277 171 276 161 l 277 171 l 190 171 l 150 27 q 98 21 128 24 q 42 14 68 17 l 42 14 q 11 10 26 12 q -21 6 -5 8 l -21 6 l 58 268 q 90 375 72 315 q 127 498 108 435 q 162 617 145 561 q 188 710 178 672 l 188 710 q 327 722 256 715 q 464 741 397 729 l 464 741 q 455 615 459 685 q 447 469 450 544 q 439 321 443 394 l 439 321 q 434 179 437 252 q 428 28 431 105 l 428 28 q 398 24 413 26 q 368 20 383 22 l 368 20 q 313 11 343 16 q 259 2 283 6 z m 276 522 l 214 271 q 237 272 220 271 q 268 274 253 273 q 286 275 283 275 l 286 275 q 290 328 286 288 q 298 412 294 368 l 298 412 q 303 466 300 438 q 308 522 305 493 l 308 522 l 314 609 l 299 608 l 276 522 z"},"Á":{"ha":433,"x_min":-21,"x_max":468,"o":"m 259 2 l 259 2 q 263 35 261 19 q 267 67 265 51 l 267 67 l 273 123 q 275 149 274 137 q 277 171 276 161 l 277 171 l 190 171 l 150 27 q 98 21 128 24 q 42 14 68 17 l 42 14 q 11 10 26 12 q -21 6 -5 8 l -21 6 l 58 268 q 90 375 72 315 q 127 498 108 435 q 162 617 145 561 q 188 710 178 672 l 188 710 q 327 722 256 715 q 464 741 397 729 l 464 741 q 455 615 459 685 q 447 469 450 544 q 439 321 443 394 l 439 321 q 434 179 437 252 q 428 28 431 105 l 428 28 q 398 24 413 26 q 368 20 383 22 l 368 20 q 313 11 343 16 q 259 2 283 6 z m 276 522 l 214 271 q 237 272 220 271 q 268 274 253 273 q 286 275 283 275 l 286 275 q 290 328 286 288 q 298 412 294 368 l 298 412 q 303 466 300 438 q 308 522 305 493 l 308 522 l 314 609 l 299 608 l 276 522 z m 214 750 l 214 750 q 213 761 213 755 q 213 770 213 766 l 213 770 l 213 788 q 213 805 213 796 q 214 821 213 813 l 214 821 l 214 855 q 280 921 248 890 q 342 978 312 951 l 342 978 q 400 1033 372 1005 q 454 1089 428 1061 l 454 1089 q 460 964 459 1021 l 460 964 q 462 906 460 935 q 468 845 464 876 l 468 845 q 407 821 439 833 q 341 797 375 809 l 341 797 q 275 773 307 784 q 214 750 243 761 z"},"Â":{"ha":433,"x_min":-21,"x_max":467,"o":"m 259 2 l 259 2 q 263 35 261 19 q 267 67 265 51 l 267 67 l 273 123 q 275 149 274 137 q 277 171 276 161 l 277 171 l 190 171 l 150 27 q 98 21 128 24 q 42 14 68 17 l 42 14 q 11 10 26 12 q -21 6 -5 8 l -21 6 l 58 268 q 90 375 72 315 q 127 498 108 435 q 162 617 145 561 q 188 710 178 672 l 188 710 q 327 722 256 715 q 464 741 397 729 l 464 741 q 455 615 459 685 q 447 469 450 544 q 439 321 443 394 l 439 321 q 434 179 437 252 q 428 28 431 105 l 428 28 q 398 24 413 26 q 368 20 383 22 l 368 20 q 313 11 343 16 q 259 2 283 6 z m 276 522 l 214 271 q 237 272 220 271 q 268 274 253 273 q 286 275 283 275 l 286 275 q 290 328 286 288 q 298 412 294 368 l 298 412 q 303 466 300 438 q 308 522 305 493 l 308 522 l 314 609 l 299 608 l 276 522 z m 223 750 l 223 750 q 200 771 210 761 q 184 788 190 780 l 184 788 q 176 797 180 793 q 169 805 172 801 l 169 805 q 198 846 183 825 q 227 885 212 866 l 227 885 q 282 954 252 918 q 337 1016 311 990 l 337 1016 q 371 1012 357 1013 q 392 1011 384 1010 l 392 1011 q 409 1010 407 1012 l 409 1010 q 418 981 413 997 q 427 948 422 965 l 427 948 l 445 882 q 456 845 450 863 q 467 808 462 827 l 467 808 l 443 788 q 433 780 438 784 q 420 770 427 775 l 420 770 l 395 751 l 334 869 q 292 828 314 851 q 252 783 270 804 q 223 750 234 762 z"},"Ä":{"ha":433,"x_min":-21,"x_max":531,"o":"m 259 2 l 259 2 q 263 35 261 19 q 267 67 265 51 l 267 67 l 273 123 q 275 149 274 137 q 277 171 276 161 l 277 171 l 190 171 l 150 27 q 98 21 128 24 q 42 14 68 17 l 42 14 q 11 10 26 12 q -21 6 -5 8 l -21 6 l 58 268 q 90 375 72 315 q 127 498 108 435 q 162 617 145 561 q 188 710 178 672 l 188 710 q 327 722 256 715 q 464 741 397 729 l 464 741 q 455 615 459 685 q 447 469 450 544 q 439 321 443 394 l 439 321 q 434 179 437 252 q 428 28 431 105 l 428 28 q 398 24 413 26 q 368 20 383 22 l 368 20 q 313 11 343 16 q 259 2 283 6 z m 276 522 l 214 271 q 237 272 220 271 q 268 274 253 273 q 286 275 283 275 l 286 275 q 290 328 286 288 q 298 412 294 368 l 298 412 q 303 466 300 438 q 308 522 305 493 l 308 522 l 314 609 l 299 608 l 276 522 z m 424 814 l 424 814 q 364 841 384 814 q 344 900 344 867 l 344 900 q 368 962 344 935 q 435 989 391 989 l 435 989 q 507 964 483 989 q 531 908 531 939 l 531 908 q 504 844 531 874 q 424 814 476 814 z m 192 814 l 192 814 q 132 841 152 814 q 112 900 112 867 l 112 900 q 135 962 112 934 q 202 989 157 989 l 202 989 q 275 964 251 989 q 298 908 298 939 l 298 908 q 269 842 298 869 q 192 814 239 814 z"},"À":{"ha":433,"x_min":-21,"x_max":464,"o":"m 259 2 l 259 2 q 263 35 261 19 q 267 67 265 51 l 267 67 l 273 123 q 275 149 274 137 q 277 171 276 161 l 277 171 l 190 171 l 150 27 q 98 21 128 24 q 42 14 68 17 l 42 14 q 11 10 26 12 q -21 6 -5 8 l -21 6 l 58 268 q 90 375 72 315 q 127 498 108 435 q 162 617 145 561 q 188 710 178 672 l 188 710 q 327 722 256 715 q 464 741 397 729 l 464 741 q 455 615 459 685 q 447 469 450 544 q 439 321 443 394 l 439 321 q 434 179 437 252 q 428 28 431 105 l 428 28 q 398 24 413 26 q 368 20 383 22 l 368 20 q 313 11 343 16 q 259 2 283 6 z m 276 522 l 214 271 q 237 272 220 271 q 268 274 253 273 q 286 275 283 275 l 286 275 q 290 328 286 288 q 298 412 294 368 l 298 412 q 303 466 300 438 q 308 522 305 493 l 308 522 l 314 609 l 299 608 l 276 522 z m 338 833 l 331 752 q 281 764 306 758 q 233 776 256 770 l 233 776 q 149 797 192 785 q 77 817 106 808 l 77 817 q 91 888 83 846 q 106 968 99 929 l 106 968 l 124 1062 q 164 1021 144 1041 q 202 980 183 1000 l 202 980 q 273 905 235 945 q 338 833 310 865 l 338 833 z"},"Å":{"ha":433,"x_min":-21,"x_max":464,"o":"m 259 2 l 259 2 q 263 35 261 19 q 267 67 265 51 l 267 67 l 273 123 q 275 149 274 137 q 277 171 276 161 l 277 171 l 190 171 l 150 27 q 98 21 128 24 q 42 14 68 17 l 42 14 q 11 10 26 12 q -21 6 -5 8 l -21 6 l 58 268 q 90 375 72 315 q 127 498 108 435 q 162 617 145 561 q 188 710 178 672 l 188 710 q 327 722 256 715 q 464 741 397 729 l 464 741 q 455 615 459 685 q 447 469 450 544 q 439 321 443 394 l 439 321 q 434 179 437 252 q 428 28 431 105 l 428 28 q 398 24 413 26 q 368 20 383 22 l 368 20 q 313 11 343 16 q 259 2 283 6 z m 276 522 l 214 271 q 237 272 220 271 q 268 274 253 273 q 286 275 283 275 l 286 275 q 290 328 286 288 q 298 412 294 368 l 298 412 q 303 466 300 438 q 308 522 305 493 l 308 522 l 314 609 l 299 608 l 276 522 z m 290 758 l 290 758 q 215 791 242 758 q 188 869 188 824 l 188 869 q 218 950 188 915 q 304 984 247 984 l 304 984 q 387 954 357 984 q 416 879 416 923 l 416 879 q 400 819 416 847 q 356 775 384 791 q 290 758 327 758 z m 302 821 l 302 821 q 341 838 328 821 q 354 871 354 854 l 354 871 q 343 902 354 888 q 307 915 331 915 l 307 915 q 271 900 282 915 q 259 867 259 885 l 259 867 q 271 836 259 850 q 302 821 282 821 z"},"Ã":{"ha":433,"x_min":-21,"x_max":555,"o":"m 259 2 l 259 2 q 263 35 261 19 q 267 67 265 51 l 267 67 l 273 123 q 275 149 274 137 q 277 171 276 161 l 277 171 l 190 171 l 150 27 q 98 21 128 24 q 42 14 68 17 l 42 14 q 11 10 26 12 q -21 6 -5 8 l -21 6 l 58 268 q 90 375 72 315 q 127 498 108 435 q 162 617 145 561 q 188 710 178 672 l 188 710 q 327 722 256 715 q 464 741 397 729 l 464 741 q 455 615 459 685 q 447 469 450 544 q 439 321 443 394 l 439 321 q 434 179 437 252 q 428 28 431 105 l 428 28 q 398 24 413 26 q 368 20 383 22 l 368 20 q 313 11 343 16 q 259 2 283 6 z m 276 522 l 214 271 q 237 272 220 271 q 268 274 253 273 q 286 275 283 275 l 286 275 q 290 328 286 288 q 298 412 294 368 l 298 412 q 303 466 300 438 q 308 522 305 493 l 308 522 l 314 609 l 299 608 l 276 522 z m 168 767 l 168 767 q 137 791 155 776 q 114 811 119 805 l 114 811 q 127 837 114 811 q 164 899 139 862 l 164 899 q 219 961 187 934 q 287 988 250 988 l 287 988 q 329 975 310 988 q 361 945 347 962 q 385 915 375 928 q 398 902 394 902 l 398 902 q 436 920 418 902 q 471 959 454 937 q 501 992 488 980 l 501 992 q 513 984 507 988 q 523 975 518 979 l 523 975 q 533 968 528 971 q 541 961 537 964 l 541 961 q 549 955 545 958 q 555 948 552 952 l 555 948 q 507 861 534 899 l 507 861 q 453 803 487 830 q 381 775 419 775 l 381 775 q 344 786 357 775 q 322 809 331 796 q 302 833 313 822 q 270 843 291 843 l 270 843 q 233 829 251 843 q 198 797 214 815 q 168 767 181 779 z"},"Æ":{"ha":516,"x_min":-29,"x_max":605,"o":"m 509 33 l 246 -1 l 246 2 l 244 2 q 264 97 255 51 q 277 171 273 143 l 277 171 l 204 171 l 152 27 q 99 21 130 24 q 39 14 67 17 l 39 14 q 6 10 23 12 q -29 6 -12 8 l -29 6 q 23 139 -3 73 q 73 268 48 204 l 73 268 q 117 379 93 318 q 164 502 140 440 q 207 619 187 564 q 240 710 227 673 l 240 710 l 605 730 l 566 609 q 540 612 557 611 q 500 613 523 613 l 500 613 l 475 437 l 501 437 q 512 438 506 437 q 525 438 518 438 l 525 438 q 538 438 532 438 q 549 439 544 438 l 549 439 q 546 412 547 425 q 542 384 544 398 l 542 384 l 533 329 l 461 324 l 435 141 l 519 147 l 509 33 z m 313 522 l 236 271 q 253 272 240 271 q 279 273 266 272 q 295 275 292 274 l 295 275 q 300 302 296 279 q 309 358 303 325 q 321 423 315 391 l 321 423 l 356 609 l 346 608 l 313 522 z"},"B":{"ha":428,"x_min":-1,"x_max":512,"o":"m 68 -4 l 68 -4 q -1 2 31 -4 l -1 2 q 76 355 47 177 q 130 712 104 532 l 130 712 q 238 732 182 723 q 354 740 294 740 l 354 740 q 424 729 387 740 q 487 688 461 717 q 512 604 512 658 l 512 604 q 491 512 512 554 q 438 440 470 470 q 372 397 406 410 l 372 397 q 405 372 386 390 q 438 324 424 354 q 452 251 452 294 l 452 251 q 417 143 452 191 q 322 62 381 94 l 322 62 q 199 13 265 30 q 68 -4 133 -4 z m 246 479 l 246 479 q 305 495 277 485 q 351 518 333 505 q 368 546 368 531 l 368 546 q 353 576 368 565 q 317 592 338 587 q 278 597 296 597 l 278 597 l 268 597 q 255 528 261 557 q 246 479 249 498 z m 195 198 l 195 198 q 239 205 215 200 q 285 221 263 210 q 322 249 307 231 q 336 291 336 266 l 336 291 q 320 329 336 315 q 282 350 304 343 q 239 356 259 356 l 239 356 l 231 356 q 223 355 226 356 l 223 355 q 209 277 217 318 q 195 198 201 236 z"},"C":{"ha":414,"x_min":39,"x_max":511,"o":"m 182 -2 l 182 -2 q 79 57 119 -2 q 39 219 39 116 l 39 219 q 65 405 39 313 q 138 569 91 496 l 138 569 q 250 687 185 642 q 392 731 314 731 l 392 731 q 476 693 441 731 q 511 591 511 655 l 511 591 l 511 579 q 511 572 511 575 q 510 565 511 569 l 510 565 l 379 530 q 351 555 367 555 l 351 555 q 301 516 327 555 q 250 423 274 477 l 250 423 q 222 349 234 387 q 202 278 209 311 q 195 224 195 245 l 195 224 q 204 179 195 193 l 204 179 q 226 166 211 166 l 226 166 q 259 181 241 166 q 293 217 277 195 q 313 261 308 239 l 313 261 l 427 215 q 311 51 378 103 q 182 -2 243 -2 z"},"Ç":{"ha":414,"x_min":39,"x_max":511,"o":"m 182 -2 l 182 -2 q 79 57 119 -2 q 39 219 39 116 l 39 219 q 65 405 39 313 q 138 569 91 496 l 138 569 q 250 687 185 642 q 392 731 314 731 l 392 731 q 476 693 441 731 q 511 591 511 655 l 511 591 l 511 579 q 511 572 511 575 q 510 565 511 569 l 510 565 l 379 530 q 351 555 367 555 l 351 555 q 301 516 327 555 q 250 423 274 477 l 250 423 q 222 349 234 387 q 202 278 209 311 q 195 224 195 245 l 195 224 q 204 179 195 193 l 204 179 q 226 166 211 166 l 226 166 q 259 181 241 166 q 293 217 277 195 q 313 261 308 239 l 313 261 l 427 215 q 311 51 378 103 q 182 -2 243 -2 z m 182 -165 l 182 -165 q 136 -156 158 -165 q 98 -128 113 -147 l 98 -128 l 117 -40 q 170 -68 142 -68 l 170 -68 q 207 -52 192 -68 q 221 -11 221 -36 l 221 -11 q 220 3 221 -5 q 216 19 218 10 l 216 19 q 259 13 244 16 q 277 10 274 10 l 277 10 q 317 -68 317 -29 l 317 -68 q 299 -118 317 -96 q 250 -152 280 -140 q 182 -165 219 -165 z"},"D":{"ha":441,"x_min":4,"x_max":509,"o":"m 60 -5 l 60 -5 q 32 -3 46 -5 q 4 0 18 -2 l 4 0 l 57 269 q 79 386 67 324 q 101 508 90 447 q 121 620 112 568 q 134 708 129 672 l 134 708 q 221 723 177 716 q 311 730 265 730 l 311 730 q 428 700 385 730 q 490 620 471 669 q 509 511 509 570 l 509 511 q 494 400 509 458 q 452 284 479 341 q 386 175 424 226 l 386 175 q 243 46 327 96 q 60 -5 158 -5 z m 179 121 l 179 121 q 246 191 214 144 q 305 304 277 238 l 305 304 q 344 420 330 365 q 358 510 358 474 l 358 510 q 338 568 358 547 q 273 589 317 589 l 273 589 q 241 430 257 503 q 209 283 224 357 q 179 121 193 209 z"},"Ð":{"ha":445,"x_min":13,"x_max":501,"o":"m 136 2 l 136 2 q 74 12 104 2 q 13 42 43 21 l 13 42 l 30 128 q 39 171 34 148 q 49 220 44 194 l 49 220 q 70 331 60 271 l 70 331 q 63 330 66 330 q 57 330 60 330 l 57 330 l 34 330 l 67 436 q 74 435 69 435 l 74 435 l 90 435 q 116 580 104 509 q 136 708 128 650 l 136 708 q 223 723 179 716 q 313 730 267 730 l 313 730 q 423 699 381 730 q 483 614 464 668 q 501 491 501 560 l 501 491 q 475 324 501 408 q 402 167 449 239 l 402 167 q 286 48 354 94 q 136 2 217 2 z m 171 121 l 171 121 q 239 185 206 142 q 297 280 271 227 q 337 388 322 333 q 351 490 351 443 l 351 490 q 330 575 351 541 q 266 608 308 608 l 266 608 q 248 521 256 563 q 231 435 239 479 l 231 435 q 242 435 236 435 q 252 436 247 435 l 252 436 l 270 436 q 278 436 274 436 q 286 437 282 436 l 286 437 l 262 329 l 247 329 q 240 329 243 329 q 232 330 236 329 l 232 330 l 213 330 q 204 282 208 306 q 194 231 199 257 l 194 231 q 184 178 189 206 q 171 121 178 150 z"},"E":{"ha":341,"x_min":8,"x_max":455,"o":"m 331 49 l 8 -1 l 139 710 l 455 737 q 443 692 448 715 l 443 692 q 434 653 438 673 q 426 616 429 632 l 426 616 q 389 615 413 615 q 340 614 365 614 q 297 613 315 613 q 278 613 279 613 l 278 613 l 243 434 l 301 437 q 324 438 312 438 q 346 438 335 438 l 346 438 q 366 438 357 438 q 380 439 375 438 l 380 439 q 377 412 378 425 q 373 384 375 398 l 373 384 l 364 329 q 351 328 359 328 q 332 328 343 328 l 332 328 q 309 327 321 327 q 286 326 297 327 l 286 326 q 259 325 273 325 q 229 324 245 325 l 229 324 l 195 140 l 341 163 l 331 49 z"},"É":{"ha":341,"x_min":8,"x_max":455,"o":"m 331 49 l 8 -1 l 139 710 l 455 737 q 443 692 448 715 l 443 692 q 434 653 438 673 q 426 616 429 632 l 426 616 q 389 615 413 615 q 340 614 365 614 q 297 613 315 613 q 278 613 279 613 l 278 613 l 243 434 l 301 437 q 324 438 312 438 q 346 438 335 438 l 346 438 q 366 438 357 438 q 380 439 375 438 l 380 439 q 377 412 378 425 q 373 384 375 398 l 373 384 l 364 329 q 351 328 359 328 q 332 328 343 328 l 332 328 q 309 327 321 327 q 286 326 297 327 l 286 326 q 259 325 273 325 q 229 324 245 325 l 229 324 l 195 140 l 341 163 l 331 49 z m 187 779 l 187 779 q 186 790 186 784 q 186 799 186 795 l 186 799 l 186 817 q 186 834 186 825 q 187 850 186 842 l 187 850 l 187 884 q 253 950 221 919 q 315 1007 285 980 l 315 1007 q 373 1062 345 1034 q 427 1118 401 1090 l 427 1118 q 433 993 432 1050 l 433 993 q 435 935 433 964 q 441 874 437 905 l 441 874 q 380 850 412 862 q 314 826 348 838 l 314 826 q 248 802 280 813 q 187 779 216 790 z"},"Ê":{"ha":341,"x_min":8,"x_max":455,"o":"m 331 49 l 8 -1 l 139 710 l 455 737 q 443 692 448 715 l 443 692 q 434 653 438 673 q 426 616 429 632 l 426 616 q 389 615 413 615 q 340 614 365 614 q 297 613 315 613 q 278 613 279 613 l 278 613 l 243 434 l 301 437 q 324 438 312 438 q 346 438 335 438 l 346 438 q 366 438 357 438 q 380 439 375 438 l 380 439 q 377 412 378 425 q 373 384 375 398 l 373 384 l 364 329 q 351 328 359 328 q 332 328 343 328 l 332 328 q 309 327 321 327 q 286 326 297 327 l 286 326 q 259 325 273 325 q 229 324 245 325 l 229 324 l 195 140 l 341 163 l 331 49 z m 196 779 l 196 779 q 173 800 183 790 q 157 817 163 809 l 157 817 q 149 826 153 822 q 142 834 145 830 l 142 834 q 171 875 156 854 q 200 914 185 895 l 200 914 q 255 983 225 947 q 310 1045 284 1019 l 310 1045 q 344 1041 330 1042 q 365 1040 357 1039 l 365 1040 q 382 1039 380 1041 l 382 1039 q 391 1010 386 1026 q 400 977 395 994 l 400 977 l 418 911 q 429 874 423 892 q 440 837 435 856 l 440 837 l 416 817 q 406 809 411 813 q 393 799 400 804 l 393 799 l 368 780 l 307 898 q 265 857 287 880 q 225 812 243 833 q 196 779 207 791 z"},"Ë":{"ha":341,"x_min":8,"x_max":504,"o":"m 331 49 l 8 -1 l 139 710 l 455 737 q 443 692 448 715 l 443 692 q 434 653 438 673 q 426 616 429 632 l 426 616 q 389 615 413 615 q 340 614 365 614 q 297 613 315 613 q 278 613 279 613 l 278 613 l 243 434 l 301 437 q 324 438 312 438 q 346 438 335 438 l 346 438 q 366 438 357 438 q 380 439 375 438 l 380 439 q 377 412 378 425 q 373 384 375 398 l 373 384 l 364 329 q 351 328 359 328 q 332 328 343 328 l 332 328 q 309 327 321 327 q 286 326 297 327 l 286 326 q 259 325 273 325 q 229 324 245 325 l 229 324 l 195 140 l 341 163 l 331 49 z m 397 843 l 397 843 q 337 870 357 843 q 317 929 317 896 l 317 929 q 341 991 317 964 q 408 1018 364 1018 l 408 1018 q 480 993 456 1018 q 504 937 504 968 l 504 937 q 477 873 504 903 q 397 843 449 843 z m 165 843 l 165 843 q 105 870 125 843 q 85 929 85 896 l 85 929 q 108 991 85 963 q 175 1018 130 1018 l 175 1018 q 248 993 224 1018 q 271 937 271 968 l 271 937 q 242 871 271 898 q 165 843 212 843 z"},"È":{"ha":341,"x_min":8,"x_max":455,"o":"m 331 49 l 8 -1 l 139 710 l 455 737 q 443 692 448 715 l 443 692 q 434 653 438 673 q 426 616 429 632 l 426 616 q 389 615 413 615 q 340 614 365 614 q 297 613 315 613 q 278 613 279 613 l 278 613 l 243 434 l 301 437 q 324 438 312 438 q 346 438 335 438 l 346 438 q 366 438 357 438 q 380 439 375 438 l 380 439 q 377 412 378 425 q 373 384 375 398 l 373 384 l 364 329 q 351 328 359 328 q 332 328 343 328 l 332 328 q 309 327 321 327 q 286 326 297 327 l 286 326 q 259 325 273 325 q 229 324 245 325 l 229 324 l 195 140 l 341 163 l 331 49 z m 311 862 l 304 781 q 254 793 279 787 q 206 805 229 799 l 206 805 q 122 826 165 814 q 50 846 79 837 l 50 846 q 64 917 56 875 q 79 997 72 958 l 79 997 l 97 1091 q 137 1050 117 1070 q 175 1009 156 1029 l 175 1009 q 246 934 208 974 q 311 862 283 894 l 311 862 z"},"F":{"ha":341,"x_min":4,"x_max":470,"o":"m 4 -1 l 4 -1 q 31 109 18 47 q 56 234 44 170 q 77 353 67 298 q 93 444 87 408 l 93 444 q 115 580 104 511 q 135 719 125 648 l 135 719 l 470 736 l 441 613 l 284 613 l 253 435 q 284 436 269 436 q 312 436 298 436 l 312 436 l 359 436 q 380 436 371 436 q 396 437 389 436 l 396 437 q 393 410 395 423 q 389 382 391 396 l 389 382 l 380 328 q 320 330 359 328 q 236 332 280 331 l 236 332 l 190 37 q 157 31 173 34 q 123 24 140 28 l 123 24 q 62 12 95 19 q 4 -1 29 5 z"},"G":{"ha":499,"x_min":42,"x_max":568,"o":"m 223 -24 l 223 -24 q 153 -8 186 -24 q 95 41 119 8 l 95 41 q 56 122 70 73 q 42 237 42 171 l 42 237 q 79 462 42 366 q 173 622 116 558 l 173 622 q 294 717 229 686 q 414 748 358 748 l 414 748 q 502 725 468 748 q 552 662 536 701 q 568 575 568 623 l 568 575 l 431 549 q 407 606 422 589 q 373 623 392 623 l 373 623 q 328 599 351 623 q 282 535 304 575 q 241 444 259 494 q 212 341 223 394 q 198 241 200 288 l 198 241 q 217 153 198 179 q 264 126 235 126 l 264 126 q 320 144 292 126 q 366 193 347 162 q 385 261 384 223 l 385 261 l 278 245 l 297 344 l 389 356 q 470 368 427 361 q 544 381 512 375 l 544 381 q 505 203 537 279 q 424 76 472 126 q 324 1 376 26 q 223 -24 271 -24 z"},"H":{"ha":442,"x_min":9,"x_max":547,"o":"m 163 30 l 9 -2 q 35 135 22 67 q 60 269 47 202 l 60 269 q 87 425 74 352 q 112 570 99 498 q 136 721 124 642 l 136 721 l 298 732 q 265 586 281 662 q 234 438 248 510 l 234 438 l 333 449 q 347 519 340 484 q 358 587 353 553 l 358 587 q 371 655 363 620 q 387 724 378 689 l 387 724 q 460 734 423 730 q 522 739 497 737 q 547 740 547 740 l 547 740 q 521 646 534 700 q 496 532 508 592 q 473 413 484 472 q 453 302 462 353 l 453 302 q 432 174 442 238 q 412 42 422 109 l 412 42 l 256 24 q 269 84 263 54 q 279 141 274 113 l 279 141 q 300 241 289 189 q 316 330 310 293 l 316 330 l 219 321 q 212 280 215 302 q 203 233 208 258 l 203 233 q 194 185 198 208 q 185 138 189 161 l 185 138 q 174 84 180 111 q 163 30 168 57 l 163 30 z"},"I":{"ha":200,"x_min":-6,"x_max":294,"o":"m -6 1 l -6 1 q 28 135 11 60 q 60 289 44 210 q 89 437 75 367 l 89 437 q 114 567 102 501 q 138 700 126 633 l 138 700 l 294 725 q 268 593 281 658 q 242 462 255 527 l 242 462 q 213 314 228 392 q 184 161 198 236 q 158 20 170 85 l 158 20 q 113 18 140 20 q 59 12 86 15 q 14 5 32 8 q -6 1 -5 2 z"},"Í":{"ha":200,"x_min":-6,"x_max":408,"o":"m -6 1 l -6 1 q 28 135 11 60 q 60 289 44 210 q 89 437 75 367 l 89 437 q 114 567 102 501 q 138 700 126 633 l 138 700 l 294 725 q 268 593 281 658 q 242 462 255 527 l 242 462 q 213 314 228 392 q 184 161 198 236 q 158 20 170 85 l 158 20 q 113 18 140 20 q 59 12 86 15 q 14 5 32 8 q -6 1 -5 2 z m 154 749 l 154 749 q 153 760 153 754 q 153 769 153 765 l 153 769 l 153 787 q 153 804 153 795 q 154 820 153 812 l 154 820 l 154 854 q 220 920 188 889 q 282 977 252 950 l 282 977 q 340 1032 312 1004 q 394 1088 368 1060 l 394 1088 q 400 963 399 1020 l 400 963 q 402 905 400 934 q 408 844 404 875 l 408 844 q 347 820 379 832 q 281 796 315 808 l 281 796 q 215 772 247 783 q 154 749 183 760 z"},"Î":{"ha":200,"x_min":-6,"x_max":407,"o":"m -6 1 l -6 1 q 28 135 11 60 q 60 289 44 210 q 89 437 75 367 l 89 437 q 114 567 102 501 q 138 700 126 633 l 138 700 l 294 725 q 268 593 281 658 q 242 462 255 527 l 242 462 q 213 314 228 392 q 184 161 198 236 q 158 20 170 85 l 158 20 q 113 18 140 20 q 59 12 86 15 q 14 5 32 8 q -6 1 -5 2 z m 163 749 l 163 749 q 140 770 150 760 q 124 787 130 779 l 124 787 q 116 796 120 792 q 109 804 112 800 l 109 804 q 138 845 123 824 q 167 884 152 865 l 167 884 q 222 953 192 917 q 277 1015 251 989 l 277 1015 q 311 1011 297 1012 q 332 1010 324 1009 l 332 1010 q 349 1009 347 1011 l 349 1009 q 358 980 353 996 q 367 947 362 964 l 367 947 l 385 881 q 396 844 390 862 q 407 807 402 826 l 407 807 l 383 787 q 373 779 378 783 q 360 769 367 774 l 360 769 l 335 750 l 274 868 q 232 827 254 850 q 192 782 210 803 q 163 749 174 761 z"},"Ï":{"ha":200,"x_min":-6,"x_max":471,"o":"m -6 1 l -6 1 q 28 135 11 60 q 60 289 44 210 q 89 437 75 367 l 89 437 q 114 567 102 501 q 138 700 126 633 l 138 700 l 294 725 q 268 593 281 658 q 242 462 255 527 l 242 462 q 213 314 228 392 q 184 161 198 236 q 158 20 170 85 l 158 20 q 113 18 140 20 q 59 12 86 15 q 14 5 32 8 q -6 1 -5 2 z m 364 813 l 364 813 q 304 840 324 813 q 284 899 284 866 l 284 899 q 308 961 284 934 q 375 988 331 988 l 375 988 q 447 963 423 988 q 471 907 471 938 l 471 907 q 444 843 471 873 q 364 813 416 813 z m 132 813 l 132 813 q 72 840 92 813 q 52 899 52 866 l 52 899 q 75 961 52 933 q 142 988 97 988 l 142 988 q 215 963 191 988 q 238 907 238 938 l 238 907 q 209 841 238 868 q 132 813 179 813 z"},"Ì":{"ha":200,"x_min":-6,"x_max":294,"o":"m -6 1 l -6 1 q 28 135 11 60 q 60 289 44 210 q 89 437 75 367 l 89 437 q 114 567 102 501 q 138 700 126 633 l 138 700 l 294 725 q 268 593 281 658 q 242 462 255 527 l 242 462 q 213 314 228 392 q 184 161 198 236 q 158 20 170 85 l 158 20 q 113 18 140 20 q 59 12 86 15 q 14 5 32 8 q -6 1 -5 2 z m 278 832 l 271 751 q 221 763 246 757 q 173 775 196 769 l 173 775 q 89 796 132 784 q 17 816 46 807 l 17 816 q 31 887 23 845 q 46 967 39 928 l 46 967 l 64 1061 q 104 1020 84 1040 q 142 979 123 999 l 142 979 q 213 904 175 944 q 278 832 250 864 l 278 832 z"},"J":{"ha":279,"x_min":-27,"x_max":400,"o":"m 105 -1 l 105 -1 q 45 11 77 -1 q -27 52 12 23 l -27 52 l 42 206 q 62 189 47 196 q 93 181 76 181 l 93 181 q 116 202 106 181 q 133 253 126 223 q 143 310 139 283 q 148 347 147 336 l 148 347 q 167 444 158 396 q 184 541 176 492 l 184 541 q 203 637 192 589 q 224 733 213 685 l 224 733 q 313 746 269 737 q 400 766 356 754 l 400 766 q 369 651 385 715 q 338 517 353 586 q 310 383 323 448 q 286 266 296 318 l 286 266 q 264 178 277 224 q 230 91 251 131 q 179 25 209 50 q 105 -1 148 -1 z"},"K":{"ha":462,"x_min":7,"x_max":603,"o":"m 169 23 l 7 -1 q 36 137 22 69 q 63 271 50 205 l 63 271 q 104 507 84 390 q 133 729 124 623 l 133 729 l 185 726 q 213 724 199 725 q 239 722 226 723 l 239 722 q 269 721 254 721 q 299 720 284 720 l 299 720 q 293 688 297 712 q 284 640 288 664 q 277 606 279 615 l 277 606 l 259 507 l 265 508 q 332 612 294 553 q 403 725 370 671 l 403 725 q 503 734 453 729 q 603 747 553 739 l 603 747 q 557 685 580 716 q 512 623 534 654 l 512 623 q 462 553 489 591 q 411 479 435 515 q 370 416 386 442 l 370 416 q 394 317 381 366 q 422 221 407 268 l 422 221 q 452 126 437 174 q 483 29 467 78 l 483 29 q 436 31 460 30 q 389 31 412 31 l 389 31 q 333 31 360 31 q 277 29 306 30 l 277 29 q 268 96 273 61 q 258 166 263 130 l 258 166 q 248 236 253 201 q 238 302 243 270 l 238 302 l 220 281 q 205 207 213 252 l 205 207 q 197 164 201 185 q 188 122 192 142 l 188 122 q 179 74 184 98 q 169 23 174 49 l 169 23 z"},"L":{"ha":302,"x_min":12,"x_max":315,"o":"m 12 -2 l 12 -2 q 36 157 23 77 q 62 312 48 237 q 87 446 75 386 l 87 446 q 113 578 100 511 q 140 713 126 645 l 140 713 l 315 736 l 263 510 q 235 384 249 451 q 208 253 220 316 q 189 141 196 190 l 189 141 q 243 144 214 143 q 293 144 271 144 l 293 144 q 297 96 294 121 q 304 52 300 70 q 307 31 307 33 l 307 31 q 300 31 303 31 q 292 32 296 31 l 292 32 l 276 32 q 190 29 237 32 q 96 18 142 25 q 12 -2 49 10 z"},"M":{"ha":619,"x_min":-30,"x_max":688,"o":"m 135 17 l -30 6 q 54 267 14 140 l 54 267 q 89 378 71 319 q 125 497 107 437 q 159 611 143 556 q 186 709 175 666 l 186 709 q 290 715 241 709 l 290 715 q 342 721 315 718 q 396 726 368 724 l 396 726 l 390 677 q 386 649 388 663 q 382 619 384 634 l 382 619 q 377 589 380 604 q 372 557 374 573 l 372 557 q 360 471 368 526 q 341 350 352 415 l 341 350 l 354 350 q 402 477 383 426 q 433 559 421 527 l 433 559 q 470 654 450 606 q 503 728 490 702 l 503 728 q 561 735 527 730 q 629 745 594 739 q 688 755 663 751 l 688 755 q 663 586 674 671 q 643 423 651 500 q 628 283 634 345 l 628 283 q 617 161 622 221 q 607 41 612 100 l 607 41 l 433 10 q 436 55 433 12 q 446 162 439 98 l 446 162 q 460 284 453 226 q 474 378 467 341 l 474 378 l 465 378 q 405 212 440 302 q 335 13 369 122 l 335 13 q 275 11 300 12 q 217 7 250 9 l 217 7 l 249 378 l 234 378 q 225 336 233 367 q 206 264 217 304 q 183 183 195 223 l 183 183 q 135 17 138 26 l 135 17 z"},"N":{"ha":453,"x_min":6,"x_max":558,"o":"m 152 29 l 6 -5 q 34 135 20 66 q 60 270 47 203 l 60 270 q 89 428 74 348 q 116 584 103 508 q 135 725 128 660 l 135 725 q 166 727 151 726 q 195 729 181 728 l 195 729 q 222 731 208 730 q 248 733 235 732 l 248 733 l 296 736 q 309 661 303 698 q 319 589 314 624 l 319 589 q 329 533 323 565 q 340 468 334 501 q 351 405 345 434 q 360 358 356 376 l 360 358 q 377 446 370 411 q 390 513 383 480 q 405 589 396 545 l 405 589 l 436 735 l 558 750 q 526 604 541 675 q 498 466 511 533 l 498 466 q 454 240 473 345 q 425 55 435 134 l 425 55 l 262 17 l 247 171 q 241 227 245 194 q 233 294 237 259 q 225 357 229 328 q 219 399 221 385 l 219 399 q 200 285 209 340 q 180 177 191 229 l 180 177 q 167 105 173 142 q 152 29 160 67 l 152 29 z"},"Ñ":{"ha":453,"x_min":6,"x_max":638,"o":"m 152 29 l 6 -5 q 34 135 20 66 q 60 270 47 203 l 60 270 q 89 428 74 348 q 116 584 103 508 q 135 725 128 660 l 135 725 q 166 727 151 726 q 195 729 181 728 l 195 729 q 222 731 208 730 q 248 733 235 732 l 248 733 l 296 736 q 309 661 303 698 q 319 589 314 624 l 319 589 q 329 533 323 565 q 340 468 334 501 q 351 405 345 434 q 360 358 356 376 l 360 358 q 377 446 370 411 q 390 513 383 480 q 405 589 396 545 l 405 589 l 436 735 l 558 750 q 526 604 541 675 q 498 466 511 533 l 498 466 q 454 240 473 345 q 425 55 435 134 l 425 55 l 262 17 l 247 171 q 241 227 245 194 q 233 294 237 259 q 225 357 229 328 q 219 399 221 385 l 219 399 q 200 285 209 340 q 180 177 191 229 l 180 177 q 167 105 173 142 q 152 29 160 67 l 152 29 z m 251 767 l 251 767 q 220 791 238 776 q 197 811 202 805 l 197 811 q 210 837 197 811 q 247 899 222 862 l 247 899 q 302 961 270 934 q 370 988 333 988 l 370 988 q 412 975 393 988 q 444 945 430 962 q 468 915 458 928 q 481 902 477 902 l 481 902 q 519 920 501 902 q 554 959 537 937 q 584 992 571 980 l 584 992 q 596 984 590 988 q 606 975 601 979 l 606 975 q 616 968 611 971 q 624 961 620 964 l 624 961 q 632 955 628 958 q 638 948 635 952 l 638 948 q 590 861 617 899 l 590 861 q 536 803 570 830 q 464 775 502 775 l 464 775 q 427 786 440 775 q 405 809 414 796 q 385 833 396 822 q 353 843 374 843 l 353 843 q 316 829 334 843 q 281 797 297 815 q 251 767 264 779 z"},"O":{"ha":493,"x_min":31,"x_max":560,"o":"m 181 -4 l 181 -4 q 73 47 115 -4 q 31 201 31 98 l 31 201 q 45 321 31 258 q 84 445 59 384 q 142 558 109 506 l 142 558 q 264 695 195 642 q 409 748 333 748 l 409 748 q 502 718 469 748 q 547 640 534 687 q 560 541 560 592 l 560 541 q 524 320 560 422 q 429 146 487 217 l 429 146 q 306 35 371 73 q 181 -4 240 -4 z m 235 161 l 235 161 q 315 191 280 161 q 373 268 349 221 q 409 365 397 314 q 421 457 421 416 l 421 457 q 418 492 421 473 q 405 524 415 510 q 374 538 395 538 l 374 538 q 291 505 328 538 q 229 420 254 471 l 229 420 q 192 318 204 368 q 180 227 180 268 l 180 227 q 195 184 180 206 q 235 161 210 161 z"},"Ó":{"ha":493,"x_min":31,"x_max":590,"o":"m 181 -4 l 181 -4 q 73 47 115 -4 q 31 201 31 98 l 31 201 q 45 321 31 258 q 84 445 59 384 q 142 558 109 506 l 142 558 q 264 695 195 642 q 409 748 333 748 l 409 748 q 502 718 469 748 q 547 640 534 687 q 560 541 560 592 l 560 541 q 524 320 560 422 q 429 146 487 217 l 429 146 q 306 35 371 73 q 181 -4 240 -4 z m 235 161 l 235 161 q 315 191 280 161 q 373 268 349 221 q 409 365 397 314 q 421 457 421 416 l 421 457 q 418 492 421 473 q 405 524 415 510 q 374 538 395 538 l 374 538 q 291 505 328 538 q 229 420 254 471 l 229 420 q 192 318 204 368 q 180 227 180 268 l 180 227 q 195 184 180 206 q 235 161 210 161 z m 336 779 l 336 779 q 335 790 335 784 q 335 799 335 795 l 335 799 l 335 817 q 335 834 335 825 q 336 850 335 842 l 336 850 l 336 884 q 402 950 370 919 q 464 1007 434 980 l 464 1007 q 522 1062 494 1034 q 576 1118 550 1090 l 576 1118 q 582 993 581 1050 l 582 993 q 584 935 582 964 q 590 874 586 905 l 590 874 q 529 850 561 862 q 463 826 497 838 l 463 826 q 397 802 429 813 q 336 779 365 790 z"},"Ô":{"ha":493,"x_min":31,"x_max":589,"o":"m 181 -4 l 181 -4 q 73 47 115 -4 q 31 201 31 98 l 31 201 q 45 321 31 258 q 84 445 59 384 q 142 558 109 506 l 142 558 q 264 695 195 642 q 409 748 333 748 l 409 748 q 502 718 469 748 q 547 640 534 687 q 560 541 560 592 l 560 541 q 524 320 560 422 q 429 146 487 217 l 429 146 q 306 35 371 73 q 181 -4 240 -4 z m 235 161 l 235 161 q 315 191 280 161 q 373 268 349 221 q 409 365 397 314 q 421 457 421 416 l 421 457 q 418 492 421 473 q 405 524 415 510 q 374 538 395 538 l 374 538 q 291 505 328 538 q 229 420 254 471 l 229 420 q 192 318 204 368 q 180 227 180 268 l 180 227 q 195 184 180 206 q 235 161 210 161 z m 345 779 l 345 779 q 322 800 332 790 q 306 817 312 809 l 306 817 q 298 826 302 822 q 291 834 294 830 l 291 834 q 320 875 305 854 q 349 914 334 895 l 349 914 q 404 983 374 947 q 459 1045 433 1019 l 459 1045 q 493 1041 479 1042 q 514 1040 506 1039 l 514 1040 q 531 1039 529 1041 l 531 1039 q 540 1010 535 1026 q 549 977 544 994 l 549 977 l 567 911 q 578 874 572 892 q 589 837 584 856 l 589 837 l 565 817 q 555 809 560 813 q 542 799 549 804 l 542 799 l 517 780 l 456 898 q 414 857 436 880 q 374 812 392 833 q 345 779 356 791 z"},"Ö":{"ha":493,"x_min":31,"x_max":653,"o":"m 181 -4 l 181 -4 q 73 47 115 -4 q 31 201 31 98 l 31 201 q 45 321 31 258 q 84 445 59 384 q 142 558 109 506 l 142 558 q 264 695 195 642 q 409 748 333 748 l 409 748 q 502 718 469 748 q 547 640 534 687 q 560 541 560 592 l 560 541 q 524 320 560 422 q 429 146 487 217 l 429 146 q 306 35 371 73 q 181 -4 240 -4 z m 235 161 l 235 161 q 315 191 280 161 q 373 268 349 221 q 409 365 397 314 q 421 457 421 416 l 421 457 q 418 492 421 473 q 405 524 415 510 q 374 538 395 538 l 374 538 q 291 505 328 538 q 229 420 254 471 l 229 420 q 192 318 204 368 q 180 227 180 268 l 180 227 q 195 184 180 206 q 235 161 210 161 z m 546 843 l 546 843 q 486 870 506 843 q 466 929 466 896 l 466 929 q 490 991 466 964 q 557 1018 513 1018 l 557 1018 q 629 993 605 1018 q 653 937 653 968 l 653 937 q 626 873 653 903 q 546 843 598 843 z m 314 843 l 314 843 q 254 870 274 843 q 234 929 234 896 l 234 929 q 257 991 234 963 q 324 1018 279 1018 l 324 1018 q 397 993 373 1018 q 420 937 420 968 l 420 937 q 391 871 420 898 q 314 843 361 843 z"},"Ò":{"ha":493,"x_min":31,"x_max":560,"o":"m 181 -4 l 181 -4 q 73 47 115 -4 q 31 201 31 98 l 31 201 q 45 321 31 258 q 84 445 59 384 q 142 558 109 506 l 142 558 q 264 695 195 642 q 409 748 333 748 l 409 748 q 502 718 469 748 q 547 640 534 687 q 560 541 560 592 l 560 541 q 524 320 560 422 q 429 146 487 217 l 429 146 q 306 35 371 73 q 181 -4 240 -4 z m 235 161 l 235 161 q 315 191 280 161 q 373 268 349 221 q 409 365 397 314 q 421 457 421 416 l 421 457 q 418 492 421 473 q 405 524 415 510 q 374 538 395 538 l 374 538 q 291 505 328 538 q 229 420 254 471 l 229 420 q 192 318 204 368 q 180 227 180 268 l 180 227 q 195 184 180 206 q 235 161 210 161 z m 460 862 l 453 781 q 403 793 428 787 q 355 805 378 799 l 355 805 q 271 826 314 814 q 199 846 228 837 l 199 846 q 213 917 205 875 q 228 997 221 958 l 228 997 l 246 1091 q 286 1050 266 1070 q 324 1009 305 1029 l 324 1009 q 395 934 357 974 q 460 862 432 894 l 460 862 z"},"Ø":{"ha":493,"x_min":-1,"x_max":623,"o":"m 82 35 l 49 -8 l -1 40 l 47 96 q 31 201 31 140 l 31 201 q 45 321 31 258 q 84 445 59 384 q 142 558 109 506 l 142 558 q 264 695 195 642 q 409 748 333 748 l 409 748 q 475 734 448 748 q 520 696 502 720 l 520 696 l 555 742 l 606 704 l 623 724 l 550 630 q 558 586 555 608 q 560 541 560 563 l 560 541 q 524 320 560 422 q 429 146 487 217 l 429 146 q 306 35 371 73 q 181 -4 240 -4 l 181 -4 q 82 35 121 -4 l 82 35 z m 175 246 l 175 246 l 413 533 q 354 576 388 576 l 354 576 q 290 547 322 576 q 232 470 258 517 q 189 370 205 423 q 173 271 173 317 l 173 271 q 174 259 173 265 q 175 246 174 252 z m 247 168 l 247 168 q 325 200 288 168 q 386 278 361 231 l 386 278 q 426 372 412 326 q 439 457 439 417 l 439 457 q 439 472 439 465 q 437 484 438 479 l 437 484 l 196 181 q 247 168 221 168 z"},"Õ":{"ha":493,"x_min":31,"x_max":677,"o":"m 181 -4 l 181 -4 q 73 47 115 -4 q 31 201 31 98 l 31 201 q 45 321 31 258 q 84 445 59 384 q 142 558 109 506 l 142 558 q 264 695 195 642 q 409 748 333 748 l 409 748 q 502 718 469 748 q 547 640 534 687 q 560 541 560 592 l 560 541 q 524 320 560 422 q 429 146 487 217 l 429 146 q 306 35 371 73 q 181 -4 240 -4 z m 235 161 l 235 161 q 315 191 280 161 q 373 268 349 221 q 409 365 397 314 q 421 457 421 416 l 421 457 q 418 492 421 473 q 405 524 415 510 q 374 538 395 538 l 374 538 q 291 505 328 538 q 229 420 254 471 l 229 420 q 192 318 204 368 q 180 227 180 268 l 180 227 q 195 184 180 206 q 235 161 210 161 z m 290 796 l 290 796 q 259 820 277 805 q 236 840 241 834 l 236 840 q 249 866 236 840 q 286 928 261 891 l 286 928 q 341 990 309 963 q 409 1017 372 1017 l 409 1017 q 451 1004 432 1017 q 483 974 469 991 q 507 944 497 957 q 520 931 516 931 l 520 931 q 558 949 540 931 q 593 988 576 966 q 623 1021 610 1009 l 623 1021 q 635 1013 629 1017 q 645 1004 640 1008 l 645 1004 q 655 997 650 1000 q 663 990 659 993 l 663 990 q 671 984 667 987 q 677 977 674 981 l 677 977 q 629 890 656 928 l 629 890 q 575 832 609 859 q 503 804 541 804 l 503 804 q 466 815 479 804 q 444 838 453 825 q 424 862 435 851 q 392 872 413 872 l 392 872 q 355 858 373 872 q 320 826 336 844 q 290 796 303 808 z"},"P":{"ha":379,"x_min":-3,"x_max":468,"o":"m 170 33 l -3 -1 q 54 263 27 134 l 54 263 q 77 375 65 315 q 100 495 88 434 q 122 611 112 556 q 138 706 132 665 l 138 706 q 225 728 178 718 q 308 738 271 738 l 308 738 q 403 713 368 738 q 453 644 438 687 q 468 550 468 601 l 468 550 q 448 443 468 494 q 393 350 427 391 q 314 285 358 309 q 221 261 269 261 l 221 261 l 210 261 q 195 187 202 227 q 183 113 188 147 l 183 113 q 176 73 179 93 q 170 33 173 53 l 170 33 z m 230 366 l 230 366 q 276 397 253 372 q 314 459 299 421 q 329 542 329 497 l 329 542 q 313 598 329 579 q 276 617 296 617 l 276 617 q 254 492 265 551 q 230 366 243 433 z"},"Þ":{"ha":386,"x_min":1,"x_max":456,"o":"m 174 33 l 1 -1 q 58 275 31 142 l 58 275 q 88 431 72 350 q 118 590 103 512 q 142 730 132 667 l 142 730 q 259 744 215 739 q 308 748 303 748 l 308 748 l 287 648 q 387 621 350 648 q 440 550 424 594 q 456 455 456 506 l 456 455 q 435 348 456 399 q 379 257 414 297 q 300 194 344 217 q 209 171 256 171 l 209 171 l 198 171 q 191 140 194 154 q 186 112 188 125 l 186 112 l 179 68 q 176 50 177 58 q 174 33 175 41 l 174 33 z m 219 276 l 219 276 q 265 307 242 282 q 302 369 287 331 q 317 452 317 407 l 317 452 q 301 508 317 489 q 265 527 284 527 l 265 527 l 242 402 q 231 342 237 373 q 219 276 225 310 z"},"Q":{"ha":525,"x_min":31,"x_max":569,"o":"m 451 -48 l 451 -48 q 431 -19 441 -34 q 410 9 421 -5 l 410 9 q 389 38 399 23 q 368 68 378 53 l 368 68 l 363 76 q 181 -4 269 -4 l 181 -4 q 73 47 115 -4 q 31 201 31 98 l 31 201 q 45 321 31 258 q 84 445 59 384 q 142 558 109 506 l 142 558 q 264 695 195 642 q 409 748 333 748 l 409 748 q 502 718 469 748 q 547 640 534 687 q 560 541 560 592 l 560 541 q 536 361 560 443 q 474 212 512 278 l 474 212 l 569 100 q 547 72 558 86 q 525 44 536 58 l 525 44 q 487 -4 507 21 q 451 -48 466 -30 z m 235 161 l 235 161 q 299 180 271 161 l 299 180 l 259 246 q 297 275 280 262 q 324 296 313 287 l 324 296 q 343 312 335 305 q 356 322 351 318 l 356 322 l 370 334 l 392 309 q 413 385 405 346 q 421 457 421 424 l 421 457 q 418 492 421 473 q 405 524 415 510 q 374 538 395 538 l 374 538 q 291 505 328 538 q 229 420 254 471 l 229 420 q 192 318 204 368 q 180 227 180 268 l 180 227 q 195 184 180 206 q 235 161 210 161 z"},"R":{"ha":444,"x_min":4,"x_max":513,"o":"m 166 41 l 4 -1 l 56 259 q 82 407 68 331 q 109 557 96 483 q 128 696 121 631 l 128 696 q 251 723 185 714 q 382 731 317 731 l 382 731 q 486 698 458 731 q 513 609 513 665 l 513 609 q 489 507 513 558 q 427 414 465 455 q 342 348 388 372 l 342 348 q 381 261 360 308 q 419 170 401 213 l 419 170 q 440 120 429 145 q 460 70 450 95 l 460 70 l 305 16 q 286 83 295 51 q 269 146 277 115 l 269 146 q 250 218 259 183 q 235 279 241 252 q 227 317 228 306 l 227 317 l 214 313 q 200 235 208 281 q 184 146 191 189 l 184 146 l 166 41 z m 271 592 l 239 433 q 284 449 257 435 q 337 482 310 462 q 381 523 363 502 q 399 560 399 544 l 399 560 q 376 587 399 580 q 314 593 352 593 l 314 593 l 292 593 q 281 592 286 592 q 271 592 276 592 l 271 592 z"},"S":{"ha":430,"x_min":14,"x_max":517,"o":"m 171 -2 l 171 -2 q 91 20 131 -2 q 14 88 51 41 l 14 88 l 88 233 q 121 197 99 214 q 166 170 142 180 q 207 160 190 160 l 207 160 q 257 176 233 160 q 280 219 280 192 l 280 219 q 248 283 280 254 q 176 340 216 312 l 176 340 q 105 404 137 368 q 72 485 72 439 l 72 485 q 102 582 72 537 q 180 660 132 626 q 283 712 228 693 q 386 730 337 730 l 386 730 q 451 719 421 730 q 499 681 481 707 q 517 611 517 655 l 517 611 q 517 597 517 604 q 515 583 516 590 l 515 583 q 513 569 514 576 q 510 553 511 561 l 510 553 l 365 511 q 369 527 367 519 q 370 543 370 535 l 370 543 q 360 587 370 573 q 332 600 349 600 l 332 600 q 306 591 323 600 q 276 565 289 581 q 262 528 262 548 l 262 528 q 290 474 262 495 q 353 430 317 452 l 353 430 q 391 399 370 420 q 428 341 412 377 q 443 247 443 304 l 443 247 q 407 117 443 173 q 308 30 370 61 q 171 -2 246 -2 z"},"T":{"ha":362,"x_min":90,"x_max":477,"o":"m 270 27 l 90 -1 q 113 109 101 54 q 134 216 124 163 l 134 216 q 196 580 172 406 l 196 580 q 173 583 185 582 q 150 582 161 583 l 150 582 q 103 588 126 580 l 103 588 q 104 606 104 596 q 104 625 104 615 l 104 625 q 104 647 104 636 q 105 667 104 657 l 105 667 q 106 691 106 678 q 107 716 106 703 l 107 716 q 159 713 133 714 q 211 712 185 712 l 211 712 q 353 717 285 712 q 477 729 420 722 l 477 729 l 466 675 l 457 628 q 448 587 452 602 l 448 587 q 426 582 437 584 q 404 579 415 580 l 404 579 q 382 576 393 578 q 359 572 370 574 l 359 572 q 335 444 344 498 q 318 341 325 390 q 300 232 310 291 l 300 232 q 270 27 283 131 l 270 27 z"},"U":{"ha":419,"x_min":31,"x_max":519,"o":"m 165 -18 l 165 -18 q 104 -5 135 -18 q 52 35 73 8 q 31 104 31 62 l 31 104 l 31 112 q 32 120 31 117 l 32 120 q 41 188 35 146 q 54 280 46 230 q 71 378 62 329 q 86 467 79 427 l 86 467 q 110 596 101 547 q 125 672 119 645 q 133 711 130 698 l 133 711 l 298 727 q 274 612 285 666 q 252 508 262 557 l 252 508 l 206 287 q 197 245 200 262 l 197 245 q 189 205 193 229 q 184 160 184 180 l 184 160 q 192 134 184 144 q 212 123 200 123 l 212 123 q 240 136 229 123 q 258 168 251 149 q 269 207 265 187 q 276 238 273 226 l 276 238 q 295 328 286 284 q 313 420 303 371 q 334 533 322 469 l 334 533 q 351 623 342 577 q 367 715 359 668 l 367 715 l 519 725 l 484 532 q 469 449 477 495 q 450 356 460 403 q 432 267 440 309 q 416 195 423 225 l 416 195 q 354 67 396 113 q 262 1 312 20 q 165 -18 211 -18 z"},"Ú":{"ha":419,"x_min":31,"x_max":533,"o":"m 165 -18 l 165 -18 q 104 -5 135 -18 q 52 35 73 8 q 31 104 31 62 l 31 104 l 31 112 q 32 120 31 117 l 32 120 q 41 188 35 146 q 54 280 46 230 q 71 378 62 329 q 86 467 79 427 l 86 467 q 110 596 101 547 q 125 672 119 645 q 133 711 130 698 l 133 711 l 298 727 q 274 612 285 666 q 252 508 262 557 l 252 508 l 206 287 q 197 245 200 262 l 197 245 q 189 205 193 229 q 184 160 184 180 l 184 160 q 192 134 184 144 q 212 123 200 123 l 212 123 q 240 136 229 123 q 258 168 251 149 q 269 207 265 187 q 276 238 273 226 l 276 238 q 295 328 286 284 q 313 420 303 371 q 334 533 322 469 l 334 533 q 351 623 342 577 q 367 715 359 668 l 367 715 l 519 725 l 484 532 q 469 449 477 495 q 450 356 460 403 q 432 267 440 309 q 416 195 423 225 l 416 195 q 354 67 396 113 q 262 1 312 20 q 165 -18 211 -18 z m 279 759 l 279 759 q 278 770 278 764 q 278 779 278 775 l 278 779 l 278 797 q 278 814 278 805 q 279 830 278 822 l 279 830 l 279 864 q 345 930 313 899 q 407 987 377 960 l 407 987 q 465 1042 437 1014 q 519 1098 493 1070 l 519 1098 q 525 973 524 1030 l 525 973 q 527 915 525 944 q 533 854 529 885 l 533 854 q 472 830 504 842 q 406 806 440 818 l 406 806 q 340 782 372 793 q 279 759 308 770 z"},"Û":{"ha":419,"x_min":31,"x_max":532,"o":"m 165 -18 l 165 -18 q 104 -5 135 -18 q 52 35 73 8 q 31 104 31 62 l 31 104 l 31 112 q 32 120 31 117 l 32 120 q 41 188 35 146 q 54 280 46 230 q 71 378 62 329 q 86 467 79 427 l 86 467 q 110 596 101 547 q 125 672 119 645 q 133 711 130 698 l 133 711 l 298 727 q 274 612 285 666 q 252 508 262 557 l 252 508 l 206 287 q 197 245 200 262 l 197 245 q 189 205 193 229 q 184 160 184 180 l 184 160 q 192 134 184 144 q 212 123 200 123 l 212 123 q 240 136 229 123 q 258 168 251 149 q 269 207 265 187 q 276 238 273 226 l 276 238 q 295 328 286 284 q 313 420 303 371 q 334 533 322 469 l 334 533 q 351 623 342 577 q 367 715 359 668 l 367 715 l 519 725 l 484 532 q 469 449 477 495 q 450 356 460 403 q 432 267 440 309 q 416 195 423 225 l 416 195 q 354 67 396 113 q 262 1 312 20 q 165 -18 211 -18 z m 288 759 l 288 759 q 265 780 275 770 q 249 797 255 789 l 249 797 q 241 806 245 802 q 234 814 237 810 l 234 814 q 263 855 248 834 q 292 894 277 875 l 292 894 q 347 963 317 927 q 402 1025 376 999 l 402 1025 q 436 1021 422 1022 q 457 1020 449 1019 l 457 1020 q 474 1019 472 1021 l 474 1019 q 483 990 478 1006 q 492 957 487 974 l 492 957 l 510 891 q 521 854 515 872 q 532 817 527 836 l 532 817 l 508 797 q 498 789 503 793 q 485 779 492 784 l 485 779 l 460 760 l 399 878 q 357 837 379 860 q 317 792 335 813 q 288 759 299 771 z"},"Ü":{"ha":419,"x_min":31,"x_max":596,"o":"m 165 -18 l 165 -18 q 104 -5 135 -18 q 52 35 73 8 q 31 104 31 62 l 31 104 l 31 112 q 32 120 31 117 l 32 120 q 41 188 35 146 q 54 280 46 230 q 71 378 62 329 q 86 467 79 427 l 86 467 q 110 596 101 547 q 125 672 119 645 q 133 711 130 698 l 133 711 l 298 727 q 274 612 285 666 q 252 508 262 557 l 252 508 l 206 287 q 197 245 200 262 l 197 245 q 189 205 193 229 q 184 160 184 180 l 184 160 q 192 134 184 144 q 212 123 200 123 l 212 123 q 240 136 229 123 q 258 168 251 149 q 269 207 265 187 q 276 238 273 226 l 276 238 q 295 328 286 284 q 313 420 303 371 q 334 533 322 469 l 334 533 q 351 623 342 577 q 367 715 359 668 l 367 715 l 519 725 l 484 532 q 469 449 477 495 q 450 356 460 403 q 432 267 440 309 q 416 195 423 225 l 416 195 q 354 67 396 113 q 262 1 312 20 q 165 -18 211 -18 z m 489 823 l 489 823 q 429 850 449 823 q 409 909 409 876 l 409 909 q 433 971 409 944 q 500 998 456 998 l 500 998 q 572 973 548 998 q 596 917 596 948 l 596 917 q 569 853 596 883 q 489 823 541 823 z m 257 823 l 257 823 q 197 850 217 823 q 177 909 177 876 l 177 909 q 200 971 177 943 q 267 998 222 998 l 267 998 q 340 973 316 998 q 363 917 363 948 l 363 917 q 334 851 363 878 q 257 823 304 823 z"},"Ù":{"ha":419,"x_min":31,"x_max":519,"o":"m 165 -18 l 165 -18 q 104 -5 135 -18 q 52 35 73 8 q 31 104 31 62 l 31 104 l 31 112 q 32 120 31 117 l 32 120 q 41 188 35 146 q 54 280 46 230 q 71 378 62 329 q 86 467 79 427 l 86 467 q 110 596 101 547 q 125 672 119 645 q 133 711 130 698 l 133 711 l 298 727 q 274 612 285 666 q 252 508 262 557 l 252 508 l 206 287 q 197 245 200 262 l 197 245 q 189 205 193 229 q 184 160 184 180 l 184 160 q 192 134 184 144 q 212 123 200 123 l 212 123 q 240 136 229 123 q 258 168 251 149 q 269 207 265 187 q 276 238 273 226 l 276 238 q 295 328 286 284 q 313 420 303 371 q 334 533 322 469 l 334 533 q 351 623 342 577 q 367 715 359 668 l 367 715 l 519 725 l 484 532 q 469 449 477 495 q 450 356 460 403 q 432 267 440 309 q 416 195 423 225 l 416 195 q 354 67 396 113 q 262 1 312 20 q 165 -18 211 -18 z m 403 842 l 396 761 q 346 773 371 767 q 298 785 321 779 l 298 785 q 214 806 257 794 q 142 826 171 817 l 142 826 q 156 897 148 855 q 171 977 164 938 l 171 977 l 189 1071 q 229 1030 209 1050 q 267 989 248 1009 l 267 989 q 338 914 300 954 q 403 842 375 874 l 403 842 z"},"V":{"ha":379,"x_min":59,"x_max":499,"o":"m 318 30 l 59 -9 q 72 130 66 61 q 83 266 78 199 l 83 266 q 101 506 94 388 q 109 727 107 624 l 109 727 q 226 731 187 727 q 265 734 265 734 l 265 734 q 255 629 260 676 q 246 544 250 581 l 246 544 l 234 423 q 226 330 229 368 q 219 260 222 292 q 211 190 216 228 l 211 190 l 229 190 l 341 722 l 396 725 q 422 727 409 726 q 449 728 435 727 l 449 728 q 476 730 463 729 q 499 732 488 731 l 499 732 q 461 600 480 673 q 422 449 441 527 q 382 295 402 371 l 382 295 q 350 165 366 231 q 318 30 334 98 l 318 30 z"},"W":{"ha":601,"x_min":41,"x_max":724,"o":"m 249 33 l 41 -4 l 117 706 q 163 710 140 707 q 206 716 185 712 l 206 716 q 247 723 226 720 q 288 726 268 725 l 288 726 l 285 706 q 282 684 284 696 q 277 655 279 671 l 277 655 q 265 575 272 620 q 249 475 258 530 l 249 475 q 236 393 243 441 q 218 284 228 345 l 218 284 l 233 284 q 257 368 246 330 q 276 435 268 406 l 276 435 q 292 488 284 464 q 304 530 299 511 l 304 530 q 338 651 325 604 q 355 712 351 698 l 355 712 l 364 712 q 419 716 390 712 q 470 725 447 720 l 470 725 q 466 692 469 721 q 459 621 463 663 q 451 534 455 579 l 451 534 q 439 386 444 449 q 429 284 433 323 l 429 284 l 447 284 l 542 714 l 609 723 q 638 727 623 725 q 669 731 653 729 l 669 731 q 724 740 698 735 l 724 740 q 664 542 694 656 q 604 311 634 428 l 604 311 q 573 182 588 247 q 542 48 557 116 l 542 48 l 316 10 l 360 396 l 348 396 l 249 33 z"},"X":{"ha":411,"x_min":-36,"x_max":521,"o":"m 234 -10 l 234 -10 q 232 30 233 10 q 229 68 230 49 l 229 68 q 227 102 228 85 q 225 134 226 118 l 225 134 q 223 165 224 151 q 221 189 222 178 l 221 189 l 198 134 q 184 102 191 118 q 169 69 176 85 l 169 69 q 152 32 161 50 q 134 -6 143 13 l 134 -6 l -36 9 q 14 98 -11 53 q 64 185 39 142 l 64 185 q 112 275 89 229 q 156 367 135 320 l 156 367 q 145 447 150 412 q 132 516 139 482 l 132 516 q 117 586 125 548 q 101 663 109 623 l 101 663 l 261 729 q 273 625 266 681 l 273 625 q 279 571 276 597 q 284 520 282 544 l 284 520 l 330 620 q 353 670 341 645 q 376 719 364 694 l 376 719 l 521 680 q 460 573 486 621 q 409 476 433 525 q 355 364 385 427 l 355 364 q 387 203 366 288 q 426 46 408 118 l 426 46 q 402 40 424 45 q 343 23 380 34 l 343 23 q 278 5 307 13 q 234 -10 248 -4 z"},"Y":{"ha":384,"x_min":77,"x_max":522,"o":"m 248 36 l 77 15 l 123 216 q 120 362 123 287 q 111 510 116 436 l 111 510 q 104 629 107 584 q 100 674 100 674 l 100 674 l 263 736 l 263 614 q 263 510 263 556 q 262 428 262 463 l 262 428 q 294 512 275 462 q 328 609 312 562 l 328 609 q 348 666 338 637 q 367 725 357 694 l 367 725 l 522 690 q 438 519 479 605 l 438 519 q 386 408 414 466 q 333 299 357 349 q 294 218 308 248 l 294 218 q 282 161 289 192 q 267 102 274 130 l 267 102 q 258 70 263 86 q 248 36 253 53 l 248 36 z"},"Ý":{"ha":384,"x_min":77,"x_max":526,"o":"m 248 36 l 77 15 l 123 216 q 120 362 123 287 q 111 510 116 436 l 111 510 q 104 629 107 584 q 100 674 100 674 l 100 674 l 263 736 l 263 614 q 263 510 263 556 q 262 428 262 463 l 262 428 q 294 512 275 462 q 328 609 312 562 l 328 609 q 348 666 338 637 q 367 725 357 694 l 367 725 l 522 690 q 438 519 479 605 l 438 519 q 386 408 414 466 q 333 299 357 349 q 294 218 308 248 l 294 218 q 282 161 289 192 q 267 102 274 130 l 267 102 q 258 70 263 86 q 248 36 253 53 l 248 36 z m 272 750 l 272 750 q 271 761 271 755 q 271 770 271 766 l 271 770 l 271 788 q 271 805 271 796 q 272 821 271 813 l 272 821 l 272 855 q 338 921 306 890 q 400 978 370 951 l 400 978 q 458 1033 430 1005 q 512 1089 486 1061 l 512 1089 q 518 964 517 1021 l 518 964 q 520 906 518 935 q 526 845 522 876 l 526 845 q 465 821 497 833 q 399 797 433 809 l 399 797 q 333 773 365 784 q 272 750 301 761 z"},"Z":{"ha":431,"x_min":8,"x_max":532,"o":"m 8 9 l 8 9 l 8 155 l 293 542 q 241 540 264 542 q 187 533 217 537 q 104 521 156 528 l 104 521 l 123 678 l 532 707 l 506 569 l 233 181 q 279 183 247 181 q 352 187 311 184 q 431 192 392 189 l 431 192 l 431 40 q 371 38 419 40 q 239 31 323 36 l 239 31 q 102 21 163 26 q 8 9 40 15 z"},"a":{"ha":433,"x_min":-21,"x_max":464,"o":"m 259 2 l 259 2 q 263 35 261 19 q 267 67 265 51 l 267 67 l 273 123 q 275 149 274 137 q 277 171 276 161 l 277 171 l 190 171 l 150 27 q 98 21 128 24 q 42 14 68 17 l 42 14 q 11 10 26 12 q -21 6 -5 8 l -21 6 l 58 268 q 90 375 72 315 q 127 498 108 435 q 162 617 145 561 q 188 710 178 672 l 188 710 q 327 722 256 715 q 464 741 397 729 l 464 741 q 455 615 459 685 q 447 469 450 544 q 439 321 443 394 l 439 321 q 434 179 437 252 q 428 28 431 105 l 428 28 q 398 24 413 26 q 368 20 383 22 l 368 20 q 313 11 343 16 q 259 2 283 6 z m 276 522 l 214 271 q 237 272 220 271 q 268 274 253 273 q 286 275 283 275 l 286 275 q 290 328 286 288 q 298 412 294 368 l 298 412 q 303 466 300 438 q 308 522 305 493 l 308 522 l 314 609 l 299 608 l 276 522 z"},"á":{"ha":433,"x_min":-21,"x_max":464,"o":"m 259 2 l 259 2 q 263 35 261 19 q 267 67 265 51 l 267 67 l 273 123 q 275 149 274 137 q 277 171 276 161 l 277 171 l 190 171 l 150 27 q 98 21 128 24 q 42 14 68 17 l 42 14 q 11 10 26 12 q -21 6 -5 8 l -21 6 l 58 268 q 90 375 72 315 q 127 498 108 435 q 162 617 145 561 q 188 710 178 672 l 188 710 q 327 722 256 715 q 464 741 397 729 l 464 741 q 455 615 459 685 q 447 469 450 544 q 439 321 443 394 l 439 321 q 434 179 437 252 q 428 28 431 105 l 428 28 q 398 24 413 26 q 368 20 383 22 l 368 20 q 313 11 343 16 q 259 2 283 6 z m 276 522 l 214 271 q 237 272 220 271 q 268 274 253 273 q 286 275 283 275 l 286 275 q 290 328 286 288 q 298 412 294 368 l 298 412 q 303 466 300 438 q 308 522 305 493 l 308 522 l 314 609 l 299 608 l 276 522 z m 190 765 l 190 765 q 189 776 189 770 q 189 785 189 781 l 189 785 l 189 803 q 189 820 189 811 q 190 836 189 828 l 190 836 l 190 870 q 256 936 224 905 q 318 993 288 966 l 318 993 q 376 1048 348 1020 q 430 1104 404 1076 l 430 1104 q 436 979 435 1036 l 436 979 q 438 921 436 950 q 444 860 440 891 l 444 860 q 383 836 415 848 q 317 812 351 824 l 317 812 q 251 788 283 799 q 190 765 219 776 z"},"â":{"ha":433,"x_min":-21,"x_max":466,"o":"m 259 2 l 259 2 q 263 35 261 19 q 267 67 265 51 l 267 67 l 273 123 q 275 149 274 137 q 277 171 276 161 l 277 171 l 190 171 l 150 27 q 98 21 128 24 q 42 14 68 17 l 42 14 q 11 10 26 12 q -21 6 -5 8 l -21 6 l 58 268 q 90 375 72 315 q 127 498 108 435 q 162 617 145 561 q 188 710 178 672 l 188 710 q 327 722 256 715 q 464 741 397 729 l 464 741 q 455 615 459 685 q 447 469 450 544 q 439 321 443 394 l 439 321 q 434 179 437 252 q 428 28 431 105 l 428 28 q 398 24 413 26 q 368 20 383 22 l 368 20 q 313 11 343 16 q 259 2 283 6 z m 276 522 l 214 271 q 237 272 220 271 q 268 274 253 273 q 286 275 283 275 l 286 275 q 290 328 286 288 q 298 412 294 368 l 298 412 q 303 466 300 438 q 308 522 305 493 l 308 522 l 314 609 l 299 608 l 276 522 z m 222 770 l 222 770 q 199 791 209 781 q 183 808 189 800 l 183 808 q 175 817 179 813 q 168 825 171 821 l 168 825 q 197 866 182 845 q 226 905 211 886 l 226 905 q 281 974 251 938 q 336 1036 310 1010 l 336 1036 q 370 1032 356 1033 q 391 1031 383 1030 l 391 1031 q 408 1030 406 1032 l 408 1030 q 417 1001 412 1017 q 426 968 421 985 l 426 968 l 444 902 q 455 865 449 883 q 466 828 461 847 l 466 828 l 442 808 q 432 800 437 804 q 419 790 426 795 l 419 790 l 394 771 l 333 889 q 291 848 313 871 q 251 803 269 824 q 222 770 233 782 z"},"ä":{"ha":433,"x_min":-21,"x_max":526,"o":"m 259 2 l 259 2 q 263 35 261 19 q 267 67 265 51 l 267 67 l 273 123 q 275 149 274 137 q 277 171 276 161 l 277 171 l 190 171 l 150 27 q 98 21 128 24 q 42 14 68 17 l 42 14 q 11 10 26 12 q -21 6 -5 8 l -21 6 l 58 268 q 90 375 72 315 q 127 498 108 435 q 162 617 145 561 q 188 710 178 672 l 188 710 q 327 722 256 715 q 464 741 397 729 l 464 741 q 455 615 459 685 q 447 469 450 544 q 439 321 443 394 l 439 321 q 434 179 437 252 q 428 28 431 105 l 428 28 q 398 24 413 26 q 368 20 383 22 l 368 20 q 313 11 343 16 q 259 2 283 6 z m 276 522 l 214 271 q 237 272 220 271 q 268 274 253 273 q 286 275 283 275 l 286 275 q 290 328 286 288 q 298 412 294 368 l 298 412 q 303 466 300 438 q 308 522 305 493 l 308 522 l 314 609 l 299 608 l 276 522 z m 419 843 l 419 843 q 359 870 379 843 q 339 929 339 896 l 339 929 q 363 991 339 964 q 430 1018 386 1018 l 430 1018 q 502 993 478 1018 q 526 937 526 968 l 526 937 q 499 873 526 903 q 419 843 471 843 z m 187 843 l 187 843 q 127 870 147 843 q 107 929 107 896 l 107 929 q 130 991 107 963 q 197 1018 152 1018 l 197 1018 q 270 993 246 1018 q 293 937 293 968 l 293 937 q 264 871 293 898 q 187 843 234 843 z"},"à":{"ha":433,"x_min":-21,"x_max":464,"o":"m 259 2 l 259 2 q 263 35 261 19 q 267 67 265 51 l 267 67 l 273 123 q 275 149 274 137 q 277 171 276 161 l 277 171 l 190 171 l 150 27 q 98 21 128 24 q 42 14 68 17 l 42 14 q 11 10 26 12 q -21 6 -5 8 l -21 6 l 58 268 q 90 375 72 315 q 127 498 108 435 q 162 617 145 561 q 188 710 178 672 l 188 710 q 327 722 256 715 q 464 741 397 729 l 464 741 q 455 615 459 685 q 447 469 450 544 q 439 321 443 394 l 439 321 q 434 179 437 252 q 428 28 431 105 l 428 28 q 398 24 413 26 q 368 20 383 22 l 368 20 q 313 11 343 16 q 259 2 283 6 z m 276 522 l 214 271 q 237 272 220 271 q 268 274 253 273 q 286 275 283 275 l 286 275 q 290 328 286 288 q 298 412 294 368 l 298 412 q 303 466 300 438 q 308 522 305 493 l 308 522 l 314 609 l 299 608 l 276 522 z m 394 851 l 387 770 q 337 782 362 776 q 289 794 312 788 l 289 794 q 205 815 248 803 q 133 835 162 826 l 133 835 q 147 906 139 864 q 162 986 155 947 l 162 986 l 180 1080 q 220 1039 200 1059 q 258 998 239 1018 l 258 998 q 329 923 291 963 q 394 851 366 883 l 394 851 z"},"å":{"ha":433,"x_min":-21,"x_max":464,"o":"m 259 2 l 259 2 q 263 35 261 19 q 267 67 265 51 l 267 67 l 273 123 q 275 149 274 137 q 277 171 276 161 l 277 171 l 190 171 l 150 27 q 98 21 128 24 q 42 14 68 17 l 42 14 q 11 10 26 12 q -21 6 -5 8 l -21 6 l 58 268 q 90 375 72 315 q 127 498 108 435 q 162 617 145 561 q 188 710 178 672 l 188 710 q 327 722 256 715 q 464 741 397 729 l 464 741 q 455 615 459 685 q 447 469 450 544 q 439 321 443 394 l 439 321 q 434 179 437 252 q 428 28 431 105 l 428 28 q 398 24 413 26 q 368 20 383 22 l 368 20 q 313 11 343 16 q 259 2 283 6 z m 276 522 l 214 271 q 237 272 220 271 q 268 274 253 273 q 286 275 283 275 l 286 275 q 290 328 286 288 q 298 412 294 368 l 298 412 q 303 466 300 438 q 308 522 305 493 l 308 522 l 314 609 l 299 608 l 276 522 z m 305 787 l 305 787 q 230 820 257 787 q 203 898 203 853 l 203 898 q 233 979 203 944 q 319 1013 262 1013 l 319 1013 q 402 983 372 1013 q 431 908 431 952 l 431 908 q 415 848 431 876 q 371 804 399 820 q 305 787 342 787 z m 317 851 l 317 851 q 355 867 342 851 q 368 900 368 883 l 368 900 q 357 930 368 917 q 322 943 345 943 l 322 943 q 287 928 298 943 q 275 896 275 913 l 275 896 q 287 866 275 880 q 317 851 298 851 z"},"ã":{"ha":433,"x_min":-21,"x_max":585,"o":"m 259 2 l 259 2 q 263 35 261 19 q 267 67 265 51 l 267 67 l 273 123 q 275 149 274 137 q 277 171 276 161 l 277 171 l 190 171 l 150 27 q 98 21 128 24 q 42 14 68 17 l 42 14 q 11 10 26 12 q -21 6 -5 8 l -21 6 l 58 268 q 90 375 72 315 q 127 498 108 435 q 162 617 145 561 q 188 710 178 672 l 188 710 q 327 722 256 715 q 464 741 397 729 l 464 741 q 455 615 459 685 q 447 469 450 544 q 439 321 443 394 l 439 321 q 434 179 437 252 q 428 28 431 105 l 428 28 q 398 24 413 26 q 368 20 383 22 l 368 20 q 313 11 343 16 q 259 2 283 6 z m 276 522 l 214 271 q 237 272 220 271 q 268 274 253 273 q 286 275 283 275 l 286 275 q 290 328 286 288 q 298 412 294 368 l 298 412 q 303 466 300 438 q 308 522 305 493 l 308 522 l 314 609 l 299 608 l 276 522 z m 198 796 l 198 796 q 167 820 185 805 q 144 840 149 834 l 144 840 q 157 866 144 840 q 194 928 169 891 l 194 928 q 249 990 217 963 q 317 1017 280 1017 l 317 1017 q 359 1004 340 1017 q 391 974 377 991 q 415 944 405 957 q 428 931 424 931 l 428 931 q 466 949 448 931 q 501 988 484 966 q 531 1021 518 1009 l 531 1021 q 543 1013 537 1017 q 553 1004 548 1008 l 553 1004 q 563 997 558 1000 q 571 990 567 993 l 571 990 q 579 984 575 987 q 585 977 582 981 l 585 977 q 537 890 564 928 l 537 890 q 483 832 517 859 q 411 804 449 804 l 411 804 q 374 815 387 804 q 352 838 361 825 q 332 862 343 851 q 300 872 321 872 l 300 872 q 263 858 281 872 q 228 826 244 844 q 198 796 211 808 z"},"æ":{"ha":516,"x_min":-29,"x_max":605,"o":"m 509 33 l 246 -1 l 246 2 l 244 2 q 264 97 255 51 q 277 171 273 143 l 277 171 l 204 171 l 152 27 q 99 21 130 24 q 39 14 67 17 l 39 14 q 6 10 23 12 q -29 6 -12 8 l -29 6 q 23 139 -3 73 q 73 268 48 204 l 73 268 q 117 379 93 318 q 164 502 140 440 q 207 619 187 564 q 240 710 227 673 l 240 710 q 310 715 281 714 q 364 715 338 715 q 421 717 389 715 q 501 722 453 718 l 501 722 l 605 730 l 566 609 q 540 612 557 611 q 500 613 523 613 l 500 613 l 475 434 q 500 437 492 436 q 525 438 507 438 l 525 438 q 538 438 532 438 q 549 439 544 438 l 549 439 q 546 412 547 425 q 542 384 544 398 l 542 384 l 533 329 q 522 328 528 328 q 510 328 516 328 l 510 328 q 497 327 503 327 q 486 326 491 327 l 486 326 q 474 325 480 325 q 461 324 468 325 l 461 324 l 435 141 l 519 147 l 509 33 z m 313 522 l 236 271 q 253 272 240 271 q 279 273 266 272 q 295 275 292 274 l 295 275 q 300 302 296 279 q 309 358 303 325 q 321 423 315 391 l 321 423 l 356 609 l 346 608 l 313 522 z"},"b":{"ha":428,"x_min":-1,"x_max":512,"o":"m 68 -4 l 68 -4 q -1 2 31 -4 l -1 2 q 76 355 47 177 q 130 712 104 532 l 130 712 q 238 732 182 723 q 354 740 294 740 l 354 740 q 424 729 387 740 q 487 688 461 717 q 512 604 512 658 l 512 604 q 491 512 512 554 q 438 440 470 470 q 372 397 406 410 l 372 397 q 405 372 386 390 q 438 324 424 354 q 452 251 452 294 l 452 251 q 417 143 452 191 q 322 62 381 94 l 322 62 q 199 13 265 30 q 68 -4 133 -4 z m 246 479 l 246 479 q 305 495 277 485 q 351 518 333 505 q 368 546 368 531 l 368 546 q 353 576 368 565 q 317 592 338 587 q 278 597 296 597 l 278 597 l 268 597 q 255 528 261 557 q 246 479 249 498 z m 195 198 l 195 198 q 239 205 215 200 q 285 221 263 210 q 322 249 307 231 q 336 291 336 266 l 336 291 q 320 329 336 315 q 282 350 304 343 q 239 356 259 356 l 239 356 l 231 356 q 223 355 226 356 l 223 355 q 209 277 217 318 q 195 198 201 236 z"},"c":{"ha":414,"x_min":39,"x_max":511,"o":"m 182 -2 l 182 -2 q 79 57 119 -2 q 39 219 39 116 l 39 219 q 65 405 39 313 q 138 569 91 496 l 138 569 q 250 687 185 642 q 392 731 314 731 l 392 731 q 476 693 441 731 q 511 591 511 655 l 511 591 l 511 579 q 511 572 511 575 q 510 565 511 569 l 510 565 l 379 530 q 351 555 367 555 l 351 555 q 301 516 327 555 q 250 423 274 477 l 250 423 q 222 349 234 387 q 202 278 209 311 q 195 224 195 245 l 195 224 q 204 179 195 193 l 204 179 q 226 166 211 166 l 226 166 q 259 181 241 166 q 293 217 277 195 q 313 261 308 239 l 313 261 l 427 215 q 311 51 378 103 q 182 -2 243 -2 z"},"ç":{"ha":414,"x_min":39,"x_max":511,"o":"m 182 -2 l 182 -2 q 79 57 119 -2 q 39 219 39 116 l 39 219 q 65 405 39 313 q 138 569 91 496 l 138 569 q 250 687 185 642 q 392 731 314 731 l 392 731 q 476 693 441 731 q 511 591 511 655 l 511 591 l 511 579 q 511 572 511 575 q 510 565 511 569 l 510 565 l 379 530 q 351 555 367 555 l 351 555 q 301 516 327 555 q 250 423 274 477 l 250 423 q 222 349 234 387 q 202 278 209 311 q 195 224 195 245 l 195 224 q 204 179 195 193 l 204 179 q 226 166 211 166 l 226 166 q 259 181 241 166 q 293 217 277 195 q 313 261 308 239 l 313 261 l 427 215 q 311 51 378 103 q 182 -2 243 -2 z m 167 -157 l 167 -157 q 121 -148 143 -157 q 83 -120 98 -139 l 83 -120 l 102 -32 q 155 -60 127 -60 l 155 -60 q 192 -44 177 -60 q 206 -3 206 -28 l 206 -3 q 205 11 206 3 q 201 27 203 18 l 201 27 q 244 21 229 24 q 262 18 259 18 l 262 18 q 302 -60 302 -21 l 302 -60 q 284 -110 302 -88 q 235 -144 265 -132 q 167 -157 204 -157 z"},"d":{"ha":441,"x_min":4,"x_max":509,"o":"m 60 -5 l 60 -5 q 32 -3 46 -5 q 4 0 18 -2 l 4 0 l 57 269 q 79 386 67 324 q 101 508 90 447 q 121 620 112 568 q 134 708 129 672 l 134 708 q 221 723 177 716 q 311 730 265 730 l 311 730 q 428 700 385 730 q 490 620 471 669 q 509 511 509 570 l 509 511 q 494 400 509 458 q 452 284 479 341 q 386 175 424 226 l 386 175 q 243 46 327 96 q 60 -5 158 -5 z m 179 121 l 179 121 q 246 191 214 144 q 305 304 277 238 l 305 304 q 344 420 330 365 q 358 510 358 474 l 358 510 q 338 568 358 547 q 273 589 317 589 l 273 589 q 241 430 257 503 q 209 283 224 357 q 179 121 193 209 z"},"ð":{"ha":445,"x_min":13,"x_max":501,"o":"m 136 2 l 136 2 q 74 12 104 2 q 13 42 43 21 l 13 42 l 30 128 q 39 171 34 148 q 49 220 44 194 l 49 220 q 70 331 60 271 l 70 331 q 63 330 66 330 q 57 330 60 330 l 57 330 l 34 330 l 67 436 q 74 435 69 435 l 74 435 l 90 435 q 116 580 104 509 q 136 708 128 650 l 136 708 q 223 723 179 716 q 313 730 267 730 l 313 730 q 423 699 381 730 q 483 614 464 668 q 501 491 501 560 l 501 491 q 475 324 501 408 q 402 167 449 239 l 402 167 q 286 48 354 94 q 136 2 217 2 z m 171 121 l 171 121 q 239 185 206 142 q 297 280 271 227 q 337 388 322 333 q 351 490 351 443 l 351 490 q 330 575 351 541 q 266 608 308 608 l 266 608 q 248 521 256 563 q 231 435 239 479 l 231 435 q 242 435 236 435 q 252 436 247 435 l 252 436 l 270 436 q 278 436 274 436 q 286 437 282 436 l 286 437 l 262 329 l 247 329 q 240 329 243 329 q 232 330 236 329 l 232 330 l 213 330 q 204 282 208 306 q 194 231 199 257 l 194 231 q 184 178 189 206 q 171 121 178 150 z"},"e":{"ha":341,"x_min":8,"x_max":455,"o":"m 331 49 l 8 -1 l 139 710 l 455 737 q 443 692 448 715 l 443 692 q 434 653 438 673 q 426 616 429 632 l 426 616 q 389 615 413 615 q 340 614 365 614 q 297 613 315 613 q 278 613 279 613 l 278 613 l 243 434 l 301 437 q 324 438 312 438 q 346 438 335 438 l 346 438 q 366 438 357 438 q 380 439 375 438 l 380 439 q 377 412 378 425 q 373 384 375 398 l 373 384 l 364 329 q 351 328 359 328 q 332 328 343 328 l 332 328 q 309 327 321 327 q 286 326 297 327 l 286 326 q 259 325 273 325 q 229 324 245 325 l 229 324 l 195 140 l 341 163 l 331 49 z"},"é":{"ha":341,"x_min":8,"x_max":455,"o":"m 331 49 l 8 -1 l 139 710 l 455 737 q 443 692 448 715 l 443 692 q 434 653 438 673 q 426 616 429 632 l 426 616 q 389 615 413 615 q 340 614 365 614 q 297 613 315 613 q 278 613 279 613 l 278 613 l 243 434 l 301 437 q 324 438 312 438 q 346 438 335 438 l 346 438 q 366 438 357 438 q 380 439 375 438 l 380 439 q 377 412 378 425 q 373 384 375 398 l 373 384 l 364 329 q 351 328 359 328 q 332 328 343 328 l 332 328 q 309 327 321 327 q 286 326 297 327 l 286 326 q 259 325 273 325 q 229 324 245 325 l 229 324 l 195 140 l 341 163 l 331 49 z m 182 755 l 182 755 q 181 766 181 760 q 181 775 181 771 l 181 775 l 181 793 q 181 810 181 801 q 182 826 181 818 l 182 826 l 182 860 q 248 926 216 895 q 310 983 280 956 l 310 983 q 368 1038 340 1010 q 422 1094 396 1066 l 422 1094 q 428 969 427 1026 l 428 969 q 430 911 428 940 q 436 850 432 881 l 436 850 q 375 826 407 838 q 309 802 343 814 l 309 802 q 243 778 275 789 q 182 755 211 766 z"},"ê":{"ha":341,"x_min":8,"x_max":458,"o":"m 331 49 l 8 -1 l 139 710 l 455 737 q 443 692 448 715 l 443 692 q 434 653 438 673 q 426 616 429 632 l 426 616 q 389 615 413 615 q 340 614 365 614 q 297 613 315 613 q 278 613 279 613 l 278 613 l 243 434 l 301 437 q 324 438 312 438 q 346 438 335 438 l 346 438 q 366 438 357 438 q 380 439 375 438 l 380 439 q 377 412 378 425 q 373 384 375 398 l 373 384 l 364 329 q 351 328 359 328 q 332 328 343 328 l 332 328 q 309 327 321 327 q 286 326 297 327 l 286 326 q 259 325 273 325 q 229 324 245 325 l 229 324 l 195 140 l 341 163 l 331 49 z m 214 760 l 214 760 q 191 781 201 771 q 175 798 181 790 l 175 798 q 167 807 171 803 q 160 815 163 811 l 160 815 q 189 856 174 835 q 218 895 203 876 l 218 895 q 273 964 243 928 q 328 1026 302 1000 l 328 1026 q 362 1022 348 1023 q 383 1021 375 1020 l 383 1021 q 400 1020 398 1022 l 400 1020 q 409 991 404 1007 q 418 958 413 975 l 418 958 l 436 892 q 447 855 441 873 q 458 818 453 837 l 458 818 l 434 798 q 424 790 429 794 q 411 780 418 785 l 411 780 l 386 761 l 325 879 q 283 838 305 861 q 243 793 261 814 q 214 760 225 772 z"},"ë":{"ha":341,"x_min":8,"x_max":518,"o":"m 331 49 l 8 -1 l 139 710 l 455 737 q 443 692 448 715 l 443 692 q 434 653 438 673 q 426 616 429 632 l 426 616 q 389 615 413 615 q 340 614 365 614 q 297 613 315 613 q 278 613 279 613 l 278 613 l 243 434 l 301 437 q 324 438 312 438 q 346 438 335 438 l 346 438 q 366 438 357 438 q 380 439 375 438 l 380 439 q 377 412 378 425 q 373 384 375 398 l 373 384 l 364 329 q 351 328 359 328 q 332 328 343 328 l 332 328 q 309 327 321 327 q 286 326 297 327 l 286 326 q 259 325 273 325 q 229 324 245 325 l 229 324 l 195 140 l 341 163 l 331 49 z m 411 833 l 411 833 q 351 860 371 833 q 331 919 331 886 l 331 919 q 355 981 331 954 q 422 1008 378 1008 l 422 1008 q 494 983 470 1008 q 518 927 518 958 l 518 927 q 491 863 518 893 q 411 833 463 833 z m 179 833 l 179 833 q 119 860 139 833 q 99 919 99 886 l 99 919 q 122 981 99 953 q 189 1008 144 1008 l 189 1008 q 262 983 238 1008 q 285 927 285 958 l 285 927 q 256 861 285 888 q 179 833 226 833 z"},"è":{"ha":341,"x_min":8,"x_max":455,"o":"m 331 49 l 8 -1 l 139 710 l 455 737 q 443 692 448 715 l 443 692 q 434 653 438 673 q 426 616 429 632 l 426 616 q 389 615 413 615 q 340 614 365 614 q 297 613 315 613 q 278 613 279 613 l 278 613 l 243 434 l 301 437 q 324 438 312 438 q 346 438 335 438 l 346 438 q 366 438 357 438 q 380 439 375 438 l 380 439 q 377 412 378 425 q 373 384 375 398 l 373 384 l 364 329 q 351 328 359 328 q 332 328 343 328 l 332 328 q 309 327 321 327 q 286 326 297 327 l 286 326 q 259 325 273 325 q 229 324 245 325 l 229 324 l 195 140 l 341 163 l 331 49 z m 386 841 l 379 760 q 329 772 354 766 q 281 784 304 778 l 281 784 q 197 805 240 793 q 125 825 154 816 l 125 825 q 139 896 131 854 q 154 976 147 937 l 154 976 l 172 1070 q 212 1029 192 1049 q 250 988 231 1008 l 250 988 q 321 913 283 953 q 386 841 358 873 l 386 841 z"},"f":{"ha":341,"x_min":4,"x_max":470,"o":"m 4 -1 l 4 -1 q 31 109 18 47 q 56 234 44 170 q 77 353 67 298 q 93 444 87 408 l 93 444 q 115 580 104 511 q 135 719 125 648 l 135 719 l 470 736 l 441 613 l 284 613 l 253 435 q 284 436 269 436 q 312 436 298 436 l 312 436 l 359 436 q 380 436 371 436 q 396 437 389 436 l 396 437 q 393 410 395 423 q 389 382 391 396 l 389 382 l 380 328 q 320 330 359 328 q 236 332 280 331 l 236 332 l 190 37 q 157 31 173 34 q 123 24 140 28 l 123 24 q 62 12 95 19 q 4 -1 29 5 z"},"g":{"ha":499,"x_min":42,"x_max":568,"o":"m 223 -24 l 223 -24 q 153 -8 186 -24 q 95 41 119 8 l 95 41 q 56 122 70 73 q 42 237 42 171 l 42 237 q 79 462 42 366 q 173 622 116 558 l 173 622 q 294 717 229 686 q 414 748 358 748 l 414 748 q 502 725 468 748 q 552 662 536 701 q 568 575 568 623 l 568 575 l 431 549 q 407 606 422 589 q 373 623 392 623 l 373 623 q 328 599 351 623 q 282 535 304 575 q 241 444 259 494 q 212 341 223 394 q 198 241 200 288 l 198 241 q 217 153 198 179 q 264 126 235 126 l 264 126 q 320 144 292 126 q 366 193 347 162 q 385 261 384 223 l 385 261 l 278 245 l 297 344 l 389 356 q 470 368 427 361 q 544 381 512 375 l 544 381 q 505 203 537 279 q 424 76 472 126 q 324 1 376 26 q 223 -24 271 -24 z"},"h":{"ha":441,"x_min":8,"x_max":546,"o":"m 162 30 l 8 -2 q 62 271 37 138 l 62 271 q 91 435 76 352 q 117 594 105 518 q 135 730 129 670 l 135 730 q 180 728 162 729 q 213 725 197 726 q 248 724 228 724 q 297 723 267 723 l 297 723 q 264 581 280 652 q 233 438 247 510 l 233 438 l 332 449 q 346 519 339 484 q 357 587 352 553 l 357 587 q 370 655 362 620 q 386 724 377 689 l 386 724 q 459 734 422 730 q 521 739 496 737 q 546 740 546 740 l 546 740 q 520 646 533 700 q 495 532 507 592 q 472 413 483 472 q 452 302 461 353 l 452 302 q 431 174 441 238 q 411 42 421 109 l 411 42 l 255 24 q 268 84 262 54 q 278 141 273 113 l 278 141 q 299 241 288 189 q 315 330 309 293 l 315 330 l 218 321 q 211 280 214 302 q 202 233 207 258 l 202 233 q 193 185 197 208 q 184 138 188 161 l 184 138 q 173 84 179 111 q 162 30 167 57 l 162 30 z"},"i":{"ha":202,"x_min":5,"x_max":285,"o":"m 5 1 l 5 1 q 33 133 19 59 q 61 285 47 206 q 87 437 75 364 l 87 437 q 109 567 98 501 q 129 700 119 633 l 129 700 l 285 725 l 240 462 q 214 295 225 369 q 192 155 202 221 q 170 20 181 89 l 170 20 q 124 18 151 20 q 70 12 97 15 q 25 5 43 8 q 5 1 6 2 z"},"í":{"ha":202,"x_min":5,"x_max":354,"o":"m 5 1 l 5 1 q 33 133 19 59 q 61 285 47 206 q 87 437 75 364 l 87 437 q 109 567 98 501 q 129 700 119 633 l 129 700 l 285 725 l 240 462 q 214 295 225 369 q 192 155 202 221 q 170 20 181 89 l 170 20 q 124 18 151 20 q 70 12 97 15 q 25 5 43 8 q 5 1 6 2 z m 100 736 l 100 736 q 99 747 99 741 q 99 756 99 752 l 99 756 l 99 774 q 99 791 99 782 q 100 807 99 799 l 100 807 l 100 841 q 166 907 134 876 q 228 964 198 937 l 228 964 q 286 1019 258 991 q 340 1075 314 1047 l 340 1075 q 346 950 345 1007 l 346 950 q 348 892 346 921 q 354 831 350 862 l 354 831 q 293 807 325 819 q 227 783 261 795 l 227 783 q 161 759 193 770 q 100 736 129 747 z"},"î":{"ha":202,"x_min":5,"x_max":376,"o":"m 5 1 l 5 1 q 33 133 19 59 q 61 285 47 206 q 87 437 75 364 l 87 437 q 109 567 98 501 q 129 700 119 633 l 129 700 l 285 725 l 240 462 q 214 295 225 369 q 192 155 202 221 q 170 20 181 89 l 170 20 q 124 18 151 20 q 70 12 97 15 q 25 5 43 8 q 5 1 6 2 z m 132 741 l 132 741 q 109 762 119 752 q 93 779 99 771 l 93 779 q 85 788 89 784 q 78 796 81 792 l 78 796 q 107 837 92 816 q 136 876 121 857 l 136 876 q 191 945 161 909 q 246 1007 220 981 l 246 1007 q 280 1003 266 1004 q 301 1002 293 1001 l 301 1002 q 318 1001 316 1003 l 318 1001 q 327 972 322 988 q 336 939 331 956 l 336 939 l 354 873 q 365 836 359 854 q 376 799 371 818 l 376 799 l 352 779 q 342 771 347 775 q 329 761 336 766 l 329 761 l 304 742 l 243 860 q 201 819 223 842 q 161 774 179 795 q 132 741 143 753 z"},"ï":{"ha":202,"x_min":5,"x_max":436,"o":"m 5 1 l 5 1 q 33 133 19 59 q 61 285 47 206 q 87 437 75 364 l 87 437 q 109 567 98 501 q 129 700 119 633 l 129 700 l 285 725 l 240 462 q 214 295 225 369 q 192 155 202 221 q 170 20 181 89 l 170 20 q 124 18 151 20 q 70 12 97 15 q 25 5 43 8 q 5 1 6 2 z m 329 814 l 329 814 q 269 841 289 814 q 249 900 249 867 l 249 900 q 273 962 249 935 q 340 989 296 989 l 340 989 q 412 964 388 989 q 436 908 436 939 l 436 908 q 409 844 436 874 q 329 814 381 814 z m 97 814 l 97 814 q 37 841 57 814 q 17 900 17 867 l 17 900 q 40 962 17 934 q 107 989 62 989 l 107 989 q 180 964 156 989 q 203 908 203 939 l 203 908 q 174 842 203 869 q 97 814 144 814 z"},"ì":{"ha":202,"x_min":5,"x_max":304,"o":"m 5 1 l 5 1 q 33 133 19 59 q 61 285 47 206 q 87 437 75 364 l 87 437 q 109 567 98 501 q 129 700 119 633 l 129 700 l 285 725 l 240 462 q 214 295 225 369 q 192 155 202 221 q 170 20 181 89 l 170 20 q 124 18 151 20 q 70 12 97 15 q 25 5 43 8 q 5 1 6 2 z m 304 822 l 297 741 q 247 753 272 747 q 199 765 222 759 l 199 765 q 115 786 158 774 q 43 806 72 797 l 43 806 q 57 877 49 835 q 72 957 65 918 l 72 957 l 90 1051 q 130 1010 110 1030 q 168 969 149 989 l 168 969 q 239 894 201 934 q 304 822 276 854 l 304 822 z"},"j":{"ha":279,"x_min":-27,"x_max":400,"o":"m 105 -1 l 105 -1 q 45 11 77 -1 q -27 52 12 23 l -27 52 l 42 206 q 62 189 47 196 q 93 181 76 181 l 93 181 q 116 202 106 181 q 133 253 126 223 q 143 310 139 283 q 148 347 147 336 l 148 347 q 167 444 158 396 q 184 541 176 492 l 184 541 q 203 637 192 589 q 224 733 213 685 l 224 733 q 313 746 269 737 q 400 766 356 754 l 400 766 q 369 651 385 715 q 338 517 353 586 q 310 383 323 448 q 286 266 296 318 l 286 266 q 264 178 277 224 q 230 91 251 131 q 179 25 209 50 q 105 -1 148 -1 z"},"k":{"ha":462,"x_min":7,"x_max":603,"o":"m 169 23 l 7 -1 q 36 137 22 69 q 63 271 50 205 l 63 271 q 104 507 84 390 q 133 729 124 623 l 133 729 l 185 726 q 213 724 199 725 q 239 722 226 723 l 239 722 q 269 721 254 721 q 299 720 284 720 l 299 720 q 293 688 297 712 q 284 640 288 664 q 277 606 279 615 l 277 606 l 259 507 l 265 508 q 332 612 294 553 q 403 725 370 671 l 403 725 q 503 734 453 729 q 603 747 553 739 l 603 747 q 557 685 580 716 q 512 623 534 654 l 512 623 q 462 553 489 591 q 411 479 435 515 q 370 416 386 442 l 370 416 q 394 317 381 366 q 422 221 407 268 l 422 221 q 452 126 437 174 q 483 29 467 78 l 483 29 q 436 31 460 30 q 389 31 412 31 l 389 31 q 333 31 360 31 q 277 29 306 30 l 277 29 q 268 96 273 61 q 258 166 263 130 l 258 166 q 248 236 253 201 q 238 302 243 270 l 238 302 l 220 281 q 205 207 213 252 l 205 207 q 197 164 201 185 q 188 122 192 142 l 188 122 q 179 74 184 98 q 169 23 174 49 l 169 23 z"},"l":{"ha":302,"x_min":12,"x_max":315,"o":"m 12 -2 l 12 -2 q 36 157 23 77 q 62 312 48 237 q 87 446 75 386 l 87 446 q 113 578 100 511 q 140 713 126 645 l 140 713 l 315 736 l 263 510 q 235 384 249 451 q 208 253 220 316 q 189 141 196 190 l 189 141 q 243 144 214 143 q 293 144 271 144 l 293 144 q 297 96 294 121 q 304 52 300 70 q 307 31 307 33 l 307 31 q 300 31 303 31 q 292 32 296 31 l 292 32 l 276 32 q 190 29 237 32 q 96 18 142 25 q 12 -2 49 10 z"},"m":{"ha":619,"x_min":-30,"x_max":688,"o":"m 135 17 l -30 6 q 54 267 14 140 l 54 267 q 89 378 71 319 q 125 497 107 437 q 159 611 143 556 q 186 709 175 666 l 186 709 q 290 715 241 709 l 290 715 q 342 721 315 718 q 396 726 368 724 l 396 726 l 390 677 q 386 649 388 663 q 382 619 384 634 l 382 619 q 377 589 380 604 q 372 557 374 573 l 372 557 q 360 471 368 526 q 341 350 352 415 l 341 350 l 354 350 q 402 477 383 426 q 433 559 421 527 l 433 559 q 470 654 450 606 q 503 728 490 702 l 503 728 q 561 735 527 730 q 629 745 594 739 q 688 755 663 751 l 688 755 q 663 586 674 671 q 643 423 651 500 q 628 283 634 345 l 628 283 q 617 161 622 221 q 607 41 612 100 l 607 41 l 433 10 q 436 55 433 12 q 446 162 439 98 l 446 162 q 460 284 453 226 q 474 378 467 341 l 474 378 l 465 378 q 405 212 440 302 q 335 13 369 122 l 335 13 q 275 11 300 12 q 217 7 250 9 l 217 7 l 249 378 l 234 378 q 225 336 233 367 q 206 264 217 304 q 183 183 195 223 l 183 183 q 135 17 138 26 l 135 17 z"},"n":{"ha":452,"x_min":5,"x_max":557,"o":"m 151 29 l 5 -5 q 62 274 35 139 l 62 274 q 105 518 84 401 q 135 733 126 635 l 135 733 q 148 732 142 732 q 157 732 153 732 l 157 732 l 178 732 q 236 734 204 732 q 295 736 268 735 l 295 736 q 309 667 302 701 q 320 601 315 633 l 320 601 q 331 544 325 573 q 343 484 337 514 l 343 484 q 354 429 348 454 q 363 382 359 403 l 363 382 q 386 498 375 441 q 406 601 396 555 l 406 601 l 435 735 l 557 750 q 525 601 540 674 q 497 460 510 528 l 497 460 q 453 230 472 338 q 424 42 434 122 l 424 42 q 421 40 435 42 q 378 33 406 37 q 318 21 350 28 q 261 4 286 14 l 261 4 q 255 82 258 44 q 248 156 252 120 l 248 156 q 234 283 242 220 q 218 383 226 346 l 218 383 q 201 283 211 339 q 179 169 191 226 l 179 169 l 151 29 z"},"ñ":{"ha":452,"x_min":5,"x_max":638,"o":"m 151 29 l 5 -5 q 62 274 35 139 l 62 274 q 105 518 84 401 q 135 733 126 635 l 135 733 q 148 732 142 732 q 157 732 153 732 l 157 732 l 178 732 q 236 734 204 732 q 295 736 268 735 l 295 736 q 309 667 302 701 q 320 601 315 633 l 320 601 q 331 544 325 573 q 343 484 337 514 l 343 484 q 354 429 348 454 q 363 382 359 403 l 363 382 q 386 498 375 441 q 406 601 396 555 l 406 601 l 435 735 l 557 750 q 525 601 540 674 q 497 460 510 528 l 497 460 q 453 230 472 338 q 424 42 434 122 l 424 42 q 421 40 435 42 q 378 33 406 37 q 318 21 350 28 q 261 4 286 14 l 261 4 q 255 82 258 44 q 248 156 252 120 l 248 156 q 234 283 242 220 q 218 383 226 346 l 218 383 q 201 283 211 339 q 179 169 191 226 l 179 169 l 151 29 z m 251 767 l 251 767 q 220 791 238 776 q 197 811 202 805 l 197 811 q 210 837 197 811 q 247 899 222 862 l 247 899 q 302 961 270 934 q 370 988 333 988 l 370 988 q 412 975 393 988 q 444 945 430 962 q 468 915 458 928 q 481 902 477 902 l 481 902 q 519 920 501 902 q 554 959 537 937 q 584 992 571 980 l 584 992 q 596 984 590 988 q 606 975 601 979 l 606 975 q 616 968 611 971 q 624 961 620 964 l 624 961 q 632 955 628 958 q 638 948 635 952 l 638 948 q 590 861 617 899 l 590 861 q 536 803 570 830 q 464 775 502 775 l 464 775 q 427 786 440 775 q 405 809 414 796 q 385 833 396 822 q 353 843 374 843 l 353 843 q 316 829 334 843 q 281 797 297 815 q 251 767 264 779 z"},"o":{"ha":493,"x_min":31,"x_max":560,"o":"m 181 -4 l 181 -4 q 73 47 115 -4 q 31 201 31 98 l 31 201 q 45 321 31 258 q 84 445 59 384 q 142 558 109 506 l 142 558 q 264 695 195 642 q 409 748 333 748 l 409 748 q 502 718 469 748 q 547 640 534 687 q 560 541 560 592 l 560 541 q 524 320 560 422 q 429 146 487 217 l 429 146 q 306 35 371 73 q 181 -4 240 -4 z m 235 161 l 235 161 q 315 191 280 161 q 373 268 349 221 q 409 365 397 314 q 421 457 421 416 l 421 457 q 418 492 421 473 q 405 524 415 510 q 374 538 395 538 l 374 538 q 291 505 328 538 q 229 420 254 471 l 229 420 q 192 318 204 368 q 180 227 180 268 l 180 227 q 195 184 180 206 q 235 161 210 161 z"},"ó":{"ha":493,"x_min":31,"x_max":560,"o":"m 181 -4 l 181 -4 q 73 47 115 -4 q 31 201 31 98 l 31 201 q 45 321 31 258 q 84 445 59 384 q 142 558 109 506 l 142 558 q 264 695 195 642 q 409 748 333 748 l 409 748 q 502 718 469 748 q 547 640 534 687 q 560 541 560 592 l 560 541 q 524 320 560 422 q 429 146 487 217 l 429 146 q 306 35 371 73 q 181 -4 240 -4 z m 235 161 l 235 161 q 315 191 280 161 q 373 268 349 221 q 409 365 397 314 q 421 457 421 416 l 421 457 q 418 492 421 473 q 405 524 415 510 q 374 538 395 538 l 374 538 q 291 505 328 538 q 229 420 254 471 l 229 420 q 192 318 204 368 q 180 227 180 268 l 180 227 q 195 184 180 206 q 235 161 210 161 z m 273 765 l 273 765 q 272 776 272 770 q 272 785 272 781 l 272 785 l 272 803 q 272 820 272 811 q 273 836 272 828 l 273 836 l 273 870 q 339 936 307 905 q 401 993 371 966 l 401 993 q 459 1048 431 1020 q 513 1104 487 1076 l 513 1104 q 519 979 518 1036 l 519 979 q 521 921 519 950 q 527 860 523 891 l 527 860 q 466 836 498 848 q 400 812 434 824 l 400 812 q 334 788 366 799 q 273 765 302 776 z"},"ô":{"ha":493,"x_min":31,"x_max":560,"o":"m 181 -4 l 181 -4 q 73 47 115 -4 q 31 201 31 98 l 31 201 q 45 321 31 258 q 84 445 59 384 q 142 558 109 506 l 142 558 q 264 695 195 642 q 409 748 333 748 l 409 748 q 502 718 469 748 q 547 640 534 687 q 560 541 560 592 l 560 541 q 524 320 560 422 q 429 146 487 217 l 429 146 q 306 35 371 73 q 181 -4 240 -4 z m 235 161 l 235 161 q 315 191 280 161 q 373 268 349 221 q 409 365 397 314 q 421 457 421 416 l 421 457 q 418 492 421 473 q 405 524 415 510 q 374 538 395 538 l 374 538 q 291 505 328 538 q 229 420 254 471 l 229 420 q 192 318 204 368 q 180 227 180 268 l 180 227 q 195 184 180 206 q 235 161 210 161 z m 305 770 l 305 770 q 282 791 292 781 q 266 808 272 800 l 266 808 q 258 817 262 813 q 251 825 254 821 l 251 825 q 280 866 265 845 q 309 905 294 886 l 309 905 q 364 974 334 938 q 419 1036 393 1010 l 419 1036 q 453 1032 439 1033 q 474 1031 466 1030 l 474 1031 q 491 1030 489 1032 l 491 1030 q 500 1001 495 1017 q 509 968 504 985 l 509 968 l 527 902 q 538 865 532 883 q 549 828 544 847 l 549 828 l 525 808 q 515 800 520 804 q 502 790 509 795 l 502 790 l 477 771 l 416 889 q 374 848 396 871 q 334 803 352 824 q 305 770 316 782 z"},"ö":{"ha":493,"x_min":31,"x_max":609,"o":"m 181 -4 l 181 -4 q 73 47 115 -4 q 31 201 31 98 l 31 201 q 45 321 31 258 q 84 445 59 384 q 142 558 109 506 l 142 558 q 264 695 195 642 q 409 748 333 748 l 409 748 q 502 718 469 748 q 547 640 534 687 q 560 541 560 592 l 560 541 q 524 320 560 422 q 429 146 487 217 l 429 146 q 306 35 371 73 q 181 -4 240 -4 z m 235 161 l 235 161 q 315 191 280 161 q 373 268 349 221 q 409 365 397 314 q 421 457 421 416 l 421 457 q 418 492 421 473 q 405 524 415 510 q 374 538 395 538 l 374 538 q 291 505 328 538 q 229 420 254 471 l 229 420 q 192 318 204 368 q 180 227 180 268 l 180 227 q 195 184 180 206 q 235 161 210 161 z m 502 843 l 502 843 q 442 870 462 843 q 422 929 422 896 l 422 929 q 446 991 422 964 q 513 1018 469 1018 l 513 1018 q 585 993 561 1018 q 609 937 609 968 l 609 937 q 582 873 609 903 q 502 843 554 843 z m 270 843 l 270 843 q 210 870 230 843 q 190 929 190 896 l 190 929 q 213 991 190 963 q 280 1018 235 1018 l 280 1018 q 353 993 329 1018 q 376 937 376 968 l 376 937 q 347 871 376 898 q 270 843 317 843 z"},"ò":{"ha":493,"x_min":31,"x_max":560,"o":"m 181 -4 l 181 -4 q 73 47 115 -4 q 31 201 31 98 l 31 201 q 45 321 31 258 q 84 445 59 384 q 142 558 109 506 l 142 558 q 264 695 195 642 q 409 748 333 748 l 409 748 q 502 718 469 748 q 547 640 534 687 q 560 541 560 592 l 560 541 q 524 320 560 422 q 429 146 487 217 l 429 146 q 306 35 371 73 q 181 -4 240 -4 z m 235 161 l 235 161 q 315 191 280 161 q 373 268 349 221 q 409 365 397 314 q 421 457 421 416 l 421 457 q 418 492 421 473 q 405 524 415 510 q 374 538 395 538 l 374 538 q 291 505 328 538 q 229 420 254 471 l 229 420 q 192 318 204 368 q 180 227 180 268 l 180 227 q 195 184 180 206 q 235 161 210 161 z m 477 851 l 470 770 q 420 782 445 776 q 372 794 395 788 l 372 794 q 288 815 331 803 q 216 835 245 826 l 216 835 q 230 906 222 864 q 245 986 238 947 l 245 986 l 263 1080 q 303 1039 283 1059 q 341 998 322 1018 l 341 998 q 412 923 374 963 q 477 851 449 883 l 477 851 z"},"ø":{"ha":493,"x_min":-1,"x_max":623,"o":"m 82 35 l 49 -8 l -1 40 l 47 96 q 31 201 31 140 l 31 201 q 45 321 31 258 q 84 445 59 384 q 142 558 109 506 l 142 558 q 264 695 195 642 q 409 748 333 748 l 409 748 q 475 734 448 748 q 520 696 502 720 l 520 696 l 555 742 l 606 704 l 623 724 l 550 630 q 558 586 555 608 q 560 541 560 563 l 560 541 q 524 320 560 422 q 429 146 487 217 l 429 146 q 306 35 371 73 q 181 -4 240 -4 l 181 -4 q 82 35 121 -4 l 82 35 z m 175 246 l 175 246 l 413 533 q 354 576 388 576 l 354 576 q 290 547 322 576 q 232 470 258 517 q 189 370 205 423 q 173 271 173 317 l 173 271 q 174 259 173 265 q 175 246 174 252 z m 247 168 l 247 168 q 325 200 288 168 q 386 278 361 231 l 386 278 q 426 372 412 326 q 439 457 439 417 l 439 457 q 439 472 439 465 q 437 484 438 479 l 437 484 l 196 181 q 247 168 221 168 z"},"õ":{"ha":493,"x_min":31,"x_max":668,"o":"m 181 -4 l 181 -4 q 73 47 115 -4 q 31 201 31 98 l 31 201 q 45 321 31 258 q 84 445 59 384 q 142 558 109 506 l 142 558 q 264 695 195 642 q 409 748 333 748 l 409 748 q 502 718 469 748 q 547 640 534 687 q 560 541 560 592 l 560 541 q 524 320 560 422 q 429 146 487 217 l 429 146 q 306 35 371 73 q 181 -4 240 -4 z m 235 161 l 235 161 q 315 191 280 161 q 373 268 349 221 q 409 365 397 314 q 421 457 421 416 l 421 457 q 418 492 421 473 q 405 524 415 510 q 374 538 395 538 l 374 538 q 291 505 328 538 q 229 420 254 471 l 229 420 q 192 318 204 368 q 180 227 180 268 l 180 227 q 195 184 180 206 q 235 161 210 161 z m 281 796 l 281 796 q 250 820 268 805 q 227 840 232 834 l 227 840 q 240 866 227 840 q 277 928 252 891 l 277 928 q 332 990 300 963 q 400 1017 363 1017 l 400 1017 q 442 1004 423 1017 q 474 974 460 991 q 498 944 488 957 q 511 931 507 931 l 511 931 q 549 949 531 931 q 584 988 567 966 q 614 1021 601 1009 l 614 1021 q 626 1013 620 1017 q 636 1004 631 1008 l 636 1004 q 646 997 641 1000 q 654 990 650 993 l 654 990 q 662 984 658 987 q 668 977 665 981 l 668 977 q 620 890 647 928 l 620 890 q 566 832 600 859 q 494 804 532 804 l 494 804 q 457 815 470 804 q 435 838 444 825 q 415 862 426 851 q 383 872 404 872 l 383 872 q 346 858 364 872 q 311 826 327 844 q 281 796 294 808 z"},"p":{"ha":379,"x_min":-3,"x_max":468,"o":"m 170 33 l -3 -1 q 54 263 27 134 l 54 263 q 77 375 65 315 q 100 495 88 434 q 122 611 112 556 q 138 706 132 665 l 138 706 q 225 728 178 718 q 308 738 271 738 l 308 738 q 403 713 368 738 q 453 644 438 687 q 468 550 468 601 l 468 550 q 448 443 468 494 q 393 350 427 391 q 314 285 358 309 q 221 261 269 261 l 221 261 l 210 261 q 195 187 202 227 q 183 113 188 147 l 183 113 q 176 73 179 93 q 170 33 173 53 l 170 33 z m 230 366 l 230 366 q 276 397 253 372 q 314 459 299 421 q 329 542 329 497 l 329 542 q 313 598 329 579 q 276 617 296 617 l 276 617 q 254 492 265 551 q 230 366 243 433 z"},"þ":{"ha":386,"x_min":1,"x_max":456,"o":"m 174 33 l 1 -1 q 58 275 31 142 l 58 275 q 88 431 72 350 q 118 590 103 512 q 142 730 132 667 l 142 730 q 259 744 215 739 q 308 748 303 748 l 308 748 l 287 648 q 387 621 350 648 q 440 550 424 594 q 456 455 456 506 l 456 455 q 435 348 456 399 q 379 257 414 297 q 300 194 344 217 q 209 171 256 171 l 209 171 l 198 171 q 191 140 194 154 q 186 112 188 125 l 186 112 l 179 68 q 176 50 177 58 q 174 33 175 41 l 174 33 z m 219 276 l 219 276 q 265 307 242 282 q 302 369 287 331 q 317 452 317 407 l 317 452 q 301 508 317 489 q 265 527 284 527 l 265 527 l 242 402 q 231 342 237 373 q 219 276 225 310 z"},"q":{"ha":525,"x_min":31,"x_max":569,"o":"m 451 -48 l 451 -48 q 431 -19 441 -34 q 410 9 421 -5 l 410 9 q 389 38 399 23 q 368 68 378 53 l 368 68 l 363 76 q 181 -4 269 -4 l 181 -4 q 73 47 115 -4 q 31 201 31 98 l 31 201 q 45 321 31 258 q 84 445 59 384 q 142 558 109 506 l 142 558 q 264 695 195 642 q 409 748 333 748 l 409 748 q 502 718 469 748 q 547 640 534 687 q 560 541 560 592 l 560 541 q 536 361 560 443 q 474 212 512 278 l 474 212 l 569 100 q 547 72 558 86 q 525 44 536 58 l 525 44 q 487 -4 507 21 q 451 -48 466 -30 z m 235 161 l 235 161 q 299 180 271 161 l 299 180 l 259 246 q 297 275 280 262 q 324 296 313 287 l 324 296 q 343 312 335 305 q 356 322 351 318 l 356 322 l 370 334 l 392 309 q 413 385 405 346 q 421 457 421 424 l 421 457 q 418 492 421 473 q 405 524 415 510 q 374 538 395 538 l 374 538 q 291 505 328 538 q 229 420 254 471 l 229 420 q 192 318 204 368 q 180 227 180 268 l 180 227 q 195 184 180 206 q 235 161 210 161 z"},"r":{"ha":444,"x_min":4,"x_max":513,"o":"m 166 41 l 4 -1 l 56 259 q 82 407 68 331 q 109 557 96 483 q 128 696 121 631 l 128 696 q 251 723 185 714 q 382 731 317 731 l 382 731 q 486 698 458 731 q 513 609 513 665 l 513 609 q 489 507 513 558 q 427 414 465 455 q 342 348 388 372 l 342 348 q 381 261 360 308 q 419 170 401 213 l 419 170 q 440 120 429 145 q 460 70 450 95 l 460 70 l 305 16 l 269 136 q 242 233 254 186 q 227 298 229 279 l 227 298 l 214 294 q 208 260 211 278 q 200 219 204 241 l 200 219 q 192 177 196 197 q 184 136 188 156 l 184 136 l 166 41 z m 271 592 l 239 433 q 284 449 257 435 q 337 482 310 462 q 381 523 363 502 q 399 560 399 544 l 399 560 q 376 587 399 580 q 314 593 352 593 l 314 593 l 292 593 q 281 592 286 592 q 271 592 276 592 l 271 592 z"},"s":{"ha":430,"x_min":14,"x_max":517,"o":"m 171 -2 l 171 -2 q 91 20 131 -2 q 14 88 51 41 l 14 88 l 88 233 q 121 197 99 214 q 166 170 142 180 q 207 160 190 160 l 207 160 q 257 176 233 160 q 280 219 280 192 l 280 219 q 248 283 280 254 q 176 340 216 312 l 176 340 q 105 404 137 368 q 72 485 72 439 l 72 485 q 102 582 72 537 q 180 660 132 626 q 283 712 228 693 q 386 730 337 730 l 386 730 q 451 719 421 730 q 499 681 481 707 q 517 611 517 655 l 517 611 q 517 597 517 604 q 515 583 516 590 l 515 583 q 513 569 514 576 q 510 553 511 561 l 510 553 l 365 511 q 369 527 367 519 q 370 543 370 535 l 370 543 q 360 587 370 573 q 332 600 349 600 l 332 600 q 306 591 323 600 q 276 565 289 581 q 262 528 262 548 l 262 528 q 290 474 262 495 q 353 430 317 452 l 353 430 q 391 399 370 420 q 428 341 412 377 q 443 247 443 304 l 443 247 q 407 117 443 173 q 308 30 370 61 q 171 -2 246 -2 z"},"ß":{"ha":438,"x_min":5,"x_max":520,"o":"m 289 -10 l 289 -10 q 242 2 264 -10 q 199 40 219 14 l 199 40 l 229 186 q 250 147 236 161 q 276 132 264 132 l 276 132 q 294 142 287 132 q 301 176 301 152 l 301 176 q 293 225 301 205 q 274 265 284 244 q 255 315 263 285 q 246 392 246 344 l 246 392 q 260 453 246 425 q 295 504 274 480 q 335 545 315 527 q 369 577 355 563 q 383 601 383 591 l 383 601 q 358 617 383 611 l 358 617 q 323 621 345 619 q 268 622 300 622 l 268 622 q 236 433 253 537 q 201 222 218 329 q 170 20 184 115 l 170 20 q 124 18 151 20 q 70 12 97 15 q 25 5 43 8 q 5 1 6 2 l 5 1 q 27 99 15 44 q 50 214 38 153 l 50 214 q 76 354 63 282 q 101 498 88 425 l 101 498 l 142 742 q 327 733 254 742 q 443 706 400 723 l 443 706 q 503 666 486 688 q 520 616 520 643 l 520 616 q 501 533 520 567 q 456 474 482 498 q 410 428 430 449 q 386 385 389 407 l 386 385 l 386 383 q 395 338 386 358 q 416 295 404 317 q 437 245 428 273 q 446 175 446 216 l 446 175 q 432 86 446 128 q 384 17 418 43 q 289 -10 350 -10 z"},"t":{"ha":362,"x_min":90,"x_max":477,"o":"m 270 27 l 90 -1 q 113 109 101 54 q 134 216 124 163 l 134 216 q 196 580 172 406 l 196 580 q 173 583 185 582 q 150 582 161 583 l 150 582 q 103 588 126 580 l 103 588 q 104 606 104 596 q 104 625 104 615 l 104 625 q 104 647 104 636 q 105 667 104 657 l 105 667 q 106 691 106 678 q 107 716 106 703 l 107 716 q 159 713 133 714 q 211 712 185 712 l 211 712 q 353 717 285 712 q 477 729 420 722 l 477 729 l 466 675 l 457 628 q 448 587 452 602 l 448 587 q 426 582 437 584 q 404 579 415 580 l 404 579 q 382 576 393 578 q 359 572 370 574 l 359 572 q 335 444 344 498 q 318 341 325 390 q 300 232 310 291 l 300 232 q 270 27 283 131 l 270 27 z"},"u":{"ha":419,"x_min":31,"x_max":519,"o":"m 165 -18 l 165 -18 q 104 -5 135 -18 q 52 35 73 8 q 31 104 31 62 l 31 104 l 31 112 q 32 120 31 117 l 32 120 q 41 188 35 146 q 54 280 46 230 q 71 378 62 329 q 86 467 79 427 l 86 467 q 110 596 101 547 q 125 672 119 645 q 133 711 130 698 l 133 711 q 157 714 144 712 q 183 716 169 715 l 183 716 q 211 719 197 718 q 237 721 224 720 l 237 721 l 298 727 q 274 612 285 666 q 252 508 262 557 l 252 508 l 206 287 q 197 245 200 262 l 197 245 q 189 205 193 229 q 184 160 184 180 l 184 160 q 192 134 184 144 q 212 123 200 123 l 212 123 q 240 136 229 123 q 258 168 251 149 q 269 207 265 187 q 276 238 273 226 l 276 238 q 295 328 286 284 q 313 420 303 371 q 334 533 322 469 l 334 533 q 351 623 342 577 q 367 715 359 668 l 367 715 l 519 725 q 510 677 519 725 q 484 532 501 629 l 484 532 q 469 449 477 495 q 450 356 460 403 q 432 267 440 309 q 416 195 423 225 l 416 195 q 354 67 396 113 q 262 1 312 20 q 165 -18 211 -18 z"},"ú":{"ha":419,"x_min":31,"x_max":519,"o":"m 165 -18 l 165 -18 q 104 -5 135 -18 q 52 35 73 8 q 31 104 31 62 l 31 104 l 31 112 q 32 120 31 117 l 32 120 q 41 188 35 146 q 54 280 46 230 q 71 378 62 329 q 86 467 79 427 l 86 467 q 110 596 101 547 q 125 672 119 645 q 133 711 130 698 l 133 711 q 157 714 144 712 q 183 716 169 715 l 183 716 q 211 719 197 718 q 237 721 224 720 l 237 721 l 298 727 q 274 612 285 666 q 252 508 262 557 l 252 508 l 206 287 q 197 245 200 262 l 197 245 q 189 205 193 229 q 184 160 184 180 l 184 160 q 192 134 184 144 q 212 123 200 123 l 212 123 q 240 136 229 123 q 258 168 251 149 q 269 207 265 187 q 276 238 273 226 l 276 238 q 295 328 286 284 q 313 420 303 371 q 334 533 322 469 l 334 533 q 351 623 342 577 q 367 715 359 668 l 367 715 l 519 725 q 510 677 519 725 q 484 532 501 629 l 484 532 q 469 449 477 495 q 450 356 460 403 q 432 267 440 309 q 416 195 423 225 l 416 195 q 354 67 396 113 q 262 1 312 20 q 165 -18 211 -18 z m 253 736 l 253 736 q 252 747 252 741 q 252 756 252 752 l 252 756 l 252 774 q 252 791 252 782 q 253 807 252 799 l 253 807 l 253 841 q 319 907 287 876 q 381 964 351 937 l 381 964 q 439 1019 411 991 q 493 1075 467 1047 l 493 1075 q 499 950 498 1007 l 499 950 q 501 892 499 921 q 507 831 503 862 l 507 831 q 446 807 478 819 q 380 783 414 795 l 380 783 q 314 759 346 770 q 253 736 282 747 z"},"û":{"ha":419,"x_min":31,"x_max":529,"o":"m 165 -18 l 165 -18 q 104 -5 135 -18 q 52 35 73 8 q 31 104 31 62 l 31 104 l 31 112 q 32 120 31 117 l 32 120 q 41 188 35 146 q 54 280 46 230 q 71 378 62 329 q 86 467 79 427 l 86 467 q 110 596 101 547 q 125 672 119 645 q 133 711 130 698 l 133 711 q 157 714 144 712 q 183 716 169 715 l 183 716 q 211 719 197 718 q 237 721 224 720 l 237 721 l 298 727 q 274 612 285 666 q 252 508 262 557 l 252 508 l 206 287 q 197 245 200 262 l 197 245 q 189 205 193 229 q 184 160 184 180 l 184 160 q 192 134 184 144 q 212 123 200 123 l 212 123 q 240 136 229 123 q 258 168 251 149 q 269 207 265 187 q 276 238 273 226 l 276 238 q 295 328 286 284 q 313 420 303 371 q 334 533 322 469 l 334 533 q 351 623 342 577 q 367 715 359 668 l 367 715 l 519 725 q 510 677 519 725 q 484 532 501 629 l 484 532 q 469 449 477 495 q 450 356 460 403 q 432 267 440 309 q 416 195 423 225 l 416 195 q 354 67 396 113 q 262 1 312 20 q 165 -18 211 -18 z m 285 741 l 285 741 q 262 762 272 752 q 246 779 252 771 l 246 779 q 238 788 242 784 q 231 796 234 792 l 231 796 q 260 837 245 816 q 289 876 274 857 l 289 876 q 344 945 314 909 q 399 1007 373 981 l 399 1007 q 433 1003 419 1004 q 454 1002 446 1001 l 454 1002 q 471 1001 469 1003 l 471 1001 q 480 972 475 988 q 489 939 484 956 l 489 939 l 507 873 q 518 836 512 854 q 529 799 524 818 l 529 799 l 505 779 q 495 771 500 775 q 482 761 489 766 l 482 761 l 457 742 l 396 860 q 354 819 376 842 q 314 774 332 795 q 285 741 296 753 z"},"ü":{"ha":419,"x_min":31,"x_max":589,"o":"m 165 -18 l 165 -18 q 104 -5 135 -18 q 52 35 73 8 q 31 104 31 62 l 31 104 l 31 112 q 32 120 31 117 l 32 120 q 41 188 35 146 q 54 280 46 230 q 71 378 62 329 q 86 467 79 427 l 86 467 q 110 596 101 547 q 125 672 119 645 q 133 711 130 698 l 133 711 q 157 714 144 712 q 183 716 169 715 l 183 716 q 211 719 197 718 q 237 721 224 720 l 237 721 l 298 727 q 274 612 285 666 q 252 508 262 557 l 252 508 l 206 287 q 197 245 200 262 l 197 245 q 189 205 193 229 q 184 160 184 180 l 184 160 q 192 134 184 144 q 212 123 200 123 l 212 123 q 240 136 229 123 q 258 168 251 149 q 269 207 265 187 q 276 238 273 226 l 276 238 q 295 328 286 284 q 313 420 303 371 q 334 533 322 469 l 334 533 q 351 623 342 577 q 367 715 359 668 l 367 715 l 519 725 q 510 677 519 725 q 484 532 501 629 l 484 532 q 469 449 477 495 q 450 356 460 403 q 432 267 440 309 q 416 195 423 225 l 416 195 q 354 67 396 113 q 262 1 312 20 q 165 -18 211 -18 z m 482 814 l 482 814 q 422 841 442 814 q 402 900 402 867 l 402 900 q 426 962 402 935 q 493 989 449 989 l 493 989 q 565 964 541 989 q 589 908 589 939 l 589 908 q 562 844 589 874 q 482 814 534 814 z m 250 814 l 250 814 q 190 841 210 814 q 170 900 170 867 l 170 900 q 193 962 170 934 q 260 989 215 989 l 260 989 q 333 964 309 989 q 356 908 356 939 l 356 908 q 327 842 356 869 q 250 814 297 814 z"},"ù":{"ha":419,"x_min":31,"x_max":519,"o":"m 165 -18 l 165 -18 q 104 -5 135 -18 q 52 35 73 8 q 31 104 31 62 l 31 104 l 31 112 q 32 120 31 117 l 32 120 q 41 188 35 146 q 54 280 46 230 q 71 378 62 329 q 86 467 79 427 l 86 467 q 110 596 101 547 q 125 672 119 645 q 133 711 130 698 l 133 711 q 157 714 144 712 q 183 716 169 715 l 183 716 q 211 719 197 718 q 237 721 224 720 l 237 721 l 298 727 q 274 612 285 666 q 252 508 262 557 l 252 508 l 206 287 q 197 245 200 262 l 197 245 q 189 205 193 229 q 184 160 184 180 l 184 160 q 192 134 184 144 q 212 123 200 123 l 212 123 q 240 136 229 123 q 258 168 251 149 q 269 207 265 187 q 276 238 273 226 l 276 238 q 295 328 286 284 q 313 420 303 371 q 334 533 322 469 l 334 533 q 351 623 342 577 q 367 715 359 668 l 367 715 l 519 725 q 510 677 519 725 q 484 532 501 629 l 484 532 q 469 449 477 495 q 450 356 460 403 q 432 267 440 309 q 416 195 423 225 l 416 195 q 354 67 396 113 q 262 1 312 20 q 165 -18 211 -18 z m 457 822 l 450 741 q 400 753 425 747 q 352 765 375 759 l 352 765 q 268 786 311 774 q 196 806 225 797 l 196 806 q 210 877 202 835 q 225 957 218 918 l 225 957 l 243 1051 q 283 1010 263 1030 q 321 969 302 989 l 321 969 q 392 894 354 934 q 457 822 429 854 l 457 822 z"},"v":{"ha":379,"x_min":59,"x_max":499,"o":"m 318 30 l 59 -9 q 72 130 66 61 q 83 266 78 199 l 83 266 q 101 506 94 388 q 109 727 107 624 l 109 727 q 226 731 187 727 q 265 734 265 734 l 265 734 q 255 629 260 676 q 246 544 250 581 l 246 544 l 234 423 q 226 330 229 368 q 219 260 222 292 q 211 190 216 228 l 211 190 l 229 190 l 341 722 l 396 725 q 422 727 409 726 q 449 728 435 727 l 449 728 q 476 730 463 729 q 499 732 488 731 l 499 732 q 461 600 480 673 q 422 449 441 527 q 382 295 402 371 l 382 295 q 350 165 366 231 q 318 30 334 98 l 318 30 z"},"w":{"ha":601,"x_min":41,"x_max":724,"o":"m 249 33 l 41 -4 l 117 706 q 163 710 140 707 q 206 716 185 712 l 206 716 q 247 723 226 720 q 288 726 268 725 l 288 726 l 285 706 q 282 684 284 696 q 277 655 279 671 l 277 655 q 265 575 272 620 q 249 475 258 530 l 249 475 q 236 393 243 441 q 218 284 228 345 l 218 284 l 233 284 q 257 368 246 330 q 276 435 268 406 l 276 435 q 292 488 284 464 q 304 530 299 511 l 304 530 q 338 651 325 604 q 355 712 351 698 l 355 712 l 364 712 q 419 716 390 712 q 470 725 447 720 l 470 725 q 466 692 469 721 q 459 621 463 663 q 451 534 455 579 l 451 534 q 439 386 444 449 q 429 284 433 323 l 429 284 l 447 284 l 542 714 l 609 723 q 638 727 623 725 q 669 731 653 729 l 669 731 q 724 740 698 735 l 724 740 q 664 542 694 656 q 604 311 634 428 l 604 311 q 573 182 588 247 q 542 48 557 116 l 542 48 l 316 10 l 360 396 l 348 396 l 249 33 z"},"x":{"ha":411,"x_min":-36,"x_max":521,"o":"m 234 -10 l 234 -10 q 232 30 233 10 q 229 68 230 49 l 229 68 q 227 102 228 85 q 225 134 226 118 l 225 134 q 223 165 224 151 q 221 189 222 178 l 221 189 l 198 134 q 184 102 191 118 q 169 69 176 85 l 169 69 q 152 32 161 50 q 134 -6 143 13 l 134 -6 l -36 9 q 14 98 -11 53 q 64 185 39 142 l 64 185 q 112 275 89 229 q 156 367 135 320 l 156 367 q 145 447 150 412 q 132 516 139 482 l 132 516 q 117 586 125 548 q 101 663 109 623 l 101 663 l 261 729 q 273 625 266 681 l 273 625 q 279 571 276 597 q 284 520 282 544 l 284 520 l 330 620 q 353 670 341 645 q 376 719 364 694 l 376 719 l 521 680 q 460 573 486 621 q 409 476 433 525 q 355 364 385 427 l 355 364 q 387 203 366 288 q 426 46 408 118 l 426 46 q 402 40 424 45 q 343 23 380 34 l 343 23 q 278 5 307 13 q 234 -10 248 -4 z"},"y":{"ha":384,"x_min":77,"x_max":522,"o":"m 248 36 l 77 15 l 123 216 q 120 362 123 287 q 111 510 116 436 l 111 510 q 104 629 107 584 q 100 674 100 674 l 100 674 l 263 736 l 263 614 q 263 510 263 556 q 262 428 262 463 l 262 428 q 294 512 275 462 q 328 609 312 562 l 328 609 q 348 666 338 637 q 367 725 357 694 l 367 725 l 522 690 q 438 519 479 605 l 438 519 q 386 408 414 466 q 333 299 357 349 q 294 218 308 248 l 294 218 q 282 161 289 192 q 267 102 274 130 l 267 102 q 258 70 263 86 q 248 36 253 53 l 248 36 z"},"ý":{"ha":384,"x_min":77,"x_max":522,"o":"m 248 36 l 77 15 l 123 216 q 120 362 123 287 q 111 510 116 436 l 111 510 q 104 629 107 584 q 100 674 100 674 l 100 674 l 263 736 l 263 614 q 263 510 263 556 q 262 428 262 463 l 262 428 q 294 512 275 462 q 328 609 312 562 l 328 609 q 348 666 338 637 q 367 725 357 694 l 367 725 l 522 690 q 438 519 479 605 l 438 519 q 386 408 414 466 q 333 299 357 349 q 294 218 308 248 l 294 218 q 282 161 289 192 q 267 102 274 130 l 267 102 q 258 70 263 86 q 248 36 253 53 l 248 36 z m 193 755 l 193 755 q 192 766 192 760 q 192 775 192 771 l 192 775 l 192 793 q 192 810 192 801 q 193 826 192 818 l 193 826 l 193 860 q 259 926 227 895 q 321 983 291 956 l 321 983 q 379 1038 351 1010 q 433 1094 407 1066 l 433 1094 q 439 969 438 1026 l 439 969 q 441 911 439 940 q 447 850 443 881 l 447 850 q 386 826 418 838 q 320 802 354 814 l 320 802 q 254 778 286 789 q 193 755 222 766 z"},"ÿ":{"ha":384,"x_min":77,"x_max":529,"o":"m 248 36 l 77 15 l 123 216 q 120 362 123 287 q 111 510 116 436 l 111 510 q 104 629 107 584 q 100 674 100 674 l 100 674 l 263 736 l 263 614 q 263 510 263 556 q 262 428 262 463 l 262 428 q 294 512 275 462 q 328 609 312 562 l 328 609 q 348 666 338 637 q 367 725 357 694 l 367 725 l 522 690 q 438 519 479 605 l 438 519 q 386 408 414 466 q 333 299 357 349 q 294 218 308 248 l 294 218 q 282 161 289 192 q 267 102 274 130 l 267 102 q 258 70 263 86 q 248 36 253 53 l 248 36 z m 422 833 l 422 833 q 362 860 382 833 q 342 919 342 886 l 342 919 q 366 981 342 954 q 433 1008 389 1008 l 433 1008 q 505 983 481 1008 q 529 927 529 958 l 529 927 q 502 863 529 893 q 422 833 474 833 z m 190 833 l 190 833 q 130 860 150 833 q 110 919 110 886 l 110 919 q 133 981 110 953 q 200 1008 155 1008 l 200 1008 q 273 983 249 1008 q 296 927 296 958 l 296 927 q 267 861 296 888 q 190 833 237 833 z"},"z":{"ha":431,"x_min":9,"x_max":532,"o":"m 9 9 l 9 9 l 9 155 l 293 542 q 237 539 271 542 q 173 531 203 535 q 128 523 142 526 l 128 523 l 104 521 l 123 678 l 532 707 l 506 569 l 233 181 q 280 183 247 181 q 354 187 312 184 q 434 192 395 189 l 434 192 l 434 40 q 373 38 422 40 q 239 31 323 36 l 239 31 q 102 21 163 26 q 9 9 41 15 z"},"ª":{"ha":433,"x_min":-21,"x_max":464,"o":"m 259 2 l 259 2 q 263 35 261 19 q 267 67 265 51 l 267 67 l 273 123 q 275 149 274 137 q 277 171 276 161 l 277 171 l 190 171 l 150 27 q 98 21 128 24 q 42 14 68 17 l 42 14 q 11 10 26 12 q -21 6 -5 8 l -21 6 l 58 268 q 90 375 72 315 q 127 498 108 435 q 162 617 145 561 q 188 710 178 672 l 188 710 q 327 722 256 715 q 464 741 397 729 l 464 741 q 455 615 459 685 q 447 469 450 544 q 439 321 443 394 l 439 321 q 434 179 437 252 q 428 28 431 105 l 428 28 q 398 24 413 26 q 368 20 383 22 l 368 20 q 313 11 343 16 q 259 2 283 6 z m 276 522 l 214 271 q 237 272 220 271 q 268 274 253 273 q 286 275 283 275 l 286 275 q 290 328 286 288 q 298 412 294 368 l 298 412 q 303 466 300 438 q 308 522 305 493 l 308 522 l 314 609 l 299 608 l 276 522 z"},"º":{"ha":481,"x_min":31,"x_max":560,"o":"m 181 -4 l 181 -4 q 73 47 115 -4 q 31 201 31 98 l 31 201 q 45 321 31 258 q 84 445 59 384 q 142 558 109 506 l 142 558 q 264 695 195 642 q 409 748 333 748 l 409 748 q 502 718 469 748 q 547 640 534 687 q 560 541 560 592 l 560 541 q 524 320 560 422 q 429 146 487 217 l 429 146 q 306 35 371 73 q 181 -4 240 -4 z m 235 161 l 235 161 q 315 191 280 161 q 373 268 349 221 q 409 365 397 314 q 421 457 421 416 l 421 457 q 418 492 421 473 q 405 524 415 510 q 374 538 395 538 l 374 538 q 291 505 328 538 q 229 420 254 471 l 229 420 q 192 318 204 368 q 180 227 180 268 l 180 227 q 195 184 180 206 q 235 161 210 161 z"},"½":{"ha":1164,"x_min":80,"x_max":1188,"o":"m 119 157 l 119 157 l 146 290 q 172 416 158 348 q 196 547 186 484 l 196 547 q 174 545 185 546 q 151 542 162 544 l 151 542 q 133 540 142 541 q 114 537 124 539 l 114 537 q 96 535 104 536 q 80 532 87 533 l 80 532 q 86 568 82 543 q 92 617 89 592 l 92 617 q 96 647 94 631 q 100 679 98 663 l 100 679 q 127 684 111 681 q 161 689 142 687 l 161 689 q 251 702 195 694 q 389 721 306 710 l 389 721 q 366 602 378 665 q 342 471 354 539 l 342 471 q 317 332 330 402 q 290 190 304 261 l 290 190 q 240 179 269 185 q 184 168 210 173 l 184 168 q 152 162 168 165 q 119 157 135 159 z m 432 -29 l 432 -29 l 266 10 q 358 137 298 52 q 495 333 417 221 l 495 333 q 568 439 529 382 q 644 553 606 495 q 715 663 681 610 q 773 756 748 715 l 773 756 q 807 743 784 749 q 857 734 830 737 q 906 728 883 730 q 937 724 928 725 l 937 724 q 789 503 870 624 q 625 258 708 381 l 625 258 q 530 117 578 188 q 432 -29 482 45 z m 715 -7 l 715 -7 l 732 91 q 782 163 738 126 q 880 236 825 199 l 880 236 q 947 282 915 260 q 998 322 978 303 q 1017 355 1017 341 l 1017 355 q 1006 390 1017 377 q 978 403 994 403 l 978 403 q 931 382 944 403 q 918 341 918 361 l 918 341 l 918 332 q 919 329 918 330 l 919 329 l 871 326 q 824 322 850 324 q 772 317 797 319 l 772 317 q 771 329 771 323 q 770 341 770 335 l 770 341 q 791 423 770 387 q 845 483 811 458 q 919 521 878 508 q 1001 534 960 534 l 1001 534 q 1092 518 1049 534 q 1161 467 1134 501 q 1188 379 1188 433 l 1188 379 q 1150 281 1188 328 q 1044 191 1111 234 q 893 107 977 148 l 893 107 q 980 109 933 107 q 1100 115 1027 111 l 1100 115 l 1083 3 q 1021 1 1061 2 q 938 -1 981 0 q 861 -3 894 -2 l 861 -3 q 790 -5 826 -4 q 715 -7 753 -6 z"},"¼":{"ha":1084,"x_min":102,"x_max":1092,"o":"m 390 -29 l 390 -29 l 224 10 q 281 90 246 40 q 360 202 316 139 q 452 333 404 264 l 452 333 q 601 553 528 443 q 730 756 674 663 l 730 756 q 764 743 741 749 q 813 734 787 737 q 862 728 839 730 q 895 724 884 725 l 895 724 q 731 480 807 595 q 582 258 654 364 l 582 258 q 487 117 535 188 q 390 -29 439 45 z m 141 157 l 141 157 l 168 290 q 194 416 180 348 q 218 547 207 484 l 218 547 q 195 545 206 546 q 173 542 184 544 l 173 542 q 135 537 154 540 q 102 532 115 534 l 102 532 q 107 568 104 543 q 113 617 110 592 l 113 617 q 117 647 115 631 q 121 679 119 663 l 121 679 q 148 684 132 681 q 183 689 164 687 l 183 689 q 410 721 248 699 l 410 721 q 388 602 399 665 q 364 471 376 539 l 364 471 q 339 332 352 402 q 312 190 326 261 l 312 190 q 261 179 290 185 q 205 168 231 173 l 205 168 q 173 162 189 165 q 141 157 157 159 z m 993 -18 l 831 -42 l 851 79 l 683 68 l 639 137 q 671 209 655 174 q 700 278 686 244 l 700 278 q 755 407 730 347 q 794 494 780 466 l 794 494 q 872 496 835 494 q 951 502 909 497 l 951 502 q 884 363 914 433 q 823 219 853 292 l 823 219 q 818 201 822 210 l 818 201 l 889 201 q 899 247 891 214 q 917 317 907 280 l 917 317 l 940 414 q 994 420 969 417 l 994 420 q 1018 423 1005 421 q 1043 425 1030 424 l 1043 425 q 1068 427 1056 426 q 1090 429 1080 428 l 1090 429 q 1080 381 1087 412 q 1063 314 1072 349 q 1047 248 1054 278 q 1037 201 1040 217 l 1037 201 l 1092 201 l 1052 81 l 1002 81 l 993 -18 z"},"¾":{"ha":1130,"x_min":63,"x_max":1138,"o":"m 452 -29 l 452 -29 l 286 10 q 378 136 318 52 q 515 333 438 220 l 515 333 q 615 480 565 406 q 710 625 664 554 q 793 756 756 695 l 793 756 q 827 743 804 749 q 875 734 849 737 q 924 728 901 730 q 957 724 946 725 l 957 724 q 809 503 890 624 q 645 258 728 381 l 645 258 q 550 117 598 188 q 452 -29 502 45 z m 204 143 l 204 143 q 103 168 143 143 q 63 251 63 192 l 63 251 q 71 291 63 270 l 71 291 l 231 299 q 238 277 231 283 q 254 270 244 270 l 254 270 q 292 288 271 270 q 313 332 313 306 l 313 332 q 292 368 313 352 q 223 383 271 383 l 223 383 q 187 382 205 383 q 152 379 169 381 l 152 379 q 95 373 118 375 l 95 373 l 110 490 q 180 529 144 508 q 245 568 215 550 l 245 568 q 280 590 262 579 q 313 610 297 600 l 313 610 l 127 607 l 138 725 q 212 728 176 727 q 279 730 247 729 l 279 730 q 351 733 314 732 q 418 735 387 734 q 467 736 449 736 l 467 736 l 445 568 l 293 484 q 416 437 376 473 q 455 351 455 400 l 455 351 q 435 277 455 314 q 379 210 414 240 q 299 162 344 180 q 204 143 254 143 z m 1039 -18 l 877 -42 l 896 79 l 729 68 l 685 137 q 717 209 701 174 q 746 278 732 244 l 746 278 q 801 407 776 347 q 840 494 826 466 l 840 494 q 918 496 881 494 q 997 502 955 497 l 997 502 q 929 363 960 433 q 869 219 898 292 l 869 219 q 864 201 868 210 l 864 201 l 935 201 q 940 223 936 205 q 950 266 943 240 q 963 317 956 291 l 963 317 l 986 414 q 1040 420 1015 417 l 1040 420 q 1064 423 1051 421 q 1089 425 1076 424 l 1089 425 q 1114 427 1102 426 q 1136 429 1126 428 l 1136 429 q 1126 381 1133 412 q 1109 314 1118 349 q 1093 248 1100 278 q 1083 201 1086 217 l 1083 201 l 1138 201 l 1098 81 l 1048 81 l 1039 -18 z"},"¹":{"ha":317,"x_min":80,"x_max":389,"o":"m 119 157 l 119 157 l 146 290 q 172 416 158 348 q 196 547 186 484 l 196 547 q 174 545 185 546 q 151 542 162 544 l 151 542 q 133 540 142 541 q 114 537 124 539 l 114 537 q 96 535 104 536 q 80 532 87 533 l 80 532 q 86 568 82 543 q 92 617 89 592 l 92 617 q 96 647 94 631 q 100 679 98 663 l 100 679 q 127 684 111 681 q 161 689 142 687 l 161 689 q 251 702 195 694 q 389 721 306 710 l 389 721 q 366 602 378 665 q 342 471 354 539 l 342 471 q 317 332 330 402 q 290 190 304 261 l 290 190 q 240 179 269 185 q 184 168 210 173 l 184 168 q 152 162 168 165 q 119 157 135 159 z"},"²":{"ha":435,"x_min":42,"x_max":515,"o":"m 42 188 l 42 188 l 59 286 q 109 358 65 321 q 207 431 152 394 l 207 431 q 274 477 242 455 q 325 517 305 498 q 344 550 344 536 l 344 550 q 333 585 344 572 q 305 598 321 598 l 305 598 q 258 577 271 598 q 245 536 245 556 l 245 536 l 245 527 q 246 524 245 525 l 246 524 l 198 521 q 151 517 177 519 q 99 512 124 514 l 99 512 q 98 524 98 518 q 97 536 97 530 l 97 536 q 118 618 97 582 q 172 678 138 653 q 246 716 205 703 q 328 729 287 729 l 328 729 q 419 713 376 729 q 488 662 461 696 q 515 574 515 628 l 515 574 q 477 476 515 523 q 371 386 438 429 q 220 302 304 343 l 220 302 q 307 304 260 302 q 427 310 354 306 l 427 310 l 410 198 q 348 196 388 197 q 265 194 308 195 q 188 192 221 193 l 188 192 q 117 190 153 191 q 42 188 80 189 z"},"³":{"ha":400,"x_min":48,"x_max":451,"o":"m 188 143 l 188 143 q 88 168 127 143 q 48 251 48 192 l 48 251 q 56 291 48 270 l 56 291 l 216 299 q 223 277 216 283 q 238 270 229 270 l 238 270 q 278 290 258 270 q 298 332 298 309 l 298 332 q 277 368 298 352 q 207 383 255 383 l 207 383 q 172 382 189 383 q 137 379 154 381 l 137 379 q 79 373 104 375 l 79 373 l 95 490 q 164 529 128 508 q 229 568 199 550 l 229 568 q 298 610 265 591 l 298 610 l 111 607 l 122 725 q 196 728 160 727 q 264 730 231 729 l 264 730 q 335 733 298 732 q 402 735 371 734 q 451 736 433 736 l 451 736 l 430 568 l 277 484 q 401 435 363 472 q 439 351 439 398 l 439 351 q 419 277 439 314 q 363 210 398 240 q 283 162 328 180 q 188 143 238 143 z"}," ":{"ha":195,"x_min":0,"x_max":0,"o":""}," ":{"ha":195,"x_min":0,"x_max":0,"o":""},".":{"ha":209,"x_min":-8,"x_max":208,"o":"m 80 -23 l 80 -23 q 31 -8 50 -23 q 2 28 11 6 q -8 71 -8 49 l -8 71 q 19 141 -8 111 q 92 170 45 170 l 92 170 q 179 143 150 170 q 208 80 208 115 l 208 80 q 175 9 208 40 q 80 -23 142 -23 z"},",":{"ha":197,"x_min":-34,"x_max":205,"o":"m 123 -111 l -34 -111 q -12 -5 -24 -60 q 10 99 0 50 q 24 180 20 148 l 24 180 l 50 180 q 65 179 58 179 q 76 179 72 179 l 76 179 q 124 180 106 179 q 159 181 141 180 q 205 182 176 181 l 205 182 q 169 39 191 115 q 123 -111 146 -37 l 123 -111 z"},":":{"ha":195,"x_min":20,"x_max":255,"o":"m 84 336 l 72 336 q 81 392 76 364 q 89 446 85 419 l 89 446 q 98 499 94 472 q 106 553 102 526 l 106 553 q 181 559 144 553 q 255 576 218 565 l 255 576 q 231 459 241 518 q 212 340 221 399 l 212 340 q 148 337 180 338 q 84 336 115 336 l 84 336 z m 20 42 l 20 42 q 40 153 31 98 q 57 264 49 208 l 57 264 q 102 266 79 265 q 146 266 124 266 l 146 266 l 173 266 q 186 266 180 266 q 199 265 192 266 l 199 265 q 191 215 195 240 q 182 165 186 190 l 182 165 q 174 115 178 140 q 166 64 170 89 l 166 64 q 93 58 129 63 q 20 42 56 53 z"},";":{"ha":262,"x_min":19,"x_max":290,"o":"m 109 336 l 98 336 q 106 392 102 364 q 114 446 110 419 l 114 446 l 132 553 q 208 554 164 553 q 290 557 251 554 l 290 557 q 281 477 286 510 q 269 413 275 444 q 257 340 263 382 l 257 340 q 174 337 216 338 q 109 336 132 336 l 109 336 z m 176 -26 l 19 -26 q 52 128 33 50 q 77 265 70 206 l 77 265 l 103 265 q 118 264 111 264 q 129 264 125 264 l 129 264 q 176 265 159 264 q 210 266 192 265 q 258 267 227 266 l 258 267 q 237 179 249 222 q 210 88 225 136 q 176 -26 195 39 l 176 -26 z"},"!":{"ha":263,"x_min":-4,"x_max":389,"o":"m 86 231 l 86 231 q 117 354 102 293 q 147 476 132 415 l 147 476 q 177 599 161 537 q 208 721 192 660 l 208 721 q 312 736 265 730 q 389 747 359 742 l 389 747 q 291 494 335 621 q 202 237 246 366 l 202 237 q 144 235 173 237 q 86 231 115 233 z m 84 -23 l 84 -23 q 35 -8 54 -23 q 6 28 15 6 q -4 71 -4 49 l -4 71 q 23 141 -4 111 q 96 170 49 170 l 96 170 q 183 143 154 170 q 212 80 212 115 l 212 80 q 179 9 212 40 q 84 -23 146 -23 z"},"¡":{"ha":264,"x_min":-72,"x_max":321,"o":"m 231 518 l 231 518 q 200 396 215 457 q 170 273 185 334 l 170 273 q 141 151 156 212 q 109 28 125 90 l 109 28 q 5 13 52 19 q -72 2 -42 7 l -72 2 q 27 256 -18 128 q 115 512 71 383 l 115 512 q 173 514 144 512 q 231 518 202 516 z m 233 772 l 233 772 q 283 758 263 772 q 312 722 302 743 q 321 678 321 700 l 321 678 q 295 609 321 638 q 221 579 268 579 l 221 579 q 134 607 163 579 q 105 669 105 634 l 105 669 q 139 741 105 709 q 233 772 172 772 z"},"?":{"ha":438,"x_min":96,"x_max":512,"o":"m 267 248 l 149 236 q 165 333 149 290 q 204 408 180 375 q 253 465 228 441 l 253 465 q 323 530 291 502 q 355 580 355 558 l 355 580 q 347 597 355 586 q 322 607 339 607 l 322 607 q 276 592 304 607 q 218 555 248 577 q 162 508 188 532 l 162 508 l 109 631 q 224 704 160 677 q 354 730 288 730 l 354 730 q 431 718 395 730 q 490 678 467 706 q 512 602 512 650 l 512 602 q 480 488 512 533 q 404 410 447 442 l 404 410 q 320 339 359 377 q 267 248 280 301 l 267 248 z m 174 -23 l 174 -23 q 115 2 134 -23 q 96 60 96 26 l 96 60 q 109 111 96 86 q 147 153 122 136 q 208 170 172 170 l 208 170 q 289 146 263 170 q 314 91 314 122 l 314 91 q 298 37 314 63 q 250 -6 281 10 q 174 -23 218 -23 z"},"¿":{"ha":439,"x_min":27,"x_max":443,"o":"m 272 462 l 390 474 q 375 378 390 421 q 335 302 359 335 q 286 245 311 269 l 286 245 q 216 181 248 208 q 184 130 184 153 l 184 130 q 192 114 184 124 q 217 103 200 103 l 217 103 q 264 118 236 103 q 321 156 291 133 q 377 202 351 179 l 377 202 l 430 79 q 315 7 379 33 q 185 -20 251 -20 l 185 -20 q 108 -8 144 -20 q 50 33 72 4 q 27 108 27 61 l 27 108 q 60 223 27 177 q 135 300 92 268 l 135 300 q 220 371 180 333 q 272 462 259 409 l 272 462 z m 365 733 l 365 733 q 424 709 405 733 q 443 650 443 684 l 443 650 q 430 600 443 625 q 393 557 417 574 q 331 540 368 540 l 331 540 q 251 564 276 540 q 225 619 225 588 l 225 619 q 242 674 225 648 q 290 717 258 700 q 365 733 321 733 z"},"·":{"ha":214,"x_min":49,"x_max":265,"o":"m 137 281 l 137 281 q 88 296 107 281 q 59 332 68 310 q 49 375 49 353 l 49 375 q 76 445 49 415 q 149 474 102 474 l 149 474 q 236 447 207 474 q 265 384 265 419 l 265 384 q 232 313 265 344 q 137 281 199 281 z"},"*":{"ha":423,"x_min":76,"x_max":469,"o":"m 415 270 l 289 221 l 259 349 l 188 224 l 76 273 l 171 383 l 76 377 l 90 496 l 197 485 l 132 604 l 239 669 l 292 523 l 373 668 l 466 597 l 369 489 l 469 501 l 461 370 l 342 387 l 415 270 z"},"#":{"ha":626,"x_min":44,"x_max":689,"o":"m 59 -5 l 59 -5 q 81 68 70 31 q 102 140 92 104 l 102 140 q 90 140 97 140 q 73 139 82 140 l 73 139 q 57 138 64 138 q 44 138 49 138 l 44 138 l 62 303 q 84 304 68 303 q 117 306 100 305 q 138 307 133 307 l 138 307 q 143 333 140 314 q 149 371 146 351 q 153 398 152 390 l 153 398 l 85 398 l 89 433 q 91 456 90 444 q 93 479 92 468 l 93 479 l 99 538 l 178 543 q 190 608 185 575 l 190 608 q 195 636 192 622 q 200 664 198 650 l 200 664 q 205 690 202 678 q 209 711 207 701 l 209 711 q 274 717 238 713 q 369 724 309 721 l 369 724 q 364 704 367 716 q 358 678 361 692 l 358 678 l 346 619 q 331 547 339 585 l 331 547 l 440 553 q 448 589 444 571 q 456 622 452 606 l 456 622 l 471 680 q 478 706 475 694 q 482 726 480 718 l 482 726 q 559 732 521 728 q 636 741 597 736 l 636 741 q 630 721 633 733 q 622 694 626 709 l 622 694 q 614 664 618 678 q 606 635 610 649 l 606 635 q 598 600 602 618 q 589 563 594 582 l 589 563 l 689 567 l 677 515 q 667 465 672 492 q 657 411 661 437 l 657 411 l 553 405 q 547 374 549 385 q 542 350 544 362 q 535 314 540 337 l 535 314 l 645 321 q 631 240 638 282 q 619 158 624 197 l 619 158 q 611 159 614 158 l 611 159 l 598 159 q 547 158 570 159 q 510 157 523 157 l 510 157 q 503 123 506 140 q 498 89 500 106 l 498 89 q 493 55 496 72 q 486 21 490 38 l 486 21 q 405 23 445 22 q 325 23 365 23 l 325 23 l 343 90 q 352 123 348 106 q 359 156 355 139 l 359 156 q 338 155 353 156 q 303 153 322 154 q 270 150 284 151 q 250 149 255 149 l 250 149 q 237 80 244 114 q 222 11 230 45 l 222 11 q 141 6 181 9 q 59 -5 100 2 z m 305 398 l 284 307 q 351 310 325 307 q 386 313 376 313 l 386 313 q 394 329 391 313 q 401 367 397 345 q 410 404 405 388 l 410 404 q 337 401 363 404 q 305 398 310 398 l 305 398 z"},"/":{"ha":551,"x_min":-11,"x_max":660,"o":"m 155 -29 l 155 -29 l -11 10 q 81 137 21 52 q 218 333 140 221 l 218 333 q 291 439 252 382 q 367 553 329 495 q 438 663 404 610 q 496 756 471 715 l 496 756 q 530 743 507 749 q 580 734 553 737 q 629 728 606 730 q 660 724 651 725 l 660 724 q 512 503 593 624 q 348 258 431 381 l 348 258 q 253 117 301 188 q 155 -29 205 45 z"},"\\":{"ha":510,"x_min":127,"x_max":485,"o":"m 323 1 l 323 1 q 228 353 280 168 q 127 722 175 538 l 127 722 l 128 722 q 141 724 133 722 q 156 726 149 725 l 156 726 q 183 730 170 728 q 207 734 195 732 l 207 734 q 250 743 228 738 q 285 754 271 748 l 285 754 q 340 555 313 658 q 395 352 367 452 l 395 352 q 447 161 424 241 q 485 32 469 80 l 485 32 q 463 27 479 30 q 430 21 446 23 l 430 21 q 410 18 420 19 q 388 14 399 16 l 388 14 l 366 10 q 356 8 361 9 q 345 6 350 7 l 345 6 q 334 4 340 5 q 323 1 328 2 z"},"-":{"ha":360,"x_min":41,"x_max":399,"o":"m 399 417 l 365 238 q 262 241 310 240 q 180 242 213 242 l 180 242 q 111 241 148 242 q 41 239 74 239 l 41 239 l 89 416 q 169 414 131 415 q 232 412 207 412 l 232 412 q 314 413 270 412 q 399 417 357 414 l 399 417 z"},"_":{"ha":401,"x_min":-53,"x_max":390,"o":"m 368 -109 l 368 -109 q 248 -107 310 -109 q 136 -106 185 -106 l 136 -106 q 42 -106 89 -106 q -53 -108 -6 -107 l -53 -108 q -44 -78 -48 -97 q -37 -41 -40 -60 l -37 -41 q -33 -20 -35 -31 q -30 3 -31 -9 l -30 3 q 64 1 28 2 q 128 0 100 0 q 188 0 155 0 l 188 0 q 289 1 239 0 q 390 4 339 2 l 390 4 q 377 -49 383 -16 q 368 -109 370 -83 z"},"(":{"ha":334,"x_min":43,"x_max":479,"o":"m 356 -18 l 226 -137 q 97 1 147 -98 l 97 1 q 58 114 72 51 q 43 251 43 176 l 43 251 q 122 589 43 426 q 353 877 200 752 l 353 877 l 479 758 q 389 672 437 722 q 300 560 340 622 l 300 560 q 234 422 260 497 q 207 259 207 346 l 207 259 q 221 169 207 213 q 258 88 235 125 q 306 23 280 50 q 356 -18 332 -5 l 356 -18 z"},")":{"ha":331,"x_min":-57,"x_max":392,"o":"m 34 -137 l 34 -137 l -57 2 q 59 84 9 31 q 141 203 108 136 q 190 342 173 270 q 206 480 206 413 l 206 480 q 178 646 206 572 q 96 760 150 720 l 96 760 l 253 877 q 358 701 323 798 q 392 498 392 604 l 392 498 q 370 318 392 404 q 311 158 348 232 q 227 25 273 84 q 130 -76 180 -35 q 34 -137 80 -117 z"},"{":{"ha":281,"x_min":34,"x_max":359,"o":"m 295 152 l 242 7 q 149 85 186 36 q 112 205 112 134 l 112 205 q 108 265 112 237 q 87 312 103 293 q 34 334 70 330 l 34 334 l 52 449 l 60 449 q 111 464 93 449 q 137 503 128 478 q 152 559 146 528 l 152 559 q 173 621 158 589 l 173 621 q 218 681 188 652 q 302 731 247 710 l 302 731 l 359 584 q 289 553 310 580 q 259 491 268 525 l 259 491 q 234 426 250 457 q 177 384 218 395 l 177 384 q 222 341 212 371 q 231 266 231 311 l 231 266 l 231 230 q 252 183 231 206 q 295 152 273 160 l 295 152 z"},"}":{"ha":273,"x_min":19,"x_max":345,"o":"m 30 7 l 30 7 l 19 143 q 88 170 57 151 q 123 230 118 188 l 123 230 q 134 286 126 257 q 158 339 142 315 q 201 374 174 363 l 201 374 q 160 425 167 388 q 153 502 152 461 l 153 502 q 142 576 155 544 q 85 613 129 607 l 85 613 l 174 731 q 242 683 221 711 q 269 624 263 655 q 274 564 274 593 l 274 564 l 274 538 q 273 525 273 531 q 273 514 273 519 l 273 514 q 285 460 273 480 q 337 439 296 439 l 337 439 l 345 439 l 330 324 q 263 284 283 318 q 234 195 242 250 l 234 195 q 199 109 228 149 q 125 42 169 69 q 30 7 81 15 z"},"[":{"ha":319,"x_min":21,"x_max":454,"o":"m 21 -5 l 21 -5 q 50 124 35 59 q 77 256 64 189 l 77 256 q 113 430 97 349 q 143 590 128 511 q 173 753 158 669 l 173 753 l 179 753 q 213 755 193 753 q 256 757 233 756 l 256 757 q 292 759 274 758 q 327 761 310 760 l 327 761 q 392 767 357 763 q 454 777 426 771 l 454 777 q 447 748 450 763 q 440 718 444 733 l 440 718 q 433 688 436 703 q 426 659 429 673 l 426 659 q 413 658 419 658 q 401 658 407 658 l 401 658 l 319 658 q 292 510 304 576 q 269 388 279 444 l 269 388 q 262 350 265 369 q 255 311 259 331 l 255 311 q 239 222 248 273 q 222 115 230 171 l 222 115 q 294 123 267 115 q 321 130 321 131 l 321 130 l 296 25 q 235 18 267 21 q 168 11 203 15 l 168 11 q 96 4 133 7 q 21 -5 59 0 z"},"]":{"ha":313,"x_min":-20,"x_max":400,"o":"m -20 -29 l -20 -29 q -17 -7 -19 -18 q -15 15 -16 4 l -15 15 q -9 53 -13 33 q -3 89 -6 73 l -3 89 q 32 96 10 92 q 73 103 53 100 l 73 103 q 99 107 86 105 q 124 110 111 108 l 124 110 l 215 621 l 101 608 l 109 724 l 400 761 q 373 634 386 698 q 346 504 359 569 l 346 504 q 316 354 332 439 q 283 178 299 268 q 254 5 267 87 l 254 5 q 202 -1 240 4 q 102 -14 164 -6 l 102 -14 q 44 -21 74 -18 q -20 -29 13 -25 z"},"«":{"ha":465,"x_min":43,"x_max":539,"o":"m 427 29 l 427 29 q 387 80 407 55 q 347 128 367 104 l 347 128 q 308 178 327 152 q 268 229 288 203 l 268 229 q 290 364 280 297 q 310 499 300 431 l 310 499 q 381 553 341 526 q 455 603 420 580 l 455 603 q 539 651 496 629 l 539 651 q 531 618 535 635 q 522 584 526 601 l 522 584 l 508 521 q 501 488 504 504 q 494 457 497 471 l 494 457 q 452 429 471 441 q 417 408 432 417 l 417 408 q 389 390 402 399 q 363 371 375 381 l 363 371 q 391 339 377 355 q 418 305 405 322 l 418 305 q 445 272 431 288 q 472 238 458 255 l 472 238 q 461 186 466 212 q 450 134 455 160 l 450 134 q 439 82 445 108 q 427 29 433 55 z m 202 29 l 202 29 q 162 80 182 55 q 122 128 142 104 l 122 128 q 83 178 102 152 q 43 229 63 203 l 43 229 q 56 297 50 263 q 66 364 61 330 l 66 364 q 76 432 71 398 q 85 499 80 465 l 85 499 q 156 553 116 526 q 230 603 195 580 l 230 603 q 314 651 271 629 l 314 651 q 306 618 310 635 q 298 584 302 601 l 298 584 q 283 521 291 555 q 270 457 275 486 l 270 457 q 228 429 247 441 q 193 408 208 417 l 193 408 q 164 390 177 399 q 139 371 150 381 l 139 371 q 193 305 168 338 l 193 305 q 220 272 206 288 q 247 238 233 255 l 247 238 q 236 186 241 212 q 225 134 230 160 l 225 134 q 215 82 220 108 q 202 29 209 55 z"},"»":{"ha":463,"x_min":14,"x_max":510,"o":"m 238 29 l 238 29 q 247 63 243 46 q 255 97 251 80 l 255 97 q 262 127 259 111 q 269 160 265 143 l 269 160 q 276 193 273 177 q 283 224 279 208 l 283 224 q 354 278 318 252 q 414 329 389 304 l 414 329 q 360 386 386 358 l 360 386 q 334 414 347 400 q 306 442 320 428 l 306 442 q 317 495 311 468 q 328 547 323 521 l 328 547 q 339 599 333 573 q 351 651 344 625 l 351 651 q 392 602 371 626 q 432 553 412 577 l 432 553 q 510 451 471 505 l 510 451 q 498 384 503 417 q 488 317 493 351 l 488 317 q 478 250 483 283 q 468 182 473 216 l 468 182 q 435 154 452 168 q 397 127 417 140 l 397 127 q 358 102 377 114 q 322 78 339 89 l 322 78 q 281 53 302 65 q 238 29 260 41 z m 14 29 l 14 29 q 22 63 18 46 q 30 97 26 80 l 30 97 q 45 160 38 126 l 45 160 q 52 193 49 177 q 59 224 55 208 l 59 224 q 133 281 98 256 q 189 329 167 305 l 189 329 q 135 386 161 358 l 135 386 q 109 414 122 400 q 81 442 95 428 l 81 442 q 93 495 87 468 q 103 547 98 521 l 103 547 q 114 599 108 573 q 126 651 119 625 l 126 651 q 167 602 146 626 q 207 553 187 577 l 207 553 q 285 451 246 505 l 285 451 q 273 384 278 417 q 263 317 268 351 l 263 317 q 253 250 258 283 q 243 182 248 216 l 243 182 q 173 127 212 153 q 98 78 133 101 l 98 78 q 57 53 78 65 q 14 29 36 41 z"},"\"":{"ha":421,"x_min":72,"x_max":570,"o":"m 438 460 l 285 450 q 308 509 296 479 q 329 566 319 538 l 329 566 q 368 672 348 616 q 400 772 387 727 l 400 772 q 485 778 449 774 q 570 788 521 782 l 570 788 q 530 682 552 738 q 486 575 507 625 l 486 575 l 438 460 z m 213 459 l 72 440 l 107 569 q 122 626 117 606 q 131 657 127 645 q 138 682 134 669 q 147 717 141 695 q 162 780 152 739 l 162 780 q 172 779 167 779 q 180 779 176 779 l 180 779 l 195 779 q 232 780 214 779 q 265 781 249 780 l 265 781 q 300 783 282 782 q 337 783 318 783 l 337 783 q 297 687 319 742 q 257 580 275 631 l 257 580 q 235 521 246 551 q 213 459 224 490 l 213 459 z"},"'":{"ha":202,"x_min":78,"x_max":340,"o":"m 242 478 l 78 461 l 105 569 q 131 672 117 616 q 155 778 144 728 l 155 778 q 182 776 164 777 q 215 775 200 775 q 233 775 230 775 l 233 775 q 285 780 257 775 q 340 789 312 784 l 340 789 l 242 478 z"},"@":{"ha":987,"x_min":45,"x_max":1023,"o":"m 229 103 l 102 -23 q 59 103 72 41 q 45 223 45 164 l 45 223 q 101 434 45 339 q 246 591 156 528 l 246 591 q 446 687 336 654 q 658 719 555 719 l 658 719 q 819 691 750 719 q 933 618 887 663 l 933 618 q 1001 514 978 572 q 1023 395 1023 455 l 1023 395 q 1000 275 1023 333 q 931 169 977 216 l 931 169 q 816 94 885 123 q 654 65 746 65 l 654 65 q 585 77 611 65 q 558 109 558 89 l 558 109 q 562 136 558 124 l 562 136 q 488 98 524 112 q 415 84 452 84 l 415 84 q 303 122 338 84 q 268 210 268 159 l 268 210 q 291 294 268 251 q 356 375 314 336 q 454 441 397 413 l 454 441 q 548 474 509 468 l 548 474 q 594 480 577 478 q 628 481 610 481 l 628 481 q 703 472 661 481 q 788 438 744 463 l 788 438 l 776 396 q 766 356 771 378 q 755 314 760 334 l 755 314 l 724 188 q 840 287 808 234 q 872 392 872 340 l 872 392 q 838 493 872 453 q 747 551 803 532 q 622 570 690 570 l 622 570 q 471 548 545 570 q 336 484 396 526 q 240 380 276 441 q 204 241 204 319 l 204 241 q 229 103 204 171 l 229 103 z m 490 188 l 490 188 q 582 212 536 188 l 582 212 l 637 390 q 607 394 622 394 l 607 394 q 521 374 564 394 q 450 319 478 353 q 421 241 421 284 l 421 241 q 435 203 421 218 q 490 188 449 188 z"},"&":{"ha":535,"x_min":20,"x_max":604,"o":"m 219 -13 l 219 -13 q 107 10 151 -13 q 42 73 63 33 q 20 161 20 112 l 20 161 q 42 261 20 211 q 102 350 63 311 q 194 403 141 389 l 194 403 q 137 449 161 420 q 113 514 113 477 l 113 514 q 151 633 113 582 q 249 713 188 684 q 381 742 310 742 l 381 742 q 468 721 428 742 q 529 661 507 699 l 529 661 l 447 569 q 424 590 434 581 q 396 603 413 598 q 346 608 379 608 l 346 608 q 287 582 306 608 q 267 521 267 556 l 267 521 q 289 456 267 482 q 351 429 311 429 l 351 429 l 361 429 q 367 430 364 429 q 373 431 370 430 l 373 431 q 374 444 373 440 l 374 444 q 375 450 375 447 q 376 457 375 453 l 376 457 q 377 470 376 466 l 377 470 q 416 471 397 470 q 451 472 434 471 l 451 472 q 486 474 468 473 q 523 476 504 475 l 523 476 q 521 461 521 470 l 521 461 l 521 436 q 551 440 532 436 q 593 449 570 444 l 593 449 l 604 347 q 555 340 577 343 q 525 336 533 336 l 525 336 q 495 158 525 237 q 398 33 465 79 q 219 -13 331 -13 z m 252 113 l 252 113 q 310 137 288 113 q 343 197 331 161 q 359 270 354 233 q 366 332 364 307 l 366 332 q 224 283 268 325 q 179 185 179 240 l 179 185 q 199 133 179 153 q 252 113 218 113 z"},"¶":{"ha":448,"x_min":92,"x_max":513,"o":"m 227 14 l 119 -1 q 134 69 127 34 q 148 138 141 104 l 148 138 q 175 259 161 196 q 197 368 188 321 l 197 368 q 118 423 143 385 q 92 508 92 461 l 92 508 q 110 589 92 548 q 162 663 128 629 q 245 718 196 697 q 355 738 294 738 l 355 738 q 434 729 393 738 q 513 706 475 719 l 513 706 q 484 579 499 650 q 453 431 468 508 q 423 280 437 354 l 423 280 q 399 157 410 219 q 376 33 387 95 l 376 33 l 271 22 l 334 348 l 299 348 l 227 14 z"},"§":{"ha":439,"x_min":22,"x_max":526,"o":"m 179 -18 l 179 -18 q 102 -3 141 -18 q 22 42 62 11 l 22 42 l 67 161 q 120 125 89 139 q 180 110 151 110 l 180 110 q 208 121 195 110 q 220 147 220 131 l 220 147 q 205 184 220 164 q 166 224 189 203 q 120 268 143 245 q 81 315 96 291 q 65 364 65 339 l 65 364 q 99 455 65 414 q 202 516 132 496 l 202 516 q 170 606 170 563 l 170 606 q 190 671 170 642 q 243 720 210 700 q 313 750 275 739 q 388 760 351 760 l 388 760 q 485 734 444 760 q 526 648 526 707 l 526 648 q 526 639 526 644 q 524 629 525 634 l 524 629 l 521 608 l 396 600 q 385 639 396 628 q 358 649 373 649 l 358 649 q 324 637 340 649 q 308 608 308 625 l 308 608 q 333 577 308 592 q 388 541 357 561 l 388 541 q 445 490 420 520 q 469 415 469 459 l 469 415 q 435 325 469 363 q 352 262 401 287 l 352 262 q 372 206 365 232 q 378 154 378 179 l 378 154 q 351 62 378 101 q 278 3 323 23 q 179 -18 233 -18 z m 264 340 l 264 340 q 292 360 280 345 q 303 402 303 375 l 303 402 q 295 424 303 413 q 273 445 287 434 l 273 445 q 240 427 257 443 q 222 387 222 411 l 222 387 q 234 363 222 373 q 264 340 245 352 z"},"©":{"ha":575,"x_min":60,"x_max":630,"o":"m 262 80 l 262 80 q 158 101 204 80 q 86 165 112 121 q 60 276 60 208 l 60 276 q 84 441 60 359 q 156 593 107 522 l 156 593 q 279 711 205 666 q 450 755 353 755 l 450 755 q 554 725 514 755 q 612 644 593 695 q 630 529 630 593 l 630 529 q 595 345 630 427 q 505 203 559 262 l 505 203 q 385 113 450 145 q 262 80 320 80 z m 259 165 l 259 165 q 373 198 320 165 q 465 282 425 230 q 528 394 505 334 q 550 508 550 454 l 550 508 q 527 625 550 579 q 455 671 504 671 l 455 671 q 336 651 385 671 q 256 599 287 630 q 207 534 225 567 l 207 534 q 161 409 173 473 q 149 291 149 344 l 149 291 q 150 261 149 278 q 160 224 150 243 l 160 224 q 199 183 173 200 q 259 165 225 165 z m 282 194 l 282 194 q 220 230 245 194 q 195 334 195 265 l 195 334 q 211 447 195 391 q 256 547 227 502 q 325 619 285 592 q 412 646 365 646 l 412 646 q 464 624 442 646 q 485 562 485 601 l 485 562 l 485 553 q 484 544 485 547 l 484 544 l 393 517 l 393 522 q 391 548 393 533 q 383 563 389 563 l 383 563 q 352 539 368 563 q 323 478 336 515 q 301 402 309 441 q 292 334 292 363 l 292 334 q 304 303 292 303 l 304 303 q 330 316 319 303 q 350 347 341 328 q 363 381 358 365 l 363 381 l 434 353 q 363 234 404 273 q 282 194 322 194 z"},"®":{"ha":538,"x_min":65,"x_max":597,"o":"m 254 127 l 254 127 q 119 171 172 127 q 65 310 65 215 l 65 310 q 87 458 65 379 q 154 604 108 537 l 154 604 q 268 713 199 670 q 429 755 336 755 l 429 755 q 524 728 487 755 q 579 653 561 700 q 597 545 597 605 l 597 545 q 564 372 597 449 q 480 241 530 295 l 480 241 q 370 157 430 186 q 254 127 309 127 z m 390 425 l 432 301 q 499 413 475 352 q 522 524 522 474 l 522 524 q 502 633 522 589 q 434 677 481 677 l 434 677 q 329 660 373 677 q 253 613 284 642 l 253 613 q 325 624 287 620 q 398 627 363 627 l 398 627 q 482 610 460 627 q 503 566 503 593 l 503 566 q 471 484 503 522 q 390 425 438 445 l 390 425 z m 154 271 l 154 271 q 171 337 161 298 q 192 419 181 375 q 212 507 202 463 q 228 587 221 551 l 228 587 q 179 502 196 549 q 156 407 162 454 q 149 322 149 360 l 149 322 l 149 296 q 154 271 149 286 z m 324 552 l 303 467 q 342 479 319 469 q 384 504 365 488 q 402 537 402 519 l 402 537 q 389 550 402 547 q 359 553 376 553 l 359 553 l 341 553 q 333 552 337 552 q 324 552 328 552 l 324 552 z m 251 205 l 251 205 q 325 219 290 205 q 390 259 359 233 l 390 259 l 335 244 q 327 277 331 261 q 319 309 323 293 l 319 309 q 308 360 313 334 q 302 396 303 385 l 302 396 l 285 393 q 280 375 283 385 q 275 353 277 364 l 275 353 q 270 331 273 342 q 265 309 267 320 l 265 309 q 259 284 262 296 q 252 258 256 271 l 252 258 l 172 241 q 206 216 186 226 q 251 205 226 205 z"},"°":{"ha":238,"x_min":98,"x_max":340,"o":"m 206 508 l 206 508 q 128 541 157 508 q 98 625 98 574 l 98 625 q 110 681 98 653 q 150 728 122 709 q 221 747 177 747 l 221 747 q 290 730 264 747 q 328 688 316 713 q 340 636 340 662 l 340 636 q 324 575 340 604 q 278 527 308 545 q 206 508 248 508 z m 219 577 l 219 577 q 267 597 251 577 q 283 639 283 616 l 283 639 q 269 675 283 659 q 225 690 254 690 l 225 690 q 182 673 196 690 q 167 633 167 655 l 167 633 q 180 595 167 612 q 219 577 193 577 z"},"|":{"ha":248,"x_min":22,"x_max":320,"o":"m 22 -19 l 22 -19 q 68 201 45 81 q 115 450 91 320 l 115 450 q 141 596 128 521 q 167 746 154 670 l 167 746 l 320 758 q 293 611 306 683 q 267 469 280 539 l 267 469 q 237 306 252 391 q 209 141 222 220 q 188 0 196 61 l 188 0 q 143 -2 170 0 q 88 -8 115 -5 q 42 -15 61 -12 q 22 -19 23 -18 z"},"¦":{"ha":243,"x_min":20,"x_max":317,"o":"m 260 443 l 108 426 q 130 549 120 491 q 147 651 140 607 l 147 651 l 164 746 l 317 758 q 309 714 313 737 q 300 665 305 691 l 300 665 q 292 618 296 643 q 282 565 287 593 l 282 565 q 271 506 277 537 q 260 443 265 475 l 260 443 z m 20 -19 l 20 -19 q 50 121 33 40 q 83 289 66 201 l 83 289 l 236 313 q 207 144 221 226 q 185 0 193 62 l 185 0 q 140 -2 167 0 q 86 -9 113 -5 q 39 -16 58 -13 q 20 -19 20 -19 z"},"¢":{"ha":446,"x_min":55,"x_max":526,"o":"m 158 -86 l 158 -86 q 169 -39 165 -58 q 175 0 172 -20 l 175 0 q 89 65 123 10 q 55 219 55 120 l 55 219 q 75 380 55 300 q 131 530 94 460 q 220 651 168 600 q 335 721 271 701 l 335 721 q 339 750 337 736 q 343 773 341 763 l 343 773 q 345 785 344 779 q 347 795 346 790 l 347 795 l 441 797 q 439 789 440 793 q 437 779 438 784 l 437 779 q 426 729 432 761 l 426 729 q 498 686 470 723 q 526 591 526 649 l 526 591 l 526 579 q 526 572 526 575 q 525 565 526 569 l 525 565 l 375 521 l 375 532 q 374 559 375 543 q 369 586 372 574 q 358 598 365 598 l 358 598 q 323 578 341 598 q 289 524 305 557 q 259 454 272 491 l 259 454 q 224 325 237 388 q 211 224 211 262 l 211 224 q 216 187 211 202 l 216 187 q 230 173 221 173 l 230 173 q 274 194 255 173 q 306 244 292 214 q 328 300 319 273 l 328 300 l 442 254 q 366 106 409 163 q 276 21 323 49 l 276 21 q 274 1 275 11 q 272 -22 273 -10 l 272 -22 q 269 -47 271 -34 q 265 -77 267 -61 l 265 -77 q 252 -77 258 -77 q 239 -78 246 -77 l 239 -78 q 204 -82 224 -79 q 158 -86 184 -86 z"},"¤":{"ha":429,"x_min":56,"x_max":507,"o":"m 452 291 l 389 246 l 383 255 q 378 264 381 259 q 370 275 374 268 l 370 275 l 347 313 q 296 285 321 295 q 245 275 270 275 l 245 275 q 153 298 188 275 l 153 298 q 141 286 146 291 q 130 276 135 280 l 130 276 q 121 268 125 272 q 115 262 117 264 l 115 262 l 106 253 l 56 311 q 61 316 58 313 q 68 322 64 318 l 68 322 q 85 337 75 328 q 107 357 94 345 l 107 357 q 102 383 104 369 q 100 410 100 396 l 100 410 q 119 507 100 457 q 170 598 137 557 l 170 598 l 122 668 q 137 677 129 672 q 155 687 145 682 l 155 687 q 172 698 164 692 q 186 708 179 703 l 186 708 q 204 674 197 686 q 224 645 211 662 l 224 645 q 280 677 249 665 q 341 689 310 689 l 341 689 q 419 666 387 689 l 419 666 l 456 704 q 468 690 461 697 q 482 675 474 683 l 482 675 l 507 650 l 461 606 q 470 542 470 575 l 470 542 q 404 358 470 442 l 404 358 q 427 326 418 339 q 441 305 436 313 l 441 305 q 452 291 449 295 l 452 291 z m 263 375 l 263 375 q 308 391 287 375 q 346 430 329 406 q 371 482 362 454 q 380 534 380 510 l 380 534 q 368 579 380 561 q 329 597 355 597 l 329 597 q 262 572 290 597 q 219 512 234 547 q 204 444 204 476 l 204 444 q 218 395 204 415 q 263 375 232 375 z"},"$":{"ha":442,"x_min":21,"x_max":513,"o":"m 267 -61 l 142 -72 l 148 -40 q 155 -10 151 -26 q 164 20 159 6 l 164 20 q 92 44 128 23 q 21 108 55 65 l 21 108 l 93 254 q 119 217 102 236 q 156 184 136 197 q 193 170 176 170 l 193 170 q 240 187 219 170 q 261 244 261 203 l 261 244 q 235 299 261 270 q 176 356 208 327 l 176 356 q 117 423 142 386 q 91 499 91 459 l 91 499 q 114 576 91 541 q 176 639 137 611 q 258 686 214 667 l 258 686 q 273 747 266 723 q 287 797 279 771 l 287 797 l 424 813 l 384 712 q 477 681 440 710 q 513 589 513 651 l 513 589 q 513 576 513 582 q 511 562 512 569 l 511 562 q 509 549 510 555 q 507 534 508 542 l 507 534 l 363 502 q 366 518 364 513 l 366 518 q 367 524 367 520 l 367 524 q 356 568 367 555 q 328 581 344 581 l 328 581 q 303 575 317 581 q 278 556 288 568 q 267 524 267 543 l 267 524 q 296 479 267 501 q 358 431 324 457 l 358 431 q 420 364 391 406 q 448 258 448 321 l 448 258 q 426 160 448 205 q 365 83 404 115 q 276 34 326 50 l 276 34 q 270 -22 272 6 q 267 -61 267 -50 l 267 -61 z"},"£":{"ha":401,"x_min":0,"x_max":471,"o":"m 0 -2 l 0 -2 q 6 35 2 13 q 15 77 10 57 l 15 77 q 20 103 17 90 q 25 128 23 115 l 25 128 l 50 138 q 93 170 72 144 q 132 233 114 196 q 161 306 150 269 l 161 306 q 150 305 156 305 q 139 305 144 305 l 139 305 l 93 305 l 123 435 q 132 434 128 434 q 140 434 136 434 l 140 434 q 153 433 144 433 l 153 433 l 164 433 q 145 563 145 508 l 145 563 q 174 664 145 627 q 247 716 202 700 q 339 732 291 732 l 339 732 q 471 703 416 732 l 471 703 l 445 610 q 438 586 441 598 q 432 563 435 574 l 432 563 q 394 578 419 570 q 344 586 369 586 l 344 586 q 303 573 320 586 q 285 521 285 559 l 285 521 q 293 480 285 506 l 293 480 q 300 456 297 467 q 304 433 302 444 l 304 433 q 345 433 330 433 q 374 434 360 433 q 405 436 387 435 l 405 436 l 389 304 q 376 304 382 304 q 362 305 369 304 l 362 305 q 351 306 357 306 q 336 306 344 306 l 336 306 q 320 306 328 306 q 304 307 312 306 l 304 307 q 298 256 304 287 q 277 194 291 225 q 236 141 262 163 l 236 141 q 264 142 244 141 q 306 144 283 143 q 348 146 328 145 q 378 146 368 146 l 378 146 q 376 115 377 130 q 374 86 375 100 l 374 86 q 373 61 373 72 q 372 41 372 49 l 372 41 q 373 36 372 37 l 373 36 l 373 31 q 361 31 367 31 q 348 32 355 31 l 348 32 l 323 32 q 217 29 275 32 q 102 18 159 25 q 0 -2 45 10 z"},"¥":{"ha":446,"x_min":47,"x_max":546,"o":"m 271 36 l 101 15 l 122 108 l 92 108 q 79 107 85 107 q 68 107 73 107 l 68 107 l 47 107 l 70 190 l 141 190 l 146 216 l 146 248 l 74 248 l 90 331 q 98 330 94 330 q 106 330 102 330 l 106 330 l 124 330 q 135 329 129 329 q 145 329 140 329 l 145 329 q 140 452 143 391 q 132 563 136 513 l 132 563 l 123 674 l 286 736 l 286 614 q 286 510 286 556 q 285 428 285 463 l 285 428 q 300 466 292 445 q 317 512 308 487 l 317 512 l 352 609 q 371 666 361 637 q 391 725 381 694 l 391 725 l 546 690 q 519 633 533 662 q 488 572 504 603 l 488 572 q 462 518 475 546 q 432 457 448 489 l 432 457 q 401 394 416 425 q 371 331 385 362 l 371 331 q 410 333 394 331 q 434 334 426 334 l 434 334 l 401 248 l 331 248 l 317 218 l 312 189 l 391 189 l 371 108 l 322 108 q 308 108 315 108 q 292 109 300 108 l 292 109 q 288 95 290 102 q 284 81 286 88 l 284 81 l 277 58 q 271 36 272 46 l 271 36 z"},"+":{"ha":330,"x_min":59,"x_max":359,"o":"m 232 119 l 113 112 q 123 160 120 144 q 130 190 126 175 q 139 234 133 205 l 139 234 l 59 234 q 67 312 62 273 q 75 383 71 351 l 75 383 l 86 383 q 127 384 106 383 q 167 388 147 385 l 167 388 q 171 408 169 398 q 174 428 172 418 l 174 428 q 178 445 176 436 q 181 464 179 454 l 181 464 q 185 484 183 474 q 188 503 186 493 l 188 503 q 249 507 219 505 q 309 514 279 509 l 309 514 q 304 494 307 504 q 299 472 301 483 l 299 472 q 294 451 297 461 q 289 432 291 441 l 289 432 l 280 389 q 295 391 287 390 q 309 392 302 391 l 309 392 l 335 395 q 348 396 342 396 q 359 397 354 396 l 359 397 q 346 338 351 360 q 337 293 341 315 q 326 233 333 270 l 326 233 q 316 233 321 233 q 303 234 310 233 l 303 234 l 277 234 q 263 234 270 234 q 247 235 255 234 l 247 235 q 246 215 246 225 q 243 195 245 205 l 243 195 q 239 158 241 178 q 232 119 236 138 l 232 119 z"},"×":{"ha":475,"x_min":22,"x_max":526,"o":"m 266 114 l 266 114 q 261 135 263 125 q 257 154 259 144 l 257 154 q 255 171 256 162 q 251 187 253 179 l 251 187 q 245 215 246 206 l 245 215 q 227 188 238 204 q 204 156 215 171 l 204 156 q 190 138 197 147 q 175 118 183 128 l 175 118 l 22 131 q 46 160 33 144 q 74 194 59 175 l 74 194 q 131 263 103 230 l 131 263 l 195 340 q 187 370 191 355 q 178 401 183 385 l 178 401 l 145 512 l 291 571 q 297 541 293 557 q 305 508 301 525 l 305 508 q 314 475 310 491 q 320 443 317 459 l 320 443 q 356 504 337 475 q 395 561 375 532 l 395 561 l 526 535 q 476 476 502 509 q 427 410 450 442 l 427 410 q 402 375 414 393 q 376 338 389 356 l 376 338 q 387 306 381 322 q 398 274 392 290 l 398 274 q 419 218 407 248 q 440 165 430 188 l 440 165 q 418 159 438 164 q 365 144 398 154 l 365 144 q 306 127 332 135 q 266 114 279 119 z"},"÷":{"ha":360,"x_min":50,"x_max":390,"o":"m 171 425 l 171 425 q 184 506 177 466 q 197 582 190 546 l 197 582 q 268 584 229 582 q 342 586 307 585 l 342 586 q 330 537 335 565 l 330 537 q 326 514 328 526 q 321 487 323 501 l 321 487 l 311 429 q 246 426 279 427 q 171 425 212 425 z m 390 388 l 364 252 q 268 254 318 252 q 173 255 217 255 l 173 255 l 134 255 q 114 254 124 254 q 94 254 104 254 l 94 254 q 72 253 83 253 q 50 253 61 253 l 50 253 l 79 388 q 139 386 118 387 q 179 385 160 385 q 228 385 197 385 l 228 385 q 287 386 265 385 q 331 387 309 386 q 390 388 353 387 l 390 388 z m 155 33 l 103 33 q 119 122 113 80 q 132 208 124 164 l 132 208 q 176 210 155 209 q 220 210 197 210 l 220 210 l 248 210 q 262 210 255 210 q 275 209 268 210 l 275 209 q 265 153 270 185 q 254 90 259 121 q 245 35 249 58 l 245 35 q 202 34 226 34 q 155 33 178 33 l 155 33 z"},"=":{"ha":350,"x_min":49,"x_max":372,"o":"m 224 359 l 224 359 q 193 359 208 359 q 164 360 178 359 l 164 360 l 103 360 q 111 438 108 400 q 116 514 114 475 l 116 514 q 168 511 142 512 q 219 510 193 510 l 219 510 q 296 513 258 510 q 372 520 334 515 l 372 520 q 349 441 359 480 q 331 360 339 401 l 331 360 l 278 360 q 252 359 265 359 q 224 359 238 359 z m 49 107 l 49 107 q 73 185 62 146 q 91 265 83 224 l 91 265 l 244 265 q 279 265 261 265 q 314 263 297 264 l 314 263 q 310 189 312 226 q 306 113 308 151 l 306 113 q 202 116 254 116 l 202 116 q 126 114 164 116 q 49 107 87 112 z"},">":{"ha":288,"x_min":6,"x_max":344,"o":"m 6 1 l 6 1 q 33 120 21 60 q 54 240 44 180 l 54 240 q 101 274 77 257 q 148 306 124 290 l 148 306 q 196 339 172 322 q 243 371 220 355 l 243 371 q 209 401 226 386 q 175 432 192 416 l 175 432 q 141 463 158 448 q 106 493 123 478 l 106 493 q 118 607 111 552 l 118 607 l 130 721 q 236 615 182 667 l 236 615 q 290 563 263 589 q 344 509 317 536 l 344 509 q 319 369 330 438 q 297 229 307 300 l 297 229 q 223 174 260 201 q 149 120 186 147 l 149 120 q 6 1 74 66 z"},"<":{"ha":316,"x_min":49,"x_max":380,"o":"m 247 29 l 247 29 q 197 80 222 55 q 147 128 172 104 l 147 128 q 49 229 97 176 l 49 229 q 62 297 56 263 q 72 364 67 330 l 72 364 q 82 432 77 398 q 91 499 86 465 l 91 499 q 239 612 165 555 q 380 736 312 669 l 380 736 q 350 621 363 679 q 324 502 337 562 l 324 502 q 280 469 302 485 q 235 436 258 452 l 235 436 q 190 404 212 420 q 145 371 167 388 l 145 371 l 219 305 q 292 238 254 271 l 292 238 q 281 186 286 212 q 270 134 275 160 l 270 134 q 260 82 265 108 q 247 29 254 55 z"},"±":{"ha":382,"x_min":23,"x_max":387,"o":"m 255 186 l 134 184 q 152 250 145 216 l 152 250 l 158 284 l 75 284 q 82 350 77 313 q 93 411 86 386 l 93 411 l 100 411 q 107 410 102 410 l 107 410 q 148 411 127 410 q 189 415 169 412 l 189 415 l 196 449 q 200 465 198 457 q 203 481 201 473 l 203 481 l 209 514 q 273 517 241 515 q 335 522 304 518 l 335 522 q 330 506 333 514 q 325 488 327 497 l 325 488 q 320 469 323 478 q 315 452 317 460 l 315 452 q 310 434 313 443 q 305 415 307 425 l 305 415 l 335 418 q 349 420 342 419 q 362 421 355 420 l 362 421 l 387 424 q 369 354 376 385 q 354 283 362 322 l 354 283 q 343 283 349 283 q 330 284 337 283 l 330 284 l 302 284 q 287 284 294 284 q 271 285 279 284 l 271 285 q 270 269 270 277 q 267 251 269 260 l 267 251 q 262 219 265 236 q 255 186 259 201 l 255 186 z m 360 139 l 352 41 q 316 41 333 41 q 281 42 298 41 l 281 42 q 251 42 266 42 q 219 43 235 42 l 219 43 l 122 43 q 98 42 110 42 q 75 42 86 42 l 75 42 l 23 42 l 45 138 q 74 137 59 137 q 101 137 88 137 l 101 137 q 124 136 112 136 q 148 136 135 136 l 148 136 l 192 136 q 252 137 229 136 q 298 138 274 137 q 360 139 322 138 l 360 139 z"},"~":{"ha":421,"x_min":34,"x_max":478,"o":"m 117 234 l 117 234 q 87 249 104 240 q 56 266 70 257 q 34 278 41 274 l 34 278 q 43 303 36 278 q 73 374 49 328 l 73 374 q 128 441 93 412 q 209 470 162 470 l 209 470 q 257 458 237 470 q 292 429 277 445 q 319 400 307 412 q 343 387 331 387 l 343 387 q 367 406 355 387 l 367 406 q 395 473 378 423 l 395 473 q 455 443 433 455 l 455 443 q 468 436 462 439 q 478 429 473 433 l 478 429 q 465 378 473 402 q 446 333 457 354 l 446 333 q 418 288 437 310 q 373 251 399 265 q 316 236 347 236 l 316 236 q 279 249 297 236 q 244 280 261 262 q 210 310 226 297 q 177 323 193 323 l 177 323 q 146 304 159 323 l 146 304 q 117 234 131 284 z"},"¬":{"ha":400,"x_min":72,"x_max":455,"o":"m 399 261 l 242 243 q 248 268 245 256 q 255 293 251 280 l 255 293 q 268 340 261 314 q 281 390 275 365 l 281 390 l 72 390 l 91 479 l 236 482 q 315 485 274 484 q 393 487 356 486 q 455 489 429 488 l 455 489 q 434 409 444 449 q 416 336 424 369 l 416 336 q 407 298 411 317 q 399 261 403 279 l 399 261 z"},"^":{"ha":400,"x_min":111,"x_max":448,"o":"m 448 606 l 448 606 q 377 613 412 610 q 305 615 341 615 l 305 615 q 304 635 304 625 q 304 654 304 644 l 304 654 l 304 755 l 283 683 q 273 647 278 665 q 261 612 267 629 l 261 612 q 248 613 254 613 q 234 613 241 613 l 234 613 l 209 613 q 111 610 161 613 l 111 610 q 183 744 152 672 l 183 744 q 214 815 198 779 q 247 884 230 850 l 247 884 q 261 883 254 883 q 274 883 267 883 l 274 883 l 300 883 q 358 884 329 883 q 417 887 387 885 l 417 887 q 414 853 414 870 q 413 818 413 836 l 413 818 q 422 710 413 763 q 448 606 430 656 z"},"µ":{"ha":431,"x_min":-13,"x_max":519,"o":"m 131 712 l 298 727 l 186 184 q 185 135 180 156 q 206 114 190 114 l 206 114 q 248 144 232 114 q 271 214 264 174 l 271 214 l 367 715 l 519 727 l 415 194 q 338 37 396 93 q 193 -19 279 -19 l 193 -19 q 139 -9 162 -19 l 139 -9 l 121 -87 l -13 -111 l 131 712 z"},"%":{"ha":799,"x_min":82,"x_max":820,"o":"m 211 304 l 211 304 q 113 345 143 304 q 82 445 82 386 l 82 445 q 101 552 82 496 q 154 656 120 607 q 231 736 187 705 q 324 766 275 766 l 324 766 q 388 744 363 766 q 423 685 412 721 q 434 608 434 649 l 434 608 q 419 504 434 557 q 376 406 404 451 q 306 332 347 360 q 211 304 264 304 z m 345 74 l 275 -29 l 109 10 q 144 55 120 21 q 208 145 168 89 l 208 145 q 283 255 242 195 q 371 384 323 314 l 371 384 q 498 574 448 498 q 577 694 548 649 q 616 756 605 738 l 616 756 q 650 749 633 752 q 682 742 666 745 l 682 742 q 736 731 708 736 q 780 724 764 726 l 780 724 q 682 579 737 661 q 568 409 627 497 l 568 409 q 635 461 599 441 q 710 481 670 481 l 710 481 q 773 460 749 481 q 809 403 797 438 q 820 324 820 367 l 820 324 q 805 220 820 273 q 760 121 789 166 q 690 48 731 75 q 597 20 649 20 l 597 20 q 498 62 528 20 q 468 161 468 103 l 468 161 q 506 315 468 237 l 506 315 q 418 184 459 246 q 345 74 376 122 l 345 74 z m 238 426 l 238 426 q 291 445 268 426 q 325 492 313 464 q 337 546 337 520 l 337 546 q 326 587 337 570 q 290 604 314 604 l 290 604 q 246 582 266 604 q 214 529 226 559 q 202 473 202 498 l 202 473 q 211 440 202 453 q 238 426 219 426 z m 624 142 l 624 142 q 676 161 654 142 q 711 208 698 180 q 723 262 723 236 l 723 262 q 712 303 723 286 q 676 319 700 319 l 676 319 q 632 297 652 319 q 600 245 612 275 q 588 188 588 214 l 588 188 q 596 156 588 169 q 624 142 604 142 z"},"¨":{"ha":517,"x_min":49,"x_max":468,"o":"m 361 708 l 361 708 q 301 735 321 708 q 281 794 281 761 l 281 794 q 305 856 281 829 q 372 883 328 883 l 372 883 q 444 858 420 883 q 468 802 468 833 l 468 802 q 441 738 468 768 q 361 708 413 708 z m 129 708 l 129 708 q 69 735 89 708 q 49 794 49 761 l 49 794 q 72 856 49 828 q 139 883 94 883 l 139 883 q 212 858 188 883 q 235 802 235 833 l 235 802 q 206 736 235 763 q 129 708 176 708 z"},"`":{"ha":358,"x_min":49,"x_max":310,"o":"m 310 660 l 303 579 q 253 591 278 585 q 205 603 228 597 l 205 603 q 121 624 164 612 q 49 644 78 635 l 49 644 q 63 715 55 673 q 78 795 71 756 l 78 795 l 96 889 q 136 848 116 868 q 174 807 155 827 l 174 807 q 245 732 207 772 q 310 660 282 692 l 310 660 z"},"´":{"ha":353,"x_min":49,"x_max":304,"o":"m 50 550 l 50 550 q 49 561 49 555 q 49 570 49 566 l 49 570 l 49 588 q 49 605 49 596 q 50 621 49 613 l 50 621 l 50 655 q 116 721 84 690 q 178 778 148 751 l 178 778 q 236 833 208 805 q 290 889 264 861 l 290 889 q 296 764 295 821 l 296 764 q 298 706 296 735 q 304 645 300 676 l 304 645 q 243 621 275 633 q 177 597 211 609 l 177 597 q 111 573 143 584 q 50 550 79 561 z"},"¯":{"ha":489,"x_min":49,"x_max":440,"o":"m 56 694 l 56 694 q 50 739 51 711 q 49 793 49 767 l 49 793 l 49 833 q 49 843 49 838 q 50 851 49 847 l 50 851 l 424 883 l 440 721 l 289 712 q 201 706 239 709 q 128 701 162 703 q 56 694 93 698 z"},"¸":{"ha":316,"x_min":49,"x_max":268,"o":"m 133 -165 l 133 -165 q 87 -156 109 -165 q 49 -128 64 -147 l 49 -128 l 68 -40 q 121 -68 93 -68 l 121 -68 q 158 -52 143 -68 q 172 -11 172 -36 l 172 -11 q 171 3 172 -5 q 167 19 169 10 l 167 19 q 210 13 195 16 q 228 10 225 10 l 228 10 q 268 -68 268 -29 l 268 -68 q 250 -118 268 -96 q 201 -152 231 -140 q 133 -165 170 -165 z"}}}
